<svg version="1.1" viewBox="0.0 0.0 1248.0 772.0" fill="none" stroke="none" stroke-linecap="square" stroke-miterlimit="10" width="1248" height="772" xmlns:xlink="http://www.w3.org/1999/xlink" xmlns="http://www.w3.org/2000/svg"><path fill="#ffffff" d="M0 0L1248.0 0L1248.0 772.0L0 772.0L0 0Z" fill-rule="nonzero"/><path stroke="#333333" stroke-width="1.0" stroke-linecap="butt" d="M97.5 95.5L97.5 681.5" fill-rule="nonzero"/><path stroke="#cccccc" stroke-width="1.0" stroke-linecap="butt" d="M346.5 95.5L346.5 681.5" fill-rule="nonzero"/><path stroke="#cccccc" stroke-width="1.0" stroke-linecap="butt" d="M594.5 95.5L594.5 681.5" fill-rule="nonzero"/><path stroke="#cccccc" stroke-width="1.0" stroke-linecap="butt" d="M843.5 95.5L843.5 681.5" fill-rule="nonzero"/><path stroke="#cccccc" stroke-width="1.0" stroke-linecap="butt" d="M1092.5 95.5L1092.5 681.5" fill-rule="nonzero"/><path stroke="#333333" stroke-width="1.0" stroke-linecap="butt" d="M97.5 681.5L1092.5 681.5" fill-rule="nonzero"/><path stroke="#cccccc" stroke-width="1.0" stroke-linecap="butt" d="M97.5 564.5L1092.5 564.5" fill-rule="nonzero"/><path stroke="#cccccc" stroke-width="1.0" stroke-linecap="butt" d="M97.5 446.5L1092.5 446.5" fill-rule="nonzero"/><path stroke="#cccccc" stroke-width="1.0" stroke-linecap="butt" d="M97.5 329.5L1092.5 329.5" fill-rule="nonzero"/><path stroke="#cccccc" stroke-width="1.0" stroke-linecap="butt" d="M97.5 212.5L1092.5 212.5" fill-rule="nonzero"/><path stroke="#cccccc" stroke-width="1.0" stroke-linecap="butt" d="M97.5 95.5L1092.5 95.5" fill-rule="nonzero"/><clipPath id="id_0"><path d="M97.6 95.333336L1092.32 95.333336L1092.32 681.4L97.6 681.4L97.6 95.333336Z" clip-rule="nonzero"/></clipPath><path stroke="#4285f4" stroke-width="2.0" stroke-linecap="butt" clip-path="url(#id_0)" d="M97.6 399.1503L147.336 554.1063L197.072 554.5752L246.808 525.5063L296.544 265.5271" fill-rule="nonzero"/><path stroke="#ea4335" stroke-width="2.0" stroke-linecap="butt" clip-path="url(#id_0)" d="M97.6 415.7946L147.336 560.2014L197.072 554.1063L246.808 521.98987L296.544 267.87137" fill-rule="nonzero"/><path stroke="#fbbc04" stroke-width="2.0" stroke-linecap="butt" clip-path="url(#id_0)" d="M97.6 373.59778L147.336 604.2736L197.072 593.0211L246.808 599.1162L296.544 576.61127L346.28 586.69165L396.016 575.6736L445.752 580.59656L495.488 552.2309L545.224 533.00793L594.96 212.07782" fill-rule="nonzero"/><path stroke="#34a853" stroke-width="2.0" stroke-linecap="butt" clip-path="url(#id_0)" d="M97.6 413.45032L147.336 602.6326L197.072 597.0064L246.808 596.772L296.544 592.5523L346.28 587.8638L396.016 585.5195L445.752 581.53424L495.488 575.2047L545.224 540.27515L594.96 257.08774" fill-rule="nonzero"/><path stroke="#ff6d01" stroke-width="2.0" stroke-linecap="butt" clip-path="url(#id_0)" d="M97.6 379.45847L147.336 610.8376L197.072 593.49L246.808 600.05396L296.544 540.27515L346.28 578.7211L396.016 589.0359L445.752 581.53424L495.488 509.79968L545.224 573.3293L594.96 573.79816L644.696 562.07684L694.432 507.4554L744.168 547.54236L793.904 555.27844L843.64 539.103L893.376 536.99316L943.112 522.2243L992.848 491.74884L1042.584 120.416985" fill-rule="nonzero"/><path stroke="#46bdc6" stroke-width="2.0" stroke-linecap="butt" clip-path="url(#id_0)" d="M97.6 422.59296L147.336 615.05725L197.072 578.4867L246.808 585.5195L296.544 558.79486L346.28 587.16046L396.016 591.61456L445.752 574.73584L495.488 579.4244L545.224 569.8129L594.96 575.6736L644.696 564.88995L694.432 555.27844L744.168 499.01605L793.904 562.7801L843.64 554.8096L893.376 549.88666L943.112 530.1948L992.848 521.521L1042.584 190.51056" fill-rule="nonzero"/><path fill="#000000" fill-opacity="0.0" clip-path="url(#id_0)" d="M100.6 399.1503C100.6 400.80716 99.25685 402.1503 97.6 402.1503C95.943146 402.1503 94.6 400.80716 94.6 399.1503C94.6 397.49344 95.943146 396.1503 97.6 396.1503C99.25685 396.1503 100.6 397.49344 100.6 399.1503Z" fill-rule="nonzero"/><path fill="#000000" fill-opacity="0.0" clip-path="url(#id_0)" d="M150.336 554.1063C150.336 555.7632 148.99286 557.1063 147.336 557.1063C145.67914 557.1063 144.336 555.7632 144.336 554.1063C144.336 552.44946 145.67914 551.1063 147.336 551.1063C148.99286 551.1063 150.336 552.44946 150.336 554.1063Z" fill-rule="nonzero"/><path fill="#000000" fill-opacity="0.0" clip-path="url(#id_0)" d="M200.072 554.5752C200.072 556.23206 198.72885 557.5752 197.072 557.5752C195.41515 557.5752 194.072 556.23206 194.072 554.5752C194.072 552.91833 195.41515 551.5752 197.072 551.5752C198.72885 551.5752 200.072 552.91833 200.072 554.5752Z" fill-rule="nonzero"/><path fill="#000000" fill-opacity="0.0" clip-path="url(#id_0)" d="M249.808 525.5063C249.808 527.16315 248.46486 528.5063 246.808 528.5063C245.15114 528.5063 243.808 527.16315 243.808 525.5063C243.808 523.8494 245.15114 522.5063 246.808 522.5063C248.46486 522.5063 249.808 523.8494 249.808 525.5063Z" fill-rule="nonzero"/><path fill="#000000" fill-opacity="0.0" clip-path="url(#id_0)" d="M299.544 265.5271C299.544 267.18396 298.20087 268.5271 296.544 268.5271C294.88715 268.5271 293.544 267.18396 293.544 265.5271C293.544 263.87024 294.88715 262.5271 296.544 262.5271C298.20087 262.5271 299.544 263.87024 299.544 265.5271Z" fill-rule="nonzero"/><path fill="#000000" fill-opacity="0.0" clip-path="url(#id_0)" d="M100.6 415.7946C100.6 417.45145 99.25685 418.7946 97.6 418.7946C95.943146 418.7946 94.6 417.45145 94.6 415.7946C94.6 414.13773 95.943146 412.7946 97.6 412.7946C99.25685 412.7946 100.6 414.13773 100.6 415.7946Z" fill-rule="nonzero"/><path fill="#000000" fill-opacity="0.0" clip-path="url(#id_0)" d="M150.336 560.2014C150.336 561.8583 148.99286 563.2014 147.336 563.2014C145.67914 563.2014 144.336 561.8583 144.336 560.2014C144.336 558.54456 145.67914 557.2014 147.336 557.2014C148.99286 557.2014 150.336 558.54456 150.336 560.2014Z" fill-rule="nonzero"/><path fill="#000000" fill-opacity="0.0" clip-path="url(#id_0)" d="M200.072 554.1063C200.072 555.7632 198.72885 557.1063 197.072 557.1063C195.41515 557.1063 194.072 555.7632 194.072 554.1063C194.072 552.44946 195.41515 551.1063 197.072 551.1063C198.72885 551.1063 200.072 552.44946 200.072 554.1063Z" fill-rule="nonzero"/><path fill="#000000" fill-opacity="0.0" clip-path="url(#id_0)" d="M249.808 521.98987C249.808 523.6467 248.46486 524.98987 246.808 524.98987C245.15114 524.98987 243.808 523.6467 243.808 521.98987C243.808 520.333 245.15114 518.98987 246.808 518.98987C248.46486 518.98987 249.808 520.333 249.808 521.98987Z" fill-rule="nonzero"/><path fill="#000000" fill-opacity="0.0" clip-path="url(#id_0)" d="M299.544 267.87137C299.544 269.52823 298.20087 270.87137 296.544 270.87137C294.88715 270.87137 293.544 269.52823 293.544 267.87137C293.544 266.2145 294.88715 264.87137 296.544 264.87137C298.20087 264.87137 299.544 266.2145 299.544 267.87137Z" fill-rule="nonzero"/><path fill="#000000" fill-opacity="0.0" clip-path="url(#id_0)" d="M100.6 373.59778C100.6 375.25464 99.25685 376.59778 97.6 376.59778C95.943146 376.59778 94.6 375.25464 94.6 373.59778C94.6 371.94092 95.943146 370.59778 97.6 370.59778C99.25685 370.59778 100.6 371.94092 100.6 373.59778Z" fill-rule="nonzero"/><path fill="#000000" fill-opacity="0.0" clip-path="url(#id_0)" d="M150.336 604.2736C150.336 605.9305 148.99286 607.2736 147.336 607.2736C145.67914 607.2736 144.336 605.9305 144.336 604.2736C144.336 602.61676 145.67914 601.2736 147.336 601.2736C148.99286 601.2736 150.336 602.61676 150.336 604.2736Z" fill-rule="nonzero"/><path fill="#000000" fill-opacity="0.0" clip-path="url(#id_0)" d="M200.072 593.0211C200.072 594.678 198.72885 596.0211 197.072 596.0211C195.41515 596.0211 194.072 594.678 194.072 593.0211C194.072 591.3643 195.41515 590.0211 197.072 590.0211C198.72885 590.0211 200.072 591.3643 200.072 593.0211Z" fill-rule="nonzero"/><path fill="#000000" fill-opacity="0.0" clip-path="url(#id_0)" d="M249.808 599.1162C249.808 600.7731 248.46486 602.1162 246.808 602.1162C245.15114 602.1162 243.808 600.7731 243.808 599.1162C243.808 597.4594 245.15114 596.1162 246.808 596.1162C248.46486 596.1162 249.808 597.4594 249.808 599.1162Z" fill-rule="nonzero"/><path fill="#000000" fill-opacity="0.0" clip-path="url(#id_0)" d="M299.544 576.61127C299.544 578.2681 298.20087 579.61127 296.544 579.61127C294.88715 579.61127 293.544 578.2681 293.544 576.61127C293.544 574.9544 294.88715 573.61127 296.544 573.61127C298.20087 573.61127 299.544 574.9544 299.544 576.61127Z" fill-rule="nonzero"/><path fill="#000000" fill-opacity="0.0" clip-path="url(#id_0)" d="M349.28 586.69165C349.28 588.3485 347.93686 589.69165 346.28 589.69165C344.62314 589.69165 343.28 588.3485 343.28 586.69165C343.28 585.0348 344.62314 583.69165 346.28 583.69165C347.93686 583.69165 349.28 585.0348 349.28 586.69165Z" fill-rule="nonzero"/><path fill="#000000" fill-opacity="0.0" clip-path="url(#id_0)" d="M399.016 575.6736C399.016 577.33044 397.67285 578.6736 396.016 578.6736C394.35913 578.6736 393.016 577.33044 393.016 575.6736C393.016 574.0167 394.35913 572.6736 396.016 572.6736C397.67285 572.6736 399.016 574.0167 399.016 575.6736Z" fill-rule="nonzero"/><path fill="#000000" fill-opacity="0.0" clip-path="url(#id_0)" d="M448.752 580.59656C448.752 582.2534 447.40884 583.59656 445.752 583.59656C444.09515 583.59656 442.752 582.2534 442.752 580.59656C442.752 578.9397 444.09515 577.59656 445.752 577.59656C447.40884 577.59656 448.752 578.9397 448.752 580.59656Z" fill-rule="nonzero"/><path fill="#000000" fill-opacity="0.0" clip-path="url(#id_0)" d="M498.488 552.2309C498.488 553.88776 497.14487 555.2309 495.488 555.2309C493.83115 555.2309 492.488 553.88776 492.488 552.2309C492.488 550.57404 493.83115 549.2309 495.488 549.2309C497.14487 549.2309 498.488 550.57404 498.488 552.2309Z" fill-rule="nonzero"/><path fill="#000000" fill-opacity="0.0" clip-path="url(#id_0)" d="M548.224 533.00793C548.224 534.6648 546.88086 536.00793 545.224 536.00793C543.56714 536.00793 542.224 534.6648 542.224 533.00793C542.224 531.3511 543.56714 530.00793 545.224 530.00793C546.88086 530.00793 548.224 531.3511 548.224 533.00793Z" fill-rule="nonzero"/><path fill="#000000" fill-opacity="0.0" clip-path="url(#id_0)" d="M597.96 212.07782C597.96 213.73466 596.6169 215.07782 594.96 215.07782C593.30316 215.07782 591.96 213.73466 591.96 212.07782C591.96 210.42096 593.30316 209.07782 594.96 209.07782C596.6169 209.07782 597.96 210.42096 597.96 212.07782Z" fill-rule="nonzero"/><path fill="#000000" fill-opacity="0.0" clip-path="url(#id_0)" d="M100.6 413.45032C100.6 415.10718 99.25685 416.45032 97.6 416.45032C95.943146 416.45032 94.6 415.10718 94.6 413.45032C94.6 411.79346 95.943146 410.45032 97.6 410.45032C99.25685 410.45032 100.6 411.79346 100.6 413.45032Z" fill-rule="nonzero"/><path fill="#000000" fill-opacity="0.0" clip-path="url(#id_0)" d="M150.336 602.6326C150.336 604.2895 148.99286 605.6326 147.336 605.6326C145.67914 605.6326 144.336 604.2895 144.336 602.6326C144.336 600.97577 145.67914 599.6326 147.336 599.6326C148.99286 599.6326 150.336 600.97577 150.336 602.6326Z" fill-rule="nonzero"/><path fill="#000000" fill-opacity="0.0" clip-path="url(#id_0)" d="M200.072 597.0064C200.072 598.66327 198.72885 600.0064 197.072 600.0064C195.41515 600.0064 194.072 598.66327 194.072 597.0064C194.072 595.34955 195.41515 594.0064 197.072 594.0064C198.72885 594.0064 200.072 595.34955 200.072 597.0064Z" fill-rule="nonzero"/><path fill="#000000" fill-opacity="0.0" clip-path="url(#id_0)" d="M249.808 596.772C249.808 598.42883 248.46486 599.772 246.808 599.772C245.15114 599.772 243.808 598.42883 243.808 596.772C243.808 595.1151 245.15114 593.772 246.808 593.772C248.46486 593.772 249.808 595.1151 249.808 596.772Z" fill-rule="nonzero"/><path fill="#000000" fill-opacity="0.0" clip-path="url(#id_0)" d="M299.544 592.5523C299.544 594.20917 298.20087 595.5523 296.544 595.5523C294.88715 595.5523 293.544 594.20917 293.544 592.5523C293.544 590.89545 294.88715 589.5523 296.544 589.5523C298.20087 589.5523 299.544 590.89545 299.544 592.5523Z" fill-rule="nonzero"/><path fill="#000000" fill-opacity="0.0" clip-path="url(#id_0)" d="M349.28 587.8638C349.28 589.5206 347.93686 590.8638 346.28 590.8638C344.62314 590.8638 343.28 589.5206 343.28 587.8638C343.28 586.2069 344.62314 584.8638 346.28 584.8638C347.93686 584.8638 349.28 586.2069 349.28 587.8638Z" fill-rule="nonzero"/><path fill="#000000" fill-opacity="0.0" clip-path="url(#id_0)" d="M399.016 585.5195C399.016 587.17633 397.67285 588.5195 396.016 588.5195C394.35913 588.5195 393.016 587.17633 393.016 585.5195C393.016 583.8626 394.35913 582.5195 396.016 582.5195C397.67285 582.5195 399.016 583.8626 399.016 585.5195Z" fill-rule="nonzero"/><path fill="#000000" fill-opacity="0.0" clip-path="url(#id_0)" d="M448.752 581.53424C448.752 583.1911 447.40884 584.53424 445.752 584.53424C444.09515 584.53424 442.752 583.1911 442.752 581.53424C442.752 579.8774 444.09515 578.53424 445.752 578.53424C447.40884 578.53424 448.752 579.8774 448.752 581.53424Z" fill-rule="nonzero"/><path fill="#000000" fill-opacity="0.0" clip-path="url(#id_0)" d="M498.488 575.2047C498.488 576.8616 497.14487 578.2047 495.488 578.2047C493.83115 578.2047 492.488 576.8616 492.488 575.2047C492.488 573.54785 493.83115 572.2047 495.488 572.2047C497.14487 572.2047 498.488 573.54785 498.488 575.2047Z" fill-rule="nonzero"/><path fill="#000000" fill-opacity="0.0" clip-path="url(#id_0)" d="M548.224 540.27515C548.224 541.932 546.88086 543.27515 545.224 543.27515C543.56714 543.27515 542.224 541.932 542.224 540.27515C542.224 538.6183 543.56714 537.27515 545.224 537.27515C546.88086 537.27515 548.224 538.6183 548.224 540.27515Z" fill-rule="nonzero"/><path fill="#000000" fill-opacity="0.0" clip-path="url(#id_0)" d="M597.96 257.08774C597.96 258.7446 596.6169 260.08774 594.96 260.08774C593.30316 260.08774 591.96 258.7446 591.96 257.08774C591.96 255.43088 593.30316 254.08774 594.96 254.08774C596.6169 254.08774 597.96 255.43088 597.96 257.08774Z" fill-rule="nonzero"/><path fill="#000000" fill-opacity="0.0" clip-path="url(#id_0)" d="M100.6 379.45847C100.6 381.1153 99.25685 382.45847 97.6 382.45847C95.943146 382.45847 94.6 381.1153 94.6 379.45847C94.6 377.8016 95.943146 376.45847 97.6 376.45847C99.25685 376.45847 100.6 377.8016 100.6 379.45847Z" fill-rule="nonzero"/><path fill="#000000" fill-opacity="0.0" clip-path="url(#id_0)" d="M150.336 610.8376C150.336 612.49445 148.99286 613.8376 147.336 613.8376C145.67914 613.8376 144.336 612.49445 144.336 610.8376C144.336 609.1807 145.67914 607.8376 147.336 607.8376C148.99286 607.8376 150.336 609.1807 150.336 610.8376Z" fill-rule="nonzero"/><path fill="#000000" fill-opacity="0.0" clip-path="url(#id_0)" d="M200.072 593.49C200.072 595.14685 198.72885 596.49 197.072 596.49C195.41515 596.49 194.072 595.14685 194.072 593.49C194.072 591.8331 195.41515 590.49 197.072 590.49C198.72885 590.49 200.072 591.8331 200.072 593.49Z" fill-rule="nonzero"/><path fill="#000000" fill-opacity="0.0" clip-path="url(#id_0)" d="M249.808 600.05396C249.808 601.7108 248.46486 603.05396 246.808 603.05396C245.15114 603.05396 243.808 601.7108 243.808 600.05396C243.808 598.3971 245.15114 597.05396 246.808 597.05396C248.46486 597.05396 249.808 598.3971 249.808 600.05396Z" fill-rule="nonzero"/><path fill="#000000" fill-opacity="0.0" clip-path="url(#id_0)" d="M299.544 540.27515C299.544 541.932 298.20087 543.27515 296.544 543.27515C294.88715 543.27515 293.544 541.932 293.544 540.27515C293.544 538.6183 294.88715 537.27515 296.544 537.27515C298.20087 537.27515 299.544 538.6183 299.544 540.27515Z" fill-rule="nonzero"/><path fill="#000000" fill-opacity="0.0" clip-path="url(#id_0)" d="M349.28 578.7211C349.28 580.378 347.93686 581.7211 346.28 581.7211C344.62314 581.7211 343.28 580.378 343.28 578.7211C343.28 577.0643 344.62314 575.7211 346.28 575.7211C347.93686 575.7211 349.28 577.0643 349.28 578.7211Z" fill-rule="nonzero"/><path fill="#000000" fill-opacity="0.0" clip-path="url(#id_0)" d="M399.016 589.0359C399.016 590.69275 397.67285 592.0359 396.016 592.0359C394.35913 592.0359 393.016 590.69275 393.016 589.0359C393.016 587.379 394.35913 586.0359 396.016 586.0359C397.67285 586.0359 399.016 587.379 399.016 589.0359Z" fill-rule="nonzero"/><path fill="#000000" fill-opacity="0.0" clip-path="url(#id_0)" d="M448.752 581.53424C448.752 583.1911 447.40884 584.53424 445.752 584.53424C444.09515 584.53424 442.752 583.1911 442.752 581.53424C442.752 579.8774 444.09515 578.53424 445.752 578.53424C447.40884 578.53424 448.752 579.8774 448.752 581.53424Z" fill-rule="nonzero"/><path fill="#000000" fill-opacity="0.0" clip-path="url(#id_0)" d="M498.488 509.79968C498.488 511.45654 497.14487 512.7997 495.488 512.7997C493.83115 512.7997 492.488 511.45654 492.488 509.79968C492.488 508.14282 493.83115 506.79968 495.488 506.79968C497.14487 506.79968 498.488 508.14282 498.488 509.79968Z" fill-rule="nonzero"/><path fill="#000000" fill-opacity="0.0" clip-path="url(#id_0)" d="M548.224 573.3293C548.224 574.98615 546.88086 576.3293 545.224 576.3293C543.56714 576.3293 542.224 574.98615 542.224 573.3293C542.224 571.6724 543.56714 570.3293 545.224 570.3293C546.88086 570.3293 548.224 571.6724 548.224 573.3293Z" fill-rule="nonzero"/><path fill="#000000" fill-opacity="0.0" clip-path="url(#id_0)" d="M597.96 573.79816C597.96 575.455 596.6169 576.79816 594.96 576.79816C593.30316 576.79816 591.96 575.455 591.96 573.79816C591.96 572.1413 593.30316 570.79816 594.96 570.79816C596.6169 570.79816 597.96 572.1413 597.96 573.79816Z" fill-rule="nonzero"/><path fill="#000000" fill-opacity="0.0" clip-path="url(#id_0)" d="M647.696 562.07684C647.696 563.7337 646.35284 565.07684 644.696 565.07684C643.0391 565.07684 641.696 563.7337 641.696 562.07684C641.696 560.42 643.0391 559.07684 644.696 559.07684C646.35284 559.07684 647.696 560.42 647.696 562.07684Z" fill-rule="nonzero"/><path fill="#000000" fill-opacity="0.0" clip-path="url(#id_0)" d="M697.432 507.4554C697.432 509.11227 696.08887 510.4554 694.432 510.4554C692.77515 510.4554 691.432 509.11227 691.432 507.4554C691.432 505.79855 692.77515 504.4554 694.432 504.4554C696.08887 504.4554 697.432 505.79855 697.432 507.4554Z" fill-rule="nonzero"/><path fill="#000000" fill-opacity="0.0" clip-path="url(#id_0)" d="M747.168 547.54236C747.168 549.1992 745.8248 550.54236 744.168 550.54236C742.51117 550.54236 741.168 549.1992 741.168 547.54236C741.168 545.8855 742.51117 544.54236 744.168 544.54236C745.8248 544.54236 747.168 545.8855 747.168 547.54236Z" fill-rule="nonzero"/><path fill="#000000" fill-opacity="0.0" clip-path="url(#id_0)" d="M796.904 555.27844C796.904 556.9353 795.56085 558.27844 793.904 558.27844C792.24713 558.27844 790.904 556.9353 790.904 555.27844C790.904 553.6216 792.24713 552.27844 793.904 552.27844C795.56085 552.27844 796.904 553.6216 796.904 555.27844Z" fill-rule="nonzero"/><path fill="#000000" fill-opacity="0.0" clip-path="url(#id_0)" d="M846.64 539.103C846.64 540.7599 845.2969 542.103 843.64 542.103C841.98315 542.103 840.64 540.7599 840.64 539.103C840.64 537.44617 841.98315 536.103 843.64 536.103C845.2969 536.103 846.64 537.44617 846.64 539.103Z" fill-rule="nonzero"/><path fill="#000000" fill-opacity="0.0" clip-path="url(#id_0)" d="M896.376 536.99316C896.376 538.65 895.03284 539.99316 893.376 539.99316C891.7191 539.99316 890.376 538.65 890.376 536.99316C890.376 535.3363 891.7191 533.99316 893.376 533.99316C895.03284 533.99316 896.376 535.3363 896.376 536.99316Z" fill-rule="nonzero"/><path fill="#000000" fill-opacity="0.0" clip-path="url(#id_0)" d="M946.112 522.2243C946.112 523.88116 944.76886 525.2243 943.112 525.2243C941.45514 525.2243 940.112 523.88116 940.112 522.2243C940.112 520.56744 941.45514 519.2243 943.112 519.2243C944.76886 519.2243 946.112 520.56744 946.112 522.2243Z" fill-rule="nonzero"/><path fill="#000000" fill-opacity="0.0" clip-path="url(#id_0)" d="M995.848 491.74884C995.848 493.40567 994.5049 494.74884 992.848 494.74884C991.19116 494.74884 989.848 493.40567 989.848 491.74884C989.848 490.09198 991.19116 488.74884 992.848 488.74884C994.5049 488.74884 995.848 490.09198 995.848 491.74884Z" fill-rule="nonzero"/><path fill="#000000" fill-opacity="0.0" clip-path="url(#id_0)" d="M1045.584 120.416985C1045.584 122.07384 1044.2408 123.416985 1042.584 123.416985C1040.9271 123.416985 1039.584 122.07384 1039.584 120.416985C1039.584 118.76013 1040.9271 117.416985 1042.584 117.416985C1044.2408 117.416985 1045.584 118.76013 1045.584 120.416985Z" fill-rule="nonzero"/><path fill="#000000" fill-opacity="0.0" clip-path="url(#id_0)" d="M100.6 422.59296C100.6 424.24982 99.25685 425.59296 97.6 425.59296C95.943146 425.59296 94.6 424.24982 94.6 422.59296C94.6 420.9361 95.943146 419.59296 97.6 419.59296C99.25685 419.59296 100.6 420.9361 100.6 422.59296Z" fill-rule="nonzero"/><path fill="#000000" fill-opacity="0.0" clip-path="url(#id_0)" d="M150.336 615.05725C150.336 616.7141 148.99286 618.05725 147.336 618.05725C145.67914 618.05725 144.336 616.7141 144.336 615.05725C144.336 613.4004 145.67914 612.05725 147.336 612.05725C148.99286 612.05725 150.336 613.4004 150.336 615.05725Z" fill-rule="nonzero"/><path fill="#000000" fill-opacity="0.0" clip-path="url(#id_0)" d="M200.072 578.4867C200.072 580.14355 198.72885 581.4867 197.072 581.4867C195.41515 581.4867 194.072 580.14355 194.072 578.4867C194.072 576.82983 195.41515 575.4867 197.072 575.4867C198.72885 575.4867 200.072 576.82983 200.072 578.4867Z" fill-rule="nonzero"/><path fill="#000000" fill-opacity="0.0" clip-path="url(#id_0)" d="M249.808 585.5195C249.808 587.17633 248.46486 588.5195 246.808 588.5195C245.15114 588.5195 243.808 587.17633 243.808 585.5195C243.808 583.8626 245.15114 582.5195 246.808 582.5195C248.46486 582.5195 249.808 583.8626 249.808 585.5195Z" fill-rule="nonzero"/><path fill="#000000" fill-opacity="0.0" clip-path="url(#id_0)" d="M299.544 558.79486C299.544 560.4517 298.20087 561.79486 296.544 561.79486C294.88715 561.79486 293.544 560.4517 293.544 558.79486C293.544 557.138 294.88715 555.79486 296.544 555.79486C298.20087 555.79486 299.544 557.138 299.544 558.79486Z" fill-rule="nonzero"/><path fill="#000000" fill-opacity="0.0" clip-path="url(#id_0)" d="M349.28 587.16046C349.28 588.8173 347.93686 590.16046 346.28 590.16046C344.62314 590.16046 343.28 588.8173 343.28 587.16046C343.28 585.5036 344.62314 584.16046 346.28 584.16046C347.93686 584.16046 349.28 585.5036 349.28 587.16046Z" fill-rule="nonzero"/><path fill="#000000" fill-opacity="0.0" clip-path="url(#id_0)" d="M399.016 591.61456C399.016 593.2714 397.67285 594.61456 396.016 594.61456C394.35913 594.61456 393.016 593.2714 393.016 591.61456C393.016 589.9577 394.35913 588.61456 396.016 588.61456C397.67285 588.61456 399.016 589.9577 399.016 591.61456Z" fill-rule="nonzero"/><path fill="#000000" fill-opacity="0.0" clip-path="url(#id_0)" d="M448.752 574.73584C448.752 576.3927 447.40884 577.73584 445.752 577.73584C444.09515 577.73584 442.752 576.3927 442.752 574.73584C442.752 573.07904 444.09515 571.73584 445.752 571.73584C447.40884 571.73584 448.752 573.07904 448.752 574.73584Z" fill-rule="nonzero"/><path fill="#000000" fill-opacity="0.0" clip-path="url(#id_0)" d="M498.488 579.4244C498.488 581.08124 497.14487 582.4244 495.488 582.4244C493.83115 582.4244 492.488 581.08124 492.488 579.4244C492.488 577.7675 493.83115 576.4244 495.488 576.4244C497.14487 576.4244 498.488 577.7675 498.488 579.4244Z" fill-rule="nonzero"/><path fill="#000000" fill-opacity="0.0" clip-path="url(#id_0)" d="M548.224 569.8129C548.224 571.4698 546.88086 572.8129 545.224 572.8129C543.56714 572.8129 542.224 571.4698 542.224 569.8129C542.224 568.15607 543.56714 566.8129 545.224 566.8129C546.88086 566.8129 548.224 568.15607 548.224 569.8129Z" fill-rule="nonzero"/><path fill="#000000" fill-opacity="0.0" clip-path="url(#id_0)" d="M597.96 575.6736C597.96 577.33044 596.6169 578.6736 594.96 578.6736C593.30316 578.6736 591.96 577.33044 591.96 575.6736C591.96 574.0167 593.30316 572.6736 594.96 572.6736C596.6169 572.6736 597.96 574.0167 597.96 575.6736Z" fill-rule="nonzero"/><path fill="#000000" fill-opacity="0.0" clip-path="url(#id_0)" d="M647.696 564.88995C647.696 566.5468 646.35284 567.88995 644.696 567.88995C643.0391 567.88995 641.696 566.5468 641.696 564.88995C641.696 563.2331 643.0391 561.88995 644.696 561.88995C646.35284 561.88995 647.696 563.2331 647.696 564.88995Z" fill-rule="nonzero"/><path fill="#000000" fill-opacity="0.0" clip-path="url(#id_0)" d="M697.432 555.27844C697.432 556.9353 696.08887 558.27844 694.432 558.27844C692.77515 558.27844 691.432 556.9353 691.432 555.27844C691.432 553.6216 692.77515 552.27844 694.432 552.27844C696.08887 552.27844 697.432 553.6216 697.432 555.27844Z" fill-rule="nonzero"/><path fill="#000000" fill-opacity="0.0" clip-path="url(#id_0)" d="M747.168 499.01605C747.168 500.6729 745.8248 502.01605 744.168 502.01605C742.51117 502.01605 741.168 500.6729 741.168 499.01605C741.168 497.3592 742.51117 496.01605 744.168 496.01605C745.8248 496.01605 747.168 497.3592 747.168 499.01605Z" fill-rule="nonzero"/><path fill="#000000" fill-opacity="0.0" clip-path="url(#id_0)" d="M796.904 562.7801C796.904 564.43695 795.56085 565.7801 793.904 565.7801C792.24713 565.7801 790.904 564.43695 790.904 562.7801C790.904 561.1232 792.24713 559.7801 793.904 559.7801C795.56085 559.7801 796.904 561.1232 796.904 562.7801Z" fill-rule="nonzero"/><path fill="#000000" fill-opacity="0.0" clip-path="url(#id_0)" d="M846.64 554.8096C846.64 556.46643 845.2969 557.8096 843.64 557.8096C841.98315 557.8096 840.64 556.46643 840.64 554.8096C840.64 553.1528 841.98315 551.8096 843.64 551.8096C845.2969 551.8096 846.64 553.1528 846.64 554.8096Z" fill-rule="nonzero"/><path fill="#000000" fill-opacity="0.0" clip-path="url(#id_0)" d="M896.376 549.88666C896.376 551.5435 895.03284 552.88666 893.376 552.88666C891.7191 552.88666 890.376 551.5435 890.376 549.88666C890.376 548.2298 891.7191 546.88666 893.376 546.88666C895.03284 546.88666 896.376 548.2298 896.376 549.88666Z" fill-rule="nonzero"/><path fill="#000000" fill-opacity="0.0" clip-path="url(#id_0)" d="M946.112 530.1948C946.112 531.8517 944.76886 533.1948 943.112 533.1948C941.45514 533.1948 940.112 531.8517 940.112 530.1948C940.112 528.53796 941.45514 527.1948 943.112 527.1948C944.76886 527.1948 946.112 528.53796 946.112 530.1948Z" fill-rule="nonzero"/><path fill="#000000" fill-opacity="0.0" clip-path="url(#id_0)" d="M995.848 521.521C995.848 523.17786 994.5049 524.521 992.848 524.521C991.19116 524.521 989.848 523.17786 989.848 521.521C989.848 519.86414 991.19116 518.521 992.848 518.521C994.5049 518.521 995.848 519.86414 995.848 521.521Z" fill-rule="nonzero"/><path fill="#000000" fill-opacity="0.0" clip-path="url(#id_0)" d="M1045.584 190.51056C1045.584 192.16742 1044.2408 193.51056 1042.584 193.51056C1040.9271 193.51056 1039.584 192.16742 1039.584 190.51056C1039.584 188.8537 1040.9271 187.51056 1042.584 187.51056C1044.2408 187.51056 1045.584 188.8537 1045.584 190.51056Z" fill-rule="nonzero"/><path fill="#000000" d="M592.7569 730.4L592.7569 721.8063L593.8194 721.8063L593.8194 726.7125L596.3038 724.1813L597.6788 724.1813L595.28815 726.47815L597.91315 730.4L596.6163 730.4L594.5538 727.2125L593.8194 727.9313L593.8194 730.4L592.7569 730.4Z" fill-rule="nonzero"/><path fill="#000000" d="M49.600025 413.0698L43.381275 413.0698L43.381275 412.1323L44.256275 412.1323Q43.24065 411.4448 43.24065 410.14792Q43.24065 409.58542 43.443775 409.11667Q43.6469 408.6323 43.975025 408.39792Q44.30315 408.16354 44.74065 408.0698Q45.037525 408.02292 45.7719 408.02292L49.600025 408.02292L49.600025 409.0698L45.818775 409.0698Q45.162525 409.0698 44.850025 409.1948Q44.537525 409.3198 44.350025 409.6323Q44.1469 409.9448 44.1469 410.36667Q44.1469 411.03854 44.5844 411.53854Q45.006275 412.02292 46.193775 412.02292L49.600025 412.02292L49.600025 413.0698ZM47.74065 406.49167L47.5844 405.46042Q48.2094 405.36667 48.537525 404.97604Q48.86565 404.5698 48.86565 403.83542Q48.86565 403.11667 48.5844 402.77292Q48.287525 402.41354 47.881275 402.41354Q47.5219 402.41354 47.318775 402.72604Q47.17815 402.9448 46.9594 403.80417Q46.662525 404.96042 46.4594 405.41354Q46.24065 405.85104 45.86565 406.08542Q45.49065 406.3198 45.0219 406.3198Q44.61565 406.3198 44.256275 406.1323Q43.8969 405.9448 43.662525 405.61667Q43.49065 405.36667 43.36565 404.9448Q43.24065 404.52292 43.24065 404.02292Q43.24065 403.30417 43.4594 402.7573Q43.662525 402.1948 44.0219 401.92917Q44.381275 401.66354 44.975025 401.5698L45.11565 402.60104Q44.6469 402.66354 44.381275 403.0073Q44.100025 403.33542 44.100025 403.96042Q44.100025 404.67917 44.350025 404.99167Q44.5844 405.30417 44.912525 405.30417Q45.11565 405.30417 45.2719 405.17917Q45.443775 405.03854 45.55315 404.77292Q45.61565 404.61667 45.818775 403.83542Q46.131275 402.71042 46.318775 402.27292Q46.506275 401.83542 46.86565 401.58542Q47.225025 401.33542 47.7719 401.33542Q48.30315 401.33542 48.7719 401.64792Q49.225025 401.9448 49.49065 402.52292Q49.74065 403.10104 49.74065 403.83542Q49.74065 405.05417 49.24065 405.6948Q48.725025 406.3198 47.74065 406.49167ZM49.74065 399.86667L40.86565 397.3823L40.86565 396.53854L49.74065 399.02292L49.74065 399.86667ZM46.49065 396.46042Q44.756275 396.46042 43.92815 395.5073Q43.24065 394.71042 43.24065 393.55417Q43.24065 392.27292 44.0844 391.46042Q44.912525 390.6323 46.3969 390.6323Q47.600025 390.6323 48.287525 390.99167Q48.975025 391.35104 49.36565 392.05417Q49.74065 392.74167 49.74065 393.55417Q49.74065 394.85104 48.912525 395.66354Q48.068775 396.46042 46.49065 396.46042ZM46.49065 395.3823Q47.67815 395.3823 48.2719 394.86667Q48.86565 394.33542 48.86565 393.55417Q48.86565 392.7573 48.2719 392.24167Q47.67815 391.72604 46.4594 391.72604Q45.30315 391.72604 44.7094 392.2573Q44.11565 392.77292 44.11565 393.55417Q44.11565 394.33542 44.7094 394.86667Q45.287525 395.3823 46.49065 395.3823ZM51.99065 389.0698L43.381275 389.0698L43.381275 388.11667L44.17815 388.11667Q43.7094 387.77292 43.475025 387.35104Q43.24065 386.91354 43.24065 386.30417Q43.24065 385.5073 43.6469 384.89792Q44.05315 384.28854 44.80315 383.99167Q45.55315 383.67917 46.443775 383.67917Q47.3969 383.67917 48.162525 384.02292Q48.92815 384.35104 49.3344 385.0073Q49.74065 385.66354 49.74065 386.3823Q49.74065 386.91354 49.5219 387.33542Q49.287525 387.7573 48.9594 388.02292L51.99065 388.02292L51.99065 389.0698ZM46.5219 388.11667Q47.725025 388.11667 48.30315 387.6323Q48.86565 387.14792 48.86565 386.46042Q48.86565 385.7573 48.2719 385.2573Q47.67815 384.7573 46.42815 384.7573Q45.24065 384.7573 44.662525 385.24167Q44.068775 385.72604 44.068775 386.41354Q44.068775 387.08542 44.693775 387.60104Q45.318775 388.11667 46.5219 388.11667ZM47.74065 382.49167L47.5844 381.46042Q48.2094 381.36667 48.537525 380.97604Q48.86565 380.5698 48.86565 379.83542Q48.86565 379.11667 48.5844 378.77292Q48.287525 378.41354 47.881275 378.41354Q47.5219 378.41354 47.318775 378.72604Q47.17815 378.9448 46.9594 379.80417Q46.662525 380.96042 46.4594 381.41354Q46.24065 381.85104 45.86565 382.08542Q45.49065 382.3198 45.0219 382.3198Q44.61565 382.3198 44.256275 382.1323Q43.8969 381.9448 43.662525 381.61667Q43.49065 381.36667 43.36565 380.9448Q43.24065 380.52292 43.24065 380.02292Q43.24065 379.30417 43.4594 378.7573Q43.662525 378.1948 44.0219 377.92917Q44.381275 377.66354 44.975025 377.5698L45.11565 378.60104Q44.6469 378.66354 44.381275 379.0073Q44.100025 379.33542 44.100025 379.96042Q44.100025 380.67917 44.350025 380.99167Q44.5844 381.30417 44.912525 381.30417Q45.11565 381.30417 45.2719 381.17917Q45.443775 381.03854 45.55315 380.77292Q45.61565 380.61667 45.818775 379.83542Q46.131275 378.71042 46.318775 378.27292Q46.506275 377.83542 46.86565 377.58542Q47.225025 377.33542 47.7719 377.33542Q48.30315 377.33542 48.7719 377.64792Q49.225025 377.9448 49.49065 378.52292Q49.74065 379.10104 49.74065 379.83542Q49.74065 381.05417 49.24065 381.6948Q48.725025 382.3198 47.74065 382.49167Z" fill-rule="nonzero"/><path fill="#000000" d="M85.1 681.16565Q85.1 679.6344 85.4125 678.7125Q85.725 677.775 86.33437 677.275Q86.95937 676.775 87.89687 676.775Q88.58437 676.775 89.1 677.0563Q89.63125 677.3375 89.975 677.8688Q90.31875 678.3844 90.50625 679.1344Q90.69375 679.8844 90.69375 681.16565Q90.69375 682.6813 90.38125 683.60315Q90.08437 684.525 89.45937 685.04065Q88.85 685.54065 87.89687 685.54065Q86.6625 685.54065 85.94375 684.65Q85.1 683.5875 85.1 681.16565ZM86.17812 681.16565Q86.17812 683.275 86.67812 683.97815Q87.17812 684.6813 87.89687 684.6813Q88.63125 684.6813 89.11562 683.97815Q89.61562 683.275 89.61562 681.16565Q89.61562 679.04065 89.11562 678.35315Q88.63125 677.65 87.88125 677.65Q87.1625 677.65 86.725 678.2594Q86.17812 679.04065 86.17812 681.16565Z" fill-rule="nonzero"/><path fill="#000000" d="M78.1 565.93665L79.20937 565.8429Q79.33437 566.6554 79.77187 567.06165Q80.225 567.4679 80.86562 567.4679Q81.61562 567.4679 82.14687 566.8898Q82.67812 566.31165 82.67812 565.37415Q82.67812 564.4679 82.1625 563.9523Q81.6625 563.421 80.83437 563.421Q80.33437 563.421 79.9125 563.6554Q79.50625 563.8898 79.27187 564.24915L78.2875 564.12415L79.11562 559.7179L83.39687 559.7179L83.39687 560.7179L79.95937 560.7179L79.50625 563.0304Q80.27187 562.4835 81.11562 562.4835Q82.24062 562.4835 83.00625 563.2648Q83.7875 564.046 83.7875 565.2804Q83.7875 566.43665 83.11562 567.296Q82.2875 568.3273 80.86562 568.3273Q79.69375 568.3273 78.94375 567.671Q78.20937 567.0148 78.1 565.93665ZM85.1 563.9523Q85.1 562.421 85.4125 561.49915Q85.725 560.56165 86.33437 560.06165Q86.95937 559.56165 87.89687 559.56165Q88.58437 559.56165 89.1 559.8429Q89.63125 560.12415 89.975 560.6554Q90.31875 561.171 90.50625 561.921Q90.69375 562.671 90.69375 563.9523Q90.69375 565.4679 90.38125 566.3898Q90.08437 567.31165 89.45937 567.8273Q88.85 568.3273 87.89687 568.3273Q86.6625 568.3273 85.94375 567.43665Q85.1 566.37415 85.1 563.9523ZM86.17812 563.9523Q86.17812 566.06165 86.67812 566.7648Q87.17812 567.4679 87.89687 567.4679Q88.63125 567.4679 89.11562 566.7648Q89.61562 566.06165 89.61562 563.9523Q89.61562 561.8273 89.11562 561.1398Q88.63125 560.43665 87.88125 560.43665Q87.1625 560.43665 86.725 561.046Q86.17812 561.8273 86.17812 563.9523Z" fill-rule="nonzero"/><path fill="#000000" d="M75.06875 450.97333L74.02187 450.97333L74.02187 444.25458Q73.63125 444.61395 73.00625 444.98895Q72.39687 445.34833 71.9125 445.5202L71.9125 444.50458Q72.7875 444.0827 73.44375 443.50458Q74.11562 442.91083 74.39687 442.34833L75.06875 442.34833L75.06875 450.97333ZM78.1 446.73895Q78.1 445.2077 78.4125 444.28583Q78.725 443.34833 79.33437 442.84833Q79.95937 442.34833 80.89687 442.34833Q81.58437 442.34833 82.1 442.62958Q82.63125 442.91083 82.975 443.44208Q83.31875 443.9577 83.50625 444.7077Q83.69375 445.4577 83.69375 446.73895Q83.69375 448.25458 83.38125 449.17645Q83.08437 450.09833 82.45937 450.61395Q81.85 451.11395 80.89687 451.11395Q79.6625 451.11395 78.94375 450.22333Q78.1 449.16083 78.1 446.73895ZM79.17812 446.73895Q79.17812 448.84833 79.67812 449.55145Q80.17812 450.25458 80.89687 450.25458Q81.63125 450.25458 82.11562 449.55145Q82.61562 448.84833 82.61562 446.73895Q82.61562 444.61395 82.11562 443.92645Q81.63125 443.22333 80.88125 443.22333Q80.1625 443.22333 79.725 443.8327Q79.17812 444.61395 79.17812 446.73895ZM85.1 446.73895Q85.1 445.2077 85.4125 444.28583Q85.725 443.34833 86.33437 442.84833Q86.95937 442.34833 87.89687 442.34833Q88.58437 442.34833 89.1 442.62958Q89.63125 442.91083 89.975 443.44208Q90.31875 443.9577 90.50625 444.7077Q90.69375 445.4577 90.69375 446.73895Q90.69375 448.25458 90.38125 449.17645Q90.08437 450.09833 89.45937 450.61395Q88.85 451.11395 87.89687 451.11395Q86.6625 451.11395 85.94375 450.22333Q85.1 449.16083 85.1 446.73895ZM86.17812 446.73895Q86.17812 448.84833 86.67812 449.55145Q87.17812 450.25458 87.89687 450.25458Q88.63125 450.25458 89.11562 449.55145Q89.61562 448.84833 89.61562 446.73895Q89.61562 444.61395 89.11562 443.92645Q88.63125 443.22333 87.88125 443.22333Q87.1625 443.22333 86.725 443.8327Q86.17812 444.61395 86.17812 446.73895Z" fill-rule="nonzero"/><path fill="#000000" d="M75.06875 333.76L74.02187 333.76L74.02187 327.04126Q73.63125 327.40063 73.00625 327.77563Q72.39687 328.135 71.9125 328.3069L71.9125 327.29126Q72.7875 326.8694 73.44375 326.29126Q74.11562 325.6975 74.39687 325.135L75.06875 325.135L75.06875 333.76ZM78.1 331.51L79.20937 331.41626Q79.33437 332.22876 79.77187 332.635Q80.225 333.04126 80.86562 333.04126Q81.61562 333.04126 82.14687 332.46313Q82.67812 331.885 82.67812 330.9475Q82.67812 330.04126 82.1625 329.52563Q81.6625 328.9944 80.83437 328.9944Q80.33437 328.9944 79.9125 329.22876Q79.50625 329.46313 79.27187 329.8225L78.2875 329.6975L79.11562 325.29126L83.39687 325.29126L83.39687 326.29126L79.95937 326.29126L79.50625 328.60376Q80.27187 328.0569 81.11562 328.0569Q82.24062 328.0569 83.00625 328.83813Q83.7875 329.6194 83.7875 330.85376Q83.7875 332.01 83.11562 332.8694Q82.2875 333.90063 80.86562 333.90063Q79.69375 333.90063 78.94375 333.2444Q78.20937 332.58813 78.1 331.51ZM85.1 329.52563Q85.1 327.9944 85.4125 327.0725Q85.725 326.135 86.33437 325.635Q86.95937 325.135 87.89687 325.135Q88.58437 325.135 89.1 325.41626Q89.63125 325.6975 89.975 326.22876Q90.31875 326.7444 90.50625 327.4944Q90.69375 328.2444 90.69375 329.52563Q90.69375 331.04126 90.38125 331.96313Q90.08437 332.885 89.45937 333.40063Q88.85 333.90063 87.89687 333.90063Q86.6625 333.90063 85.94375 333.01Q85.1 331.9475 85.1 329.52563ZM86.17812 329.52563Q86.17812 331.635 86.67812 332.33813Q87.17812 333.04126 87.89687 333.04126Q88.63125 333.04126 89.11562 332.33813Q89.61562 331.635 89.61562 329.52563Q89.61562 327.40063 89.11562 326.71313Q88.63125 326.01 87.88125 326.01Q87.1625 326.01 86.725 326.6194Q86.17812 327.40063 86.17812 329.52563Z" fill-rule="nonzero"/><path fill="#000000" d="M76.64687 215.53104L76.64687 216.54666L70.95937 216.54666Q70.95937 216.17166 71.08437 215.81229Q71.30312 215.23416 71.77187 214.67166Q72.25625 214.10916 73.1625 213.37479Q74.56875 212.21854 75.05312 211.54666Q75.55312 210.87479 75.55312 210.28104Q75.55312 209.65604 75.1 209.23416Q74.64687 208.79666 73.92812 208.79666Q73.1625 208.79666 72.70937 209.24979Q72.25625 209.70291 72.24062 210.51541L71.1625 210.40604Q71.27187 209.18729 71.99062 208.56229Q72.725 207.92166 73.95937 207.92166Q75.19375 207.92166 75.9125 208.60916Q76.63125 209.29666 76.63125 210.31229Q76.63125 210.82791 76.4125 211.32791Q76.20937 211.81229 75.70937 212.37479Q75.225 212.92166 74.1 213.87479Q73.14687 214.67166 72.86562 214.96854Q72.6 215.24979 72.42812 215.53104L76.64687 215.53104ZM78.1 212.31229Q78.1 210.78104 78.4125 209.85916Q78.725 208.92166 79.33437 208.42166Q79.95937 207.92166 80.89687 207.92166Q81.58437 207.92166 82.1 208.20291Q82.63125 208.48416 82.975 209.01541Q83.31875 209.53104 83.50625 210.28104Q83.69375 211.03104 83.69375 212.31229Q83.69375 213.82791 83.38125 214.74979Q83.08437 215.67166 82.45937 216.18729Q81.85 216.68729 80.89687 216.68729Q79.6625 216.68729 78.94375 215.79666Q78.1 214.73416 78.1 212.31229ZM79.17812 212.31229Q79.17812 214.42166 79.67812 215.12479Q80.17812 215.82791 80.89687 215.82791Q81.63125 215.82791 82.11562 215.12479Q82.61562 214.42166 82.61562 212.31229Q82.61562 210.18729 82.11562 209.49979Q81.63125 208.79666 80.88125 208.79666Q80.1625 208.79666 79.725 209.40604Q79.17812 210.18729 79.17812 212.31229ZM85.1 212.31229Q85.1 210.78104 85.4125 209.85916Q85.725 208.92166 86.33437 208.42166Q86.95937 207.92166 87.89687 207.92166Q88.58437 207.92166 89.1 208.20291Q89.63125 208.48416 89.975 209.01541Q90.31875 209.53104 90.50625 210.28104Q90.69375 211.03104 90.69375 212.31229Q90.69375 213.82791 90.38125 214.74979Q90.08437 215.67166 89.45937 216.18729Q88.85 216.68729 87.89687 216.68729Q86.6625 216.68729 85.94375 215.79666Q85.1 214.73416 85.1 212.31229ZM86.17812 212.31229Q86.17812 214.42166 86.67812 215.12479Q87.17812 215.82791 87.89687 215.82791Q88.63125 215.82791 89.11562 215.12479Q89.61562 214.42166 89.61562 212.31229Q89.61562 210.18729 89.11562 209.49979Q88.63125 208.79666 87.88125 208.79666Q87.1625 208.79666 86.725 209.40604Q86.17812 210.18729 86.17812 212.31229Z" fill-rule="nonzero"/><path fill="#000000" d="M76.64687 98.31771L76.64687 99.333336L70.95937 99.333336Q70.95937 98.958336 71.08437 98.59896Q71.30312 98.020836 71.77187 97.458336Q72.25625 96.895836 73.1625 96.16146Q74.56875 95.00521 75.05312 94.333336Q75.55312 93.66146 75.55312 93.06771Q75.55312 92.44271 75.1 92.020836Q74.64687 91.583336 73.92812 91.583336Q73.1625 91.583336 72.70937 92.03646Q72.25625 92.489586 72.24062 93.302086L71.1625 93.19271Q71.27187 91.97396 71.99062 91.34896Q72.725 90.708336 73.95937 90.708336Q75.19375 90.708336 75.9125 91.395836Q76.63125 92.083336 76.63125 93.09896Q76.63125 93.614586 76.4125 94.114586Q76.20937 94.59896 75.70937 95.16146Q75.225 95.708336 74.1 96.66146Q73.14687 97.458336 72.86562 97.75521Q72.6 98.03646 72.42812 98.31771L76.64687 98.31771ZM78.1 97.083336L79.20937 96.989586Q79.33437 97.802086 79.77187 98.208336Q80.225 98.614586 80.86562 98.614586Q81.61562 98.614586 82.14687 98.03646Q82.67812 97.458336 82.67812 96.520836Q82.67812 95.614586 82.1625 95.09896Q81.6625 94.56771 80.83437 94.56771Q80.33437 94.56771 79.9125 94.802086Q79.50625 95.03646 79.27187 95.395836L78.2875 95.270836L79.11562 90.864586L83.39687 90.864586L83.39687 91.864586L79.95937 91.864586L79.50625 94.177086Q80.27187 93.63021 81.11562 93.63021Q82.24062 93.63021 83.00625 94.41146Q83.7875 95.19271 83.7875 96.427086Q83.7875 97.583336 83.11562 98.44271Q82.2875 99.47396 80.86562 99.47396Q79.69375 99.47396 78.94375 98.81771Q78.20937 98.16146 78.1 97.083336ZM85.1 95.09896Q85.1 93.56771 85.4125 92.645836Q85.725 91.708336 86.33437 91.208336Q86.95937 90.708336 87.89687 90.708336Q88.58437 90.708336 89.1 90.989586Q89.63125 91.270836 89.975 91.802086Q90.31875 92.31771 90.50625 93.06771Q90.69375 93.81771 90.69375 95.09896Q90.69375 96.614586 90.38125 97.53646Q90.08437 98.458336 89.45937 98.97396Q88.85 99.47396 87.89687 99.47396Q86.6625 99.47396 85.94375 98.583336Q85.1 97.520836 85.1 95.09896ZM86.17812 95.09896Q86.17812 97.208336 86.67812 97.91146Q87.17812 98.614586 87.89687 98.614586Q88.63125 98.614586 89.11562 97.91146Q89.61562 97.208336 89.61562 95.09896Q89.61562 92.97396 89.11562 92.28646Q88.63125 91.583336 87.88125 91.583336Q87.1625 91.583336 86.725 92.19271Q86.17812 92.97396 86.17812 95.09896Z" fill-rule="nonzero"/><path fill="#000000" d="M94.6 694.16565Q94.6 692.6344 94.9125 691.7125Q95.225 690.775 95.83437 690.275Q96.45937 689.775 97.39687 689.775Q98.08437 689.775 98.6 690.0563Q99.13125 690.3375 99.475 690.8688Q99.81875 691.3844 100.00625 692.1344Q100.19375 692.8844 100.19375 694.16565Q100.19375 695.6813 99.88125 696.60315Q99.58437 697.525 98.95937 698.04065Q98.35 698.54065 97.39687 698.54065Q96.1625 698.54065 95.44375 697.65Q94.6 696.5875 94.6 694.16565ZM95.67812 694.16565Q95.67812 696.275 96.17812 696.97815Q96.67812 697.6813 97.39687 697.6813Q98.13125 697.6813 98.61562 696.97815Q99.11562 696.275 99.11562 694.16565Q99.11562 692.04065 98.61562 691.35315Q98.13125 690.65 97.38125 690.65Q96.6625 690.65 96.225 691.2594Q95.67812 692.04065 95.67812 694.16565Z" fill-rule="nonzero"/><path fill="#000000" d="M343.28 696.15L344.38937 696.0563Q344.51437 696.8688 344.95187 697.275Q345.405 697.6813 346.04562 697.6813Q346.79562 697.6813 347.32687 697.10315Q347.85812 696.525 347.85812 695.5875Q347.85812 694.6813 347.3425 694.16565Q346.8425 693.6344 346.01437 693.6344Q345.51437 693.6344 345.0925 693.8688Q344.68625 694.10315 344.45187 694.4625L343.4675 694.3375L344.29562 689.9313L348.57687 689.9313L348.57687 690.9313L345.13937 690.9313L344.68625 693.2438Q345.45187 692.6969 346.29562 692.6969Q347.42062 692.6969 348.18625 693.47815Q348.9675 694.2594 348.9675 695.4938Q348.9675 696.65 348.29562 697.5094Q347.4675 698.54065 346.04562 698.54065Q344.87375 698.54065 344.12375 697.8844Q343.38937 697.22815 343.28 696.15Z" fill-rule="nonzero"/><path fill="#000000" d="M592.4288 698.4L591.3819 698.4L591.3819 691.6813Q590.9913 692.04065 590.3663 692.41565Q589.7569 692.775 589.2725 692.9469L589.2725 691.9313Q590.1475 691.5094 590.8038 690.9313Q591.47565 690.3375 591.7569 689.775L592.4288 689.775L592.4288 698.4ZM595.46 694.16565Q595.46 692.6344 595.7725 691.7125Q596.085 690.775 596.6944 690.275Q597.3194 689.775 598.2569 689.775Q598.9444 689.775 599.46 690.0563Q599.9913 690.3375 600.335 690.8688Q600.6788 691.3844 600.8663 692.1344Q601.0538 692.8844 601.0538 694.16565Q601.0538 695.6813 600.7413 696.60315Q600.4444 697.525 599.8194 698.04065Q599.21 698.54065 598.2569 698.54065Q597.0225 698.54065 596.3038 697.65Q595.46 696.5875 595.46 694.16565ZM596.53815 694.16565Q596.53815 696.275 597.03815 696.97815Q597.53815 697.6813 598.2569 697.6813Q598.9913 697.6813 599.47565 696.97815Q599.97565 696.275 599.97565 694.16565Q599.97565 692.04065 599.47565 691.35315Q598.9913 690.65 598.2413 690.65Q597.5225 690.65 597.085 691.2594Q596.53815 692.04065 596.53815 694.16565Z" fill-rule="nonzero"/><path fill="#000000" d="M841.10876 698.4L840.0619 698.4L840.0619 691.6813Q839.67126 692.04065 839.04626 692.41565Q838.4369 692.775 837.9525 692.9469L837.9525 691.9313Q838.8275 691.5094 839.48376 690.9313Q840.15564 690.3375 840.4369 689.775L841.10876 689.775L841.10876 698.4ZM844.14 696.15L845.2494 696.0563Q845.3744 696.8688 845.8119 697.275Q846.265 697.6813 846.90564 697.6813Q847.65564 697.6813 848.1869 697.10315Q848.71814 696.525 848.71814 695.5875Q848.71814 694.6813 848.2025 694.16565Q847.7025 693.6344 846.8744 693.6344Q846.3744 693.6344 845.9525 693.8688Q845.54626 694.10315 845.3119 694.4625L844.3275 694.3375L845.15564 689.9313L849.4369 689.9313L849.4369 690.9313L845.9994 690.9313L845.54626 693.2438Q846.3119 692.6969 847.15564 692.6969Q848.28064 692.6969 849.04626 693.47815Q849.8275 694.2594 849.8275 695.4938Q849.8275 696.65 849.15564 697.5094Q848.3275 698.54065 846.90564 698.54065Q845.73376 698.54065 844.98376 697.8844Q844.2494 697.22815 844.14 696.15Z" fill-rule="nonzero"/><path fill="#000000" d="M1091.3668 697.3844L1091.3668 698.4L1085.6793 698.4Q1085.6793 698.025 1085.8043 697.66565Q1086.0231 697.0875 1086.4918 696.525Q1086.9762 695.9625 1087.8824 695.22815Q1089.2887 694.0719 1089.7731 693.4Q1090.2731 692.72815 1090.2731 692.1344Q1090.2731 691.5094 1089.82 691.0875Q1089.3668 690.65 1088.6481 690.65Q1087.8824 690.65 1087.4293 691.10315Q1086.9762 691.5563 1086.9606 692.3688L1085.8824 692.2594Q1085.9918 691.04065 1086.7106 690.41565Q1087.445 689.775 1088.6793 689.775Q1089.9137 689.775 1090.6324 690.4625Q1091.3512 691.15 1091.3512 692.16565Q1091.3512 692.6813 1091.1324 693.1813Q1090.9293 693.66565 1090.4293 694.22815Q1089.945 694.775 1088.82 695.72815Q1087.8668 696.525 1087.5856 696.8219Q1087.32 697.10315 1087.1481 697.3844L1091.3668 697.3844ZM1092.82 694.16565Q1092.82 692.6344 1093.1324 691.7125Q1093.445 690.775 1094.0543 690.275Q1094.6793 689.775 1095.6168 689.775Q1096.3043 689.775 1096.82 690.0563Q1097.3512 690.3375 1097.695 690.8688Q1098.0387 691.3844 1098.2262 692.1344Q1098.4137 692.8844 1098.4137 694.16565Q1098.4137 695.6813 1098.1012 696.60315Q1097.8043 697.525 1097.1793 698.04065Q1096.57 698.54065 1095.6168 698.54065Q1094.3824 698.54065 1093.6637 697.65Q1092.82 696.5875 1092.82 694.16565ZM1093.8981 694.16565Q1093.8981 696.275 1094.3981 696.97815Q1094.8981 697.6813 1095.6168 697.6813Q1096.3512 697.6813 1096.8356 696.97815Q1097.3356 696.275 1097.3356 694.16565Q1097.3356 692.04065 1096.8356 691.35315Q1096.3512 690.65 1095.6012 690.65Q1094.8824 690.65 1094.445 691.2594Q1093.8981 692.04065 1093.8981 694.16565Z" fill-rule="nonzero"/><path stroke="#4285f4" stroke-width="4.0" stroke-linecap="butt" d="M1135.3245 95.333336L1147.3245 95.333336" fill-rule="nonzero"/><path fill="#1a1a1a" d="M1156.1995 99.333336L1156.1995 90.739586L1157.3401 90.739586L1157.3401 98.31771L1161.5745 98.31771L1161.5745 99.333336L1156.1995 99.333336ZM1167.3713 97.333336L1168.4651 97.458336Q1168.2151 98.41146 1167.512 98.94271Q1166.8088 99.47396 1165.7307 99.47396Q1164.3713 99.47396 1163.5588 98.63021Q1162.762 97.78646 1162.762 96.270836Q1162.762 94.708336 1163.5745 93.84896Q1164.387 92.97396 1165.6682 92.97396Q1166.9182 92.97396 1167.6995 93.81771Q1168.4963 94.66146 1168.4963 96.208336Q1168.4963 96.302086 1168.4963 96.489586L1163.8557 96.489586Q1163.9182 97.520836 1164.4338 98.06771Q1164.9495 98.59896 1165.7307 98.59896Q1166.3088 98.59896 1166.7151 98.302086Q1167.137 97.989586 1167.3713 97.333336ZM1163.9182 95.63021L1167.387 95.63021Q1167.3245 94.833336 1166.9963 94.44271Q1166.4807 93.833336 1165.6838 93.833336Q1164.9495 93.833336 1164.4495 94.31771Q1163.9651 94.802086 1163.9182 95.63021ZM1169.4182 99.333336L1171.6838 96.09896L1169.5901 93.114586L1170.9026 93.114586L1171.8557 94.56771Q1172.1213 94.989586 1172.2932 95.270836Q1172.5432 94.88021 1172.762 94.583336L1173.8088 93.114586L1175.0745 93.114586L1172.9182 96.03646L1175.2307 99.333336L1173.9495 99.333336L1172.6682 97.395836L1172.3245 96.88021L1170.6838 99.333336L1169.4182 99.333336ZM1178.1213 99.333336L1178.1213 93.114586L1179.0588 93.114586L1179.0588 93.989586Q1179.7463 92.97396 1181.0432 92.97396Q1181.6057 92.97396 1182.0745 93.177086Q1182.5588 93.38021 1182.7932 93.708336Q1183.0276 94.03646 1183.1213 94.47396Q1183.1682 94.770836 1183.1682 95.50521L1183.1682 99.333336L1182.1213 99.333336L1182.1213 95.552086Q1182.1213 94.895836 1181.9963 94.583336Q1181.8713 94.270836 1181.5588 94.083336Q1181.2463 93.88021 1180.8245 93.88021Q1180.1526 93.88021 1179.6526 94.31771Q1179.1682 94.739586 1179.1682 95.927086L1179.1682 99.333336L1178.1213 99.333336ZM1190.6682 94.28646L1184.9963 94.28646L1184.9963 93.302086L1190.6682 93.302086L1190.6682 94.28646ZM1190.6682 96.895836L1184.9963 96.895836L1184.9963 95.91146L1190.6682 95.91146L1190.6682 96.895836ZM1195.1995 99.333336L1195.1995 97.270836L1191.4807 97.270836L1191.4807 96.302086L1195.4026 90.739586L1196.262 90.739586L1196.262 96.302086L1197.4182 96.302086L1197.4182 97.270836L1196.262 97.270836L1196.262 99.333336L1195.1995 99.333336ZM1195.1995 96.302086L1195.1995 92.44271L1192.512 96.302086L1195.1995 96.302086Z" fill-rule="nonzero"/><path stroke="#ea4335" stroke-width="4.0" stroke-linecap="butt" d="M1135.3245 119.333336L1147.3245 119.333336" fill-rule="nonzero"/><path fill="#1a1a1a" d="M1156.262 123.333336L1156.262 114.739586L1160.0745 114.739586Q1161.2307 114.739586 1161.8245 114.97396Q1162.4182 115.208336 1162.7776 115.802086Q1163.137 116.38021 1163.137 117.083336Q1163.137 118.00521 1162.5432 118.63021Q1161.9495 119.25521 1160.7151 119.427086Q1161.1682 119.645836 1161.4026 119.84896Q1161.9026 120.302086 1162.3401 120.989586L1163.8401 123.333336L1162.4026 123.333336L1161.2776 121.552086Q1160.7776 120.770836 1160.4495 120.364586Q1160.137 119.958336 1159.8713 119.802086Q1159.6213 119.63021 1159.3557 119.552086Q1159.1682 119.520836 1158.7307 119.520836L1157.4026 119.520836L1157.4026 123.333336L1156.262 123.333336ZM1157.4026 118.53646L1159.8557 118.53646Q1160.6213 118.53646 1161.0588 118.38021Q1161.512 118.208336 1161.7307 117.864586Q1161.9651 117.50521 1161.9651 117.083336Q1161.9651 116.47396 1161.512 116.083336Q1161.0745 115.69271 1160.1213 115.69271L1157.4026 115.69271L1157.4026 118.53646ZM1169.3713 121.333336L1170.4651 121.458336Q1170.2151 122.41146 1169.512 122.94271Q1168.8088 123.47396 1167.7307 123.47396Q1166.3713 123.47396 1165.5588 122.63021Q1164.762 121.78646 1164.762 120.270836Q1164.762 118.708336 1165.5745 117.84896Q1166.387 116.97396 1167.6682 116.97396Q1168.9182 116.97396 1169.6995 117.81771Q1170.4963 118.66146 1170.4963 120.208336Q1170.4963 120.302086 1170.4963 120.489586L1165.8557 120.489586Q1165.9182 121.520836 1166.4338 122.06771Q1166.9495 122.59896 1167.7307 122.59896Q1168.3088 122.59896 1168.7151 122.302086Q1169.137 121.989586 1169.3713 121.333336ZM1165.9182 119.63021L1169.387 119.63021Q1169.3245 118.833336 1168.9963 118.44271Q1168.4807 117.833336 1167.6838 117.833336Q1166.9495 117.833336 1166.4495 118.31771Q1165.9651 118.802086 1165.9182 119.63021ZM1173.8401 123.333336L1171.4807 117.114586L1172.5901 117.114586L1173.9338 120.833336Q1174.137 121.44271 1174.3245 122.083336Q1174.4651 121.59896 1174.7151 120.91146L1176.1057 117.114586L1177.1838 117.114586L1174.8245 123.333336L1173.8401 123.333336ZM1180.1213 123.333336L1180.1213 117.114586L1181.0588 117.114586L1181.0588 117.989586Q1181.7463 116.97396 1183.0432 116.97396Q1183.6057 116.97396 1184.0745 117.177086Q1184.5588 117.38021 1184.7932 117.708336Q1185.0276 118.03646 1185.1213 118.47396Q1185.1682 118.770836 1185.1682 119.50521L1185.1682 123.333336L1184.1213 123.333336L1184.1213 119.552086Q1184.1213 118.895836 1183.9963 118.583336Q1183.8713 118.270836 1183.5588 118.083336Q1183.2463 117.88021 1182.8245 117.88021Q1182.1526 117.88021 1181.6526 118.31771Q1181.1682 118.739586 1181.1682 119.927086L1181.1682 123.333336L1180.1213 123.333336ZM1192.6682 118.28646L1186.9963 118.28646L1186.9963 117.302086L1192.6682 117.302086L1192.6682 118.28646ZM1192.6682 120.895836L1186.9963 120.895836L1186.9963 119.91146L1192.6682 119.91146L1192.6682 120.895836ZM1197.1995 123.333336L1197.1995 121.270836L1193.4807 121.270836L1193.4807 120.302086L1197.4026 114.739586L1198.262 114.739586L1198.262 120.302086L1199.4182 120.302086L1199.4182 121.270836L1198.262 121.270836L1198.262 123.333336L1197.1995 123.333336ZM1197.1995 120.302086L1197.1995 116.44271L1194.512 120.302086L1197.1995 120.302086Z" fill-rule="nonzero"/><path stroke="#fbbc04" stroke-width="4.0" stroke-linecap="butt" d="M1135.3245 143.33333L1147.3245 143.33333" fill-rule="nonzero"/><path fill="#1a1a1a" d="M1156.1995 147.33333L1156.1995 138.73958L1157.3401 138.73958L1157.3401 146.3177L1161.5745 146.3177L1161.5745 147.33333L1156.1995 147.33333ZM1167.3713 145.33333L1168.4651 145.45833Q1168.2151 146.41145 1167.512 146.9427Q1166.8088 147.47395 1165.7307 147.47395Q1164.3713 147.47395 1163.5588 146.6302Q1162.762 145.78645 1162.762 144.27083Q1162.762 142.70833 1163.5745 141.84895Q1164.387 140.97395 1165.6682 140.97395Q1166.9182 140.97395 1167.6995 141.8177Q1168.4963 142.66145 1168.4963 144.20833Q1168.4963 144.30208 1168.4963 144.48958L1163.8557 144.48958Q1163.9182 145.52083 1164.4338 146.0677Q1164.9495 146.59895 1165.7307 146.59895Q1166.3088 146.59895 1166.7151 146.30208Q1167.137 145.98958 1167.3713 145.33333ZM1163.9182 143.6302L1167.387 143.6302Q1167.3245 142.83333 1166.9963 142.4427Q1166.4807 141.83333 1165.6838 141.83333Q1164.9495 141.83333 1164.4495 142.3177Q1163.9651 142.80208 1163.9182 143.6302ZM1169.4182 147.33333L1171.6838 144.09895L1169.5901 141.11458L1170.9026 141.11458L1171.8557 142.5677Q1172.1213 142.98958 1172.2932 143.27083Q1172.5432 142.8802 1172.762 142.58333L1173.8088 141.11458L1175.0745 141.11458L1172.9182 144.03645L1175.2307 147.33333L1173.9495 147.33333L1172.6682 145.39583L1172.3245 144.8802L1170.6838 147.33333L1169.4182 147.33333ZM1178.1213 147.33333L1178.1213 141.11458L1179.0588 141.11458L1179.0588 141.98958Q1179.7463 140.97395 1181.0432 140.97395Q1181.6057 140.97395 1182.0745 141.17708Q1182.5588 141.3802 1182.7932 141.70833Q1183.0276 142.03645 1183.1213 142.47395Q1183.1682 142.77083 1183.1682 143.5052L1183.1682 147.33333L1182.1213 147.33333L1182.1213 143.55208Q1182.1213 142.89583 1181.9963 142.58333Q1181.8713 142.27083 1181.5588 142.08333Q1181.2463 141.8802 1180.8245 141.8802Q1180.1526 141.8802 1179.6526 142.3177Q1179.1682 142.73958 1179.1682 143.92708L1179.1682 147.33333L1178.1213 147.33333ZM1190.6682 142.28645L1184.9963 142.28645L1184.9963 141.30208L1190.6682 141.30208L1190.6682 142.28645ZM1190.6682 144.89583L1184.9963 144.89583L1184.9963 143.91145L1190.6682 143.91145L1190.6682 144.89583ZM1195.7932 147.33333L1194.7463 147.33333L1194.7463 140.61458Q1194.3557 140.97395 1193.7307 141.34895Q1193.1213 141.70833 1192.637 141.8802L1192.637 140.86458Q1193.512 140.4427 1194.1682 139.86458Q1194.8401 139.27083 1195.1213 138.70833L1195.7932 138.70833L1195.7932 147.33333ZM1198.8245 143.09895Q1198.8245 141.5677 1199.137 140.64583Q1199.4495 139.70833 1200.0588 139.20833Q1200.6838 138.70833 1201.6213 138.70833Q1202.3088 138.70833 1202.8245 138.98958Q1203.3557 139.27083 1203.6995 139.80208Q1204.0432 140.3177 1204.2307 141.0677Q1204.4182 141.8177 1204.4182 143.09895Q1204.4182 144.61458 1204.1057 145.53645Q1203.8088 146.45833 1203.1838 146.97395Q1202.5745 147.47395 1201.6213 147.47395Q1200.387 147.47395 1199.6682 146.58333Q1198.8245 145.52083 1198.8245 143.09895ZM1199.9026 143.09895Q1199.9026 145.20833 1200.4026 145.91145Q1200.9026 146.61458 1201.6213 146.61458Q1202.3557 146.61458 1202.8401 145.91145Q1203.3401 145.20833 1203.3401 143.09895Q1203.3401 140.97395 1202.8401 140.28645Q1202.3557 139.58333 1201.6057 139.58333Q1200.887 139.58333 1200.4495 140.1927Q1199.9026 140.97395 1199.9026 143.09895Z" fill-rule="nonzero"/><path stroke="#34a853" stroke-width="4.0" stroke-linecap="butt" d="M1135.3245 167.33333L1147.3245 167.33333" fill-rule="nonzero"/><path fill="#1a1a1a" d="M1156.262 171.33333L1156.262 162.73958L1160.0745 162.73958Q1161.2307 162.73958 1161.8245 162.97395Q1162.4182 163.20833 1162.7776 163.80208Q1163.137 164.3802 1163.137 165.08333Q1163.137 166.0052 1162.5432 166.6302Q1161.9495 167.2552 1160.7151 167.42708Q1161.1682 167.64583 1161.4026 167.84895Q1161.9026 168.30208 1162.3401 168.98958L1163.8401 171.33333L1162.4026 171.33333L1161.2776 169.55208Q1160.7776 168.77083 1160.4495 168.36458Q1160.137 167.95833 1159.8713 167.80208Q1159.6213 167.6302 1159.3557 167.55208Q1159.1682 167.52083 1158.7307 167.52083L1157.4026 167.52083L1157.4026 171.33333L1156.262 171.33333ZM1157.4026 166.53645L1159.8557 166.53645Q1160.6213 166.53645 1161.0588 166.3802Q1161.512 166.20833 1161.7307 165.86458Q1161.9651 165.5052 1161.9651 165.08333Q1161.9651 164.47395 1161.512 164.08333Q1161.0745 163.6927 1160.1213 163.6927L1157.4026 163.6927L1157.4026 166.53645ZM1169.3713 169.33333L1170.4651 169.45833Q1170.2151 170.41145 1169.512 170.9427Q1168.8088 171.47395 1167.7307 171.47395Q1166.3713 171.47395 1165.5588 170.6302Q1164.762 169.78645 1164.762 168.27083Q1164.762 166.70833 1165.5745 165.84895Q1166.387 164.97395 1167.6682 164.97395Q1168.9182 164.97395 1169.6995 165.8177Q1170.4963 166.66145 1170.4963 168.20833Q1170.4963 168.30208 1170.4963 168.48958L1165.8557 168.48958Q1165.9182 169.52083 1166.4338 170.0677Q1166.9495 170.59895 1167.7307 170.59895Q1168.3088 170.59895 1168.7151 170.30208Q1169.137 169.98958 1169.3713 169.33333ZM1165.9182 167.6302L1169.387 167.6302Q1169.3245 166.83333 1168.9963 166.4427Q1168.4807 165.83333 1167.6838 165.83333Q1166.9495 165.83333 1166.4495 166.3177Q1165.9651 166.80208 1165.9182 167.6302ZM1173.8401 171.33333L1171.4807 165.11458L1172.5901 165.11458L1173.9338 168.83333Q1174.137 169.4427 1174.3245 170.08333Q1174.4651 169.59895 1174.7151 168.91145L1176.1057 165.11458L1177.1838 165.11458L1174.8245 171.33333L1173.8401 171.33333ZM1180.1213 171.33333L1180.1213 165.11458L1181.0588 165.11458L1181.0588 165.98958Q1181.7463 164.97395 1183.0432 164.97395Q1183.6057 164.97395 1184.0745 165.17708Q1184.5588 165.3802 1184.7932 165.70833Q1185.0276 166.03645 1185.1213 166.47395Q1185.1682 166.77083 1185.1682 167.5052L1185.1682 171.33333L1184.1213 171.33333L1184.1213 167.55208Q1184.1213 166.89583 1183.9963 166.58333Q1183.8713 166.27083 1183.5588 166.08333Q1183.2463 165.8802 1182.8245 165.8802Q1182.1526 165.8802 1181.6526 166.3177Q1181.1682 166.73958 1181.1682 167.92708L1181.1682 171.33333L1180.1213 171.33333ZM1192.6682 166.28645L1186.9963 166.28645L1186.9963 165.30208L1192.6682 165.30208L1192.6682 166.28645ZM1192.6682 168.89583L1186.9963 168.89583L1186.9963 167.91145L1192.6682 167.91145L1192.6682 168.89583ZM1197.7932 171.33333L1196.7463 171.33333L1196.7463 164.61458Q1196.3557 164.97395 1195.7307 165.34895Q1195.1213 165.70833 1194.637 165.8802L1194.637 164.86458Q1195.512 164.4427 1196.1682 163.86458Q1196.8401 163.27083 1197.1213 162.70833L1197.7932 162.70833L1197.7932 171.33333ZM1200.8245 167.09895Q1200.8245 165.5677 1201.137 164.64583Q1201.4495 163.70833 1202.0588 163.20833Q1202.6838 162.70833 1203.6213 162.70833Q1204.3088 162.70833 1204.8245 162.98958Q1205.3557 163.27083 1205.6995 163.80208Q1206.0432 164.3177 1206.2307 165.0677Q1206.4182 165.8177 1206.4182 167.09895Q1206.4182 168.61458 1206.1057 169.53645Q1205.8088 170.45833 1205.1838 170.97395Q1204.5745 171.47395 1203.6213 171.47395Q1202.387 171.47395 1201.6682 170.58333Q1200.8245 169.52083 1200.8245 167.09895ZM1201.9026 167.09895Q1201.9026 169.20833 1202.4026 169.91145Q1202.9026 170.61458 1203.6213 170.61458Q1204.3557 170.61458 1204.8401 169.91145Q1205.3401 169.20833 1205.3401 167.09895Q1205.3401 164.97395 1204.8401 164.28645Q1204.3557 163.58333 1203.6057 163.58333Q1202.887 163.58333 1202.4495 164.1927Q1201.9026 164.97395 1201.9026 167.09895Z" fill-rule="nonzero"/><path stroke="#ff6d01" stroke-width="4.0" stroke-linecap="butt" d="M1135.3245 191.33333L1147.3245 191.33333" fill-rule="nonzero"/><path fill="#1a1a1a" d="M1156.1995 195.33333L1156.1995 186.73958L1157.3401 186.73958L1157.3401 194.3177L1161.5745 194.3177L1161.5745 195.33333L1156.1995 195.33333ZM1167.3713 193.33333L1168.4651 193.45833Q1168.2151 194.41145 1167.512 194.9427Q1166.8088 195.47395 1165.7307 195.47395Q1164.3713 195.47395 1163.5588 194.6302Q1162.762 193.78645 1162.762 192.27083Q1162.762 190.70833 1163.5745 189.84895Q1164.387 188.97395 1165.6682 188.97395Q1166.9182 188.97395 1167.6995 189.8177Q1168.4963 190.66145 1168.4963 192.20833Q1168.4963 192.30208 1168.4963 192.48958L1163.8557 192.48958Q1163.9182 193.52083 1164.4338 194.0677Q1164.9495 194.59895 1165.7307 194.59895Q1166.3088 194.59895 1166.7151 194.30208Q1167.137 193.98958 1167.3713 193.33333ZM1163.9182 191.6302L1167.387 191.6302Q1167.3245 190.83333 1166.9963 190.4427Q1166.4807 189.83333 1165.6838 189.83333Q1164.9495 189.83333 1164.4495 190.3177Q1163.9651 190.80208 1163.9182 191.6302ZM1169.4182 195.33333L1171.6838 192.09895L1169.5901 189.11458L1170.9026 189.11458L1171.8557 190.5677Q1172.1213 190.98958 1172.2932 191.27083Q1172.5432 190.8802 1172.762 190.58333L1173.8088 189.11458L1175.0745 189.11458L1172.9182 192.03645L1175.2307 195.33333L1173.9495 195.33333L1172.6682 193.39583L1172.3245 192.8802L1170.6838 195.33333L1169.4182 195.33333ZM1178.1213 195.33333L1178.1213 189.11458L1179.0588 189.11458L1179.0588 189.98958Q1179.7463 188.97395 1181.0432 188.97395Q1181.6057 188.97395 1182.0745 189.17708Q1182.5588 189.3802 1182.7932 189.70833Q1183.0276 190.03645 1183.1213 190.47395Q1183.1682 190.77083 1183.1682 191.5052L1183.1682 195.33333L1182.1213 195.33333L1182.1213 191.55208Q1182.1213 190.89583 1181.9963 190.58333Q1181.8713 190.27083 1181.5588 190.08333Q1181.2463 189.8802 1180.8245 189.8802Q1180.1526 189.8802 1179.6526 190.3177Q1179.1682 190.73958 1179.1682 191.92708L1179.1682 195.33333L1178.1213 195.33333ZM1190.6682 190.28645L1184.9963 190.28645L1184.9963 189.30208L1190.6682 189.30208L1190.6682 190.28645ZM1190.6682 192.89583L1184.9963 192.89583L1184.9963 191.91145L1190.6682 191.91145L1190.6682 192.89583ZM1195.7932 195.33333L1194.7463 195.33333L1194.7463 188.61458Q1194.3557 188.97395 1193.7307 189.34895Q1193.1213 189.70833 1192.637 189.8802L1192.637 188.86458Q1193.512 188.4427 1194.1682 187.86458Q1194.8401 187.27083 1195.1213 186.70833L1195.7932 186.70833L1195.7932 195.33333ZM1198.9807 193.34895L1199.9963 193.2552Q1200.1213 193.97395 1200.4807 194.30208Q1200.8557 194.61458 1201.4182 194.61458Q1201.9026 194.61458 1202.262 194.39583Q1202.637 194.16145 1202.8713 193.80208Q1203.1057 193.42708 1203.262 192.80208Q1203.4182 192.16145 1203.4182 191.5052Q1203.4182 191.42708 1203.4182 191.28645Q1203.1057 191.78645 1202.5588 192.11458Q1202.012 192.42708 1201.3713 192.42708Q1200.2932 192.42708 1199.5588 191.66145Q1198.8245 190.8802 1198.8245 189.61458Q1198.8245 188.30208 1199.5901 187.5052Q1200.3713 186.70833 1201.5276 186.70833Q1202.3557 186.70833 1203.0432 187.16145Q1203.7463 187.61458 1204.1057 188.45833Q1204.4651 189.28645 1204.4651 190.86458Q1204.4651 192.5052 1204.1057 193.48958Q1203.762 194.45833 1203.0432 194.97395Q1202.3401 195.47395 1201.4026 195.47395Q1200.387 195.47395 1199.7463 194.92708Q1199.1057 194.36458 1198.9807 193.34895ZM1203.2932 189.55208Q1203.2932 188.64583 1202.8088 188.11458Q1202.3401 187.58333 1201.6526 187.58333Q1200.9495 187.58333 1200.4182 188.16145Q1199.9026 188.72395 1199.9026 189.64583Q1199.9026 190.45833 1200.4026 190.97395Q1200.9026 191.48958 1201.6213 191.48958Q1202.3557 191.48958 1202.8245 190.97395Q1203.2932 190.45833 1203.2932 189.55208Z" fill-rule="nonzero"/><path stroke="#46bdc6" stroke-width="4.0" stroke-linecap="butt" d="M1135.3245 215.33333L1147.3245 215.33333" fill-rule="nonzero"/><path fill="#1a1a1a" d="M1156.262 219.33333L1156.262 210.73958L1160.0745 210.73958Q1161.2307 210.73958 1161.8245 210.97395Q1162.4182 211.20833 1162.7776 211.80208Q1163.137 212.3802 1163.137 213.08333Q1163.137 214.0052 1162.5432 214.6302Q1161.9495 215.2552 1160.7151 215.42708Q1161.1682 215.64583 1161.4026 215.84895Q1161.9026 216.30208 1162.3401 216.98958L1163.8401 219.33333L1162.4026 219.33333L1161.2776 217.55208Q1160.7776 216.77083 1160.4495 216.36458Q1160.137 215.95833 1159.8713 215.80208Q1159.6213 215.6302 1159.3557 215.55208Q1159.1682 215.52083 1158.7307 215.52083L1157.4026 215.52083L1157.4026 219.33333L1156.262 219.33333ZM1157.4026 214.53645L1159.8557 214.53645Q1160.6213 214.53645 1161.0588 214.3802Q1161.512 214.20833 1161.7307 213.86458Q1161.9651 213.5052 1161.9651 213.08333Q1161.9651 212.47395 1161.512 212.08333Q1161.0745 211.6927 1160.1213 211.6927L1157.4026 211.6927L1157.4026 214.53645ZM1169.3713 217.33333L1170.4651 217.45833Q1170.2151 218.41145 1169.512 218.9427Q1168.8088 219.47395 1167.7307 219.47395Q1166.3713 219.47395 1165.5588 218.6302Q1164.762 217.78645 1164.762 216.27083Q1164.762 214.70833 1165.5745 213.84895Q1166.387 212.97395 1167.6682 212.97395Q1168.9182 212.97395 1169.6995 213.8177Q1170.4963 214.66145 1170.4963 216.20833Q1170.4963 216.30208 1170.4963 216.48958L1165.8557 216.48958Q1165.9182 217.52083 1166.4338 218.0677Q1166.9495 218.59895 1167.7307 218.59895Q1168.3088 218.59895 1168.7151 218.30208Q1169.137 217.98958 1169.3713 217.33333ZM1165.9182 215.6302L1169.387 215.6302Q1169.3245 214.83333 1168.9963 214.4427Q1168.4807 213.83333 1167.6838 213.83333Q1166.9495 213.83333 1166.4495 214.3177Q1165.9651 214.80208 1165.9182 215.6302ZM1173.8401 219.33333L1171.4807 213.11458L1172.5901 213.11458L1173.9338 216.83333Q1174.137 217.4427 1174.3245 218.08333Q1174.4651 217.59895 1174.7151 216.91145L1176.1057 213.11458L1177.1838 213.11458L1174.8245 219.33333L1173.8401 219.33333ZM1180.1213 219.33333L1180.1213 213.11458L1181.0588 213.11458L1181.0588 213.98958Q1181.7463 212.97395 1183.0432 212.97395Q1183.6057 212.97395 1184.0745 213.17708Q1184.5588 213.3802 1184.7932 213.70833Q1185.0276 214.03645 1185.1213 214.47395Q1185.1682 214.77083 1185.1682 215.5052L1185.1682 219.33333L1184.1213 219.33333L1184.1213 215.55208Q1184.1213 214.89583 1183.9963 214.58333Q1183.8713 214.27083 1183.5588 214.08333Q1183.2463 213.8802 1182.8245 213.8802Q1182.1526 213.8802 1181.6526 214.3177Q1181.1682 214.73958 1181.1682 215.92708L1181.1682 219.33333L1180.1213 219.33333ZM1192.6682 214.28645L1186.9963 214.28645L1186.9963 213.30208L1192.6682 213.30208L1192.6682 214.28645ZM1192.6682 216.89583L1186.9963 216.89583L1186.9963 215.91145L1192.6682 215.91145L1192.6682 216.89583ZM1197.7932 219.33333L1196.7463 219.33333L1196.7463 212.61458Q1196.3557 212.97395 1195.7307 213.34895Q1195.1213 213.70833 1194.637 213.8802L1194.637 212.86458Q1195.512 212.4427 1196.1682 211.86458Q1196.8401 211.27083 1197.1213 210.70833L1197.7932 210.70833L1197.7932 219.33333ZM1200.9807 217.34895L1201.9963 217.2552Q1202.1213 217.97395 1202.4807 218.30208Q1202.8557 218.61458 1203.4182 218.61458Q1203.9026 218.61458 1204.262 218.39583Q1204.637 218.16145 1204.8713 217.80208Q1205.1057 217.42708 1205.262 216.80208Q1205.4182 216.16145 1205.4182 215.5052Q1205.4182 215.42708 1205.4182 215.28645Q1205.1057 215.78645 1204.5588 216.11458Q1204.012 216.42708 1203.3713 216.42708Q1202.2932 216.42708 1201.5588 215.66145Q1200.8245 214.8802 1200.8245 213.61458Q1200.8245 212.30208 1201.5901 211.5052Q1202.3713 210.70833 1203.5276 210.70833Q1204.3557 210.70833 1205.0432 211.16145Q1205.7463 211.61458 1206.1057 212.45833Q1206.4651 213.28645 1206.4651 214.86458Q1206.4651 216.5052 1206.1057 217.48958Q1205.762 218.45833 1205.0432 218.97395Q1204.3401 219.47395 1203.4026 219.47395Q1202.387 219.47395 1201.7463 218.92708Q1201.1057 218.36458 1200.9807 217.34895ZM1205.2932 213.55208Q1205.2932 212.64583 1204.8088 212.11458Q1204.3401 211.58333 1203.6526 211.58333Q1202.9495 211.58333 1202.4182 212.16145Q1201.9026 212.72395 1201.9026 213.64583Q1201.9026 214.45833 1202.4026 214.97395Q1202.9026 215.48958 1203.6213 215.48958Q1204.3557 215.48958 1204.8245 214.97395Q1205.2932 214.45833 1205.2932 213.55208Z" fill-rule="nonzero"/><path fill="#757575" d="M38.56875 57.6L44.06875 43.2875L46.115623 43.2875L51.975 57.6L49.81875 57.6L48.146873 53.25625L42.1625 53.25625L40.584373 57.6L38.56875 57.6ZM42.709373 51.725L47.553123 51.725L46.06875 47.75625Q45.38125 45.94375 45.053123 44.7875Q44.771873 46.1625 44.271873 47.521873L42.709373 51.725ZM52.88125 57.6L52.88125 43.2875L54.63125 43.2875L54.63125 57.6L52.88125 57.6ZM56.6 58.459373L58.303123 58.709373Q58.4125 59.50625 58.896873 59.865623Q59.553123 60.35 60.69375 60.35Q61.9125 60.35 62.56875 59.865623Q63.240623 59.38125 63.475 58.50625Q63.615623 57.959373 63.6 56.240623Q62.44375 57.6 60.725 57.6Q58.584373 57.6 57.4125 56.053123Q56.240623 54.50625 56.240623 52.35Q56.240623 50.865623 56.771873 49.615623Q57.31875 48.365623 58.334373 47.678123Q59.365623 46.990623 60.740623 46.990623Q62.56875 46.990623 63.771873 48.475L63.771873 47.225L65.38125 47.225L65.38125 56.19375Q65.38125 58.615623 64.88125 59.615623Q64.39687 60.63125 63.31875 61.209373Q62.25625 61.803123 60.69375 61.803123Q58.85 61.803123 57.69375 60.975Q56.553123 60.146873 56.6 58.459373ZM58.053123 52.225Q58.053123 54.271873 58.865623 55.209373Q59.678123 56.146873 60.896873 56.146873Q62.1 56.146873 62.9125 55.209373Q63.740623 54.271873 63.740623 52.2875Q63.740623 50.38125 62.896873 49.4125Q62.053123 48.44375 60.865623 48.44375Q59.69375 48.44375 58.865623 49.396873Q58.053123 50.35 58.053123 52.225ZM67.27187 52.4125Q67.27187 49.5375 68.86562 48.146873Q70.20937 46.990623 72.13125 46.990623Q74.27187 46.990623 75.61562 48.396873Q76.975 49.803123 76.975 52.271873Q76.975 54.271873 76.38125 55.428123Q75.7875 56.56875 74.63125 57.209373Q73.49062 57.834373 72.13125 57.834373Q69.94375 57.834373 68.6 56.44375Q67.27187 55.0375 67.27187 52.4125ZM69.06875 52.4125Q69.06875 54.4125 69.92812 55.396873Q70.80312 56.38125 72.13125 56.38125Q73.44375 56.38125 74.30312 55.396873Q75.17812 54.396873 75.17812 52.35Q75.17812 50.428123 74.30312 49.44375Q73.42812 48.44375 72.13125 48.44375Q70.80312 48.44375 69.92812 49.44375Q69.06875 50.428123 69.06875 52.4125ZM78.89687 57.6L78.89687 47.225L80.475 47.225L80.475 48.803123Q81.08437 47.69375 81.6 47.35Q82.11562 46.990623 82.725 46.990623Q83.61562 46.990623 84.5375 47.553123L83.92812 49.19375Q83.2875 48.803123 82.64687 48.803123Q82.06875 48.803123 81.6 49.1625Q81.14687 49.50625 80.94375 50.115623Q80.6625 51.053123 80.6625 52.1625L80.6625 57.6L78.89687 57.6ZM85.92812 45.303123L85.92812 43.2875L87.69375 43.2875L87.69375 45.303123L85.92812 45.303123ZM85.92812 57.6L85.92812 47.225L87.69375 47.225L87.69375 57.6L85.92812 57.6ZM93.75625 56.021873L94.00625 57.584373Q93.27187 57.740623 92.67812 57.740623Q91.725 57.740623 91.19375 57.44375Q90.67812 57.13125 90.45937 56.646873Q90.24062 56.146873 90.24062 54.56875L90.24062 48.6L88.95937 48.6L88.95937 47.225L90.24062 47.225L90.24062 44.6625L91.99062 43.6L91.99062 47.225L93.75625 47.225L93.75625 48.6L91.99062 48.6L91.99062 54.6625Q91.99062 55.4125 92.08437 55.63125Q92.17812 55.834373 92.38125 55.975Q92.6 56.1 92.99062 56.1Q93.27187 56.1 93.75625 56.021873ZM95.9125 57.6L95.9125 43.2875L97.67812 43.2875L97.67812 48.4125Q98.9125 46.990623 100.7875 46.990623Q101.92812 46.990623 102.77187 47.44375Q103.63125 47.896873 103.99062 48.709373Q104.36562 49.50625 104.36562 51.021873L104.36562 57.6L102.61562 57.6L102.61562 51.021873Q102.61562 49.709373 102.0375 49.115623Q101.45937 48.50625 100.42812 48.50625Q99.64687 48.50625 98.94375 48.9125Q98.25625 49.31875 97.95937 50.021873Q97.67812 50.709373 97.67812 51.928123L97.67812 57.6L95.9125 57.6ZM105.9125 57.6L105.9125 47.225L107.49062 47.225L107.49062 48.678123Q107.975 47.928123 108.7875 47.459373Q109.6 46.990623 110.63125 46.990623Q111.7875 46.990623 112.52187 47.475Q113.25625 47.94375 113.56875 48.803123Q114.80312 46.990623 116.77187 46.990623Q118.31875 46.990623 119.14687 47.85Q119.975 48.709373 119.975 50.475L119.975 57.6L118.225 57.6L118.225 51.06875Q118.225 50.00625 118.05312 49.553123Q117.88125 49.084373 117.42812 48.803123Q116.99062 48.521873 116.38125 48.521873Q115.2875 48.521873 114.55312 49.25625Q113.83437 49.975 113.83437 51.56875L113.83437 57.6L112.08437 57.6L112.08437 50.865623Q112.08437 49.69375 111.64687 49.115623Q111.225 48.521873 110.24062 48.521873Q109.50625 48.521873 108.86562 48.9125Q108.24062 49.303123 107.95937 50.053123Q107.67812 50.803123 107.67812 52.225L107.67812 57.6L105.9125 57.6ZM127.20937 54.50625L128.95938 54.225Q129.1 55.271873 129.77188 55.834373Q130.44376 56.38125 131.64688 56.38125Q132.85 56.38125 133.42813 55.896873Q134.02188 55.396873 134.02188 54.740623Q134.02188 54.146873 133.50626 53.803123Q133.14688 53.56875 131.70938 53.209373Q129.77188 52.709373 129.02188 52.365623Q128.2875 52.00625 127.89687 51.38125Q127.50625 50.740623 127.50625 49.975Q127.50625 49.2875 127.81875 48.69375Q128.14688 48.1 128.69376 47.709373Q129.1 47.4125 129.80313 47.209373Q130.52188 46.990623 131.33438 46.990623Q132.55313 46.990623 133.475 47.35Q134.39688 47.69375 134.83438 48.303123Q135.27188 48.896873 135.44376 49.896873L133.725 50.13125Q133.6 49.334373 133.0375 48.896873Q132.475 48.44375 131.45938 48.44375Q130.24063 48.44375 129.725 48.85Q129.20938 49.240623 129.20938 49.771873Q129.20938 50.115623 129.42813 50.396873Q129.63126 50.678123 130.1 50.865623Q130.36563 50.959373 131.64688 51.303123Q133.52188 51.803123 134.25626 52.13125Q134.99063 52.44375 135.4125 53.053123Q135.83438 53.646873 135.83438 54.553123Q135.83438 55.428123 135.31876 56.209373Q134.80313 56.990623 133.83438 57.4125Q132.86563 57.834373 131.64688 57.834373Q129.63126 57.834373 128.56876 56.990623Q127.50625 56.146873 127.20937 54.50625ZM137.9125 61.56875L137.9125 47.225L139.52188 47.225L139.52188 48.56875Q140.08438 47.7875 140.7875 47.396873Q141.50626 46.990623 142.52188 46.990623Q143.85 46.990623 144.86563 47.678123Q145.88126 48.365623 146.39688 49.615623Q146.92813 50.85 146.92813 52.334373Q146.92813 53.928123 146.35 55.209373Q145.7875 56.475 144.69376 57.1625Q143.6 57.834373 142.39688 57.834373Q141.52188 57.834373 140.81876 57.459373Q140.13126 57.084373 139.67813 56.521873L139.67813 61.56875L137.9125 61.56875ZM139.50626 52.475Q139.50626 54.475 140.31876 55.428123Q141.13126 56.38125 142.2875 56.38125Q143.45938 56.38125 144.2875 55.396873Q145.13126 54.4125 145.13126 52.31875Q145.13126 50.35 144.30313 49.365623Q143.49063 48.365623 142.36563 48.365623Q141.24063 48.365623 140.36563 49.428123Q139.50626 50.475 139.50626 52.475ZM156.02188 54.25625L157.83438 54.490623Q157.4125 56.06875 156.24063 56.959373Q155.08438 57.834373 153.27188 57.834373Q151.00626 57.834373 149.6625 56.44375Q148.33438 55.0375 148.33438 52.50625Q148.33438 49.88125 149.67813 48.44375Q151.02188 46.990623 153.17813 46.990623Q155.25626 46.990623 156.56876 48.4125Q157.89688 49.81875 157.89688 52.396873Q157.89688 52.553123 157.88126 52.865623L150.14688 52.865623Q150.24063 54.56875 151.11563 55.475Q151.99063 56.38125 153.2875 56.38125Q154.25626 56.38125 154.92813 55.88125Q155.61563 55.365623 156.02188 54.25625ZM150.24063 51.4125L156.0375 51.4125Q155.92813 50.115623 155.38126 49.459373Q154.5375 48.44375 153.19376 48.44375Q151.99063 48.44375 151.1625 49.25625Q150.33438 50.053123 150.24063 51.4125ZM167.02188 54.25625L168.83438 54.490623Q168.4125 56.06875 167.24063 56.959373Q166.08438 57.834373 164.27188 57.834373Q162.00626 57.834373 160.6625 56.44375Q159.33438 55.0375 159.33438 52.50625Q159.33438 49.88125 160.67813 48.44375Q162.02188 46.990623 164.17813 46.990623Q166.25626 46.990623 167.56876 48.4125Q168.89688 49.81875 168.89688 52.396873Q168.89688 52.553123 168.88126 52.865623L161.14688 52.865623Q161.24063 54.56875 162.11563 55.475Q162.99063 56.38125 164.2875 56.38125Q165.25626 56.38125 165.92813 55.88125Q166.61563 55.365623 167.02188 54.25625ZM161.24063 51.4125L167.0375 51.4125Q166.92813 50.115623 166.38126 49.459373Q165.5375 48.44375 164.19376 48.44375Q162.99063 48.44375 162.1625 49.25625Q161.33438 50.053123 161.24063 51.4125ZM177.64688 57.6L177.64688 56.2875Q176.6625 57.834373 174.74063 57.834373Q173.50626 57.834373 172.45938 57.146873Q171.42813 56.459373 170.85 55.240623Q170.2875 54.021873 170.2875 52.428123Q170.2875 50.865623 170.80313 49.6Q171.31876 48.334373 172.35 47.6625Q173.39688 46.990623 174.6625 46.990623Q175.6 46.990623 176.33438 47.396873Q177.06876 47.7875 177.5375 48.4125L177.5375 43.2875L179.27188 43.2875L179.27188 57.6L177.64688 57.6ZM172.08438 52.428123Q172.08438 54.4125 172.92813 55.396873Q173.77188 56.38125 174.9125 56.38125Q176.06876 56.38125 176.86563 55.44375Q177.67813 54.50625 177.67813 52.56875Q177.67813 50.44375 176.85 49.44375Q176.0375 48.44375 174.83438 48.44375Q173.6625 48.44375 172.86563 49.4125Q172.08438 50.365623 172.08438 52.428123ZM188.33438 57.6L188.33438 48.6L186.7875 48.6L186.7875 47.225L188.33438 47.225L188.33438 46.13125Q188.33438 45.084373 188.52188 44.56875Q188.77188 43.88125 189.4125 43.459373Q190.05313 43.0375 191.20938 43.0375Q191.95938 43.0375 192.85 43.209373L192.58438 44.740623Q192.0375 44.646873 191.55313 44.646873Q190.75626 44.646873 190.4125 44.990623Q190.08438 45.334373 190.08438 46.271873L190.08438 47.225L192.11563 47.225L192.11563 48.6L190.08438 48.6L190.08438 57.6L188.33438 57.6ZM193.27188 52.4125Q193.27188 49.5375 194.86563 48.146873Q196.20938 46.990623 198.13126 46.990623Q200.27188 46.990623 201.61563 48.396873Q202.975 49.803123 202.975 52.271873Q202.975 54.271873 202.38126 55.428123Q201.7875 56.56875 200.63126 57.209373Q199.49063 57.834373 198.13126 57.834373Q195.94376 57.834373 194.6 56.44375Q193.27188 55.0375 193.27188 52.4125ZM195.06876 52.4125Q195.06876 54.4125 195.92813 55.396873Q196.80313 56.38125 198.13126 56.38125Q199.44376 56.38125 200.30313 55.396873Q201.17813 54.396873 201.17813 52.35Q201.17813 50.428123 200.30313 49.44375Q199.42813 48.44375 198.13126 48.44375Q196.80313 48.44375 195.92813 49.44375Q195.06876 50.428123 195.06876 52.4125ZM204.89688 57.6L204.89688 47.225L206.475 47.225L206.475 48.803123Q207.08438 47.69375 207.6 47.35Q208.11563 46.990623 208.725 46.990623Q209.61563 46.990623 210.5375 47.553123L209.92813 49.19375Q209.2875 48.803123 208.64688 48.803123Q208.06876 48.803123 207.6 49.1625Q207.14688 49.50625 206.94376 50.115623Q206.6625 51.053123 206.6625 52.1625L206.6625 57.6L204.89688 57.6ZM217.6 58.459373L219.30313 58.709373Q219.4125 59.50625 219.89688 59.865623Q220.55313 60.35 221.69376 60.35Q222.9125 60.35 223.56876 59.865623Q224.24063 59.38125 224.475 58.50625Q224.61563 57.959373 224.6 56.240623Q223.44376 57.6 221.725 57.6Q219.58438 57.6 218.4125 56.053123Q217.24063 54.50625 217.24063 52.35Q217.24063 50.865623 217.77188 49.615623Q218.31876 48.365623 219.33438 47.678123Q220.36563 46.990623 221.74063 46.990623Q223.56876 46.990623 224.77188 48.475L224.77188 47.225L226.38126 47.225L226.38126 56.19375Q226.38126 58.615623 225.88126 59.615623Q225.39688 60.63125 224.31876 61.209373Q223.25626 61.803123 221.69376 61.803123Q219.85 61.803123 218.69376 60.975Q217.55313 60.146873 217.6 58.459373ZM219.05313 52.225Q219.05313 54.271873 219.86563 55.209373Q220.67813 56.146873 221.89688 56.146873Q223.1 56.146873 223.9125 55.209373Q224.74063 54.271873 224.74063 52.2875Q224.74063 50.38125 223.89688 49.4125Q223.05313 48.44375 221.86563 48.44375Q220.69376 48.44375 219.86563 49.396873Q219.05313 50.35 219.05313 52.225ZM236.02188 54.25625L237.83438 54.490623Q237.4125 56.06875 236.24063 56.959373Q235.08438 57.834373 233.27188 57.834373Q231.00626 57.834373 229.6625 56.44375Q228.33438 55.0375 228.33438 52.50625Q228.33438 49.88125 229.67813 48.44375Q231.02188 46.990623 233.17813 46.990623Q235.25626 46.990623 236.56876 48.4125Q237.89688 49.81875 237.89688 52.396873Q237.89688 52.553123 237.88126 52.865623L230.14688 52.865623Q230.24063 54.56875 231.11563 55.475Q231.99063 56.38125 233.2875 56.38125Q234.25626 56.38125 234.92813 55.88125Q235.61563 55.365623 236.02188 54.25625ZM230.24063 51.4125L236.0375 51.4125Q235.92813 50.115623 235.38126 49.459373Q234.5375 48.44375 233.19376 48.44375Q231.99063 48.44375 231.1625 49.25625Q230.33438 50.053123 230.24063 51.4125ZM239.9125 57.6L239.9125 47.225L241.50626 47.225L241.50626 48.709373Q242.64688 46.990623 244.80313 46.990623Q245.74063 46.990623 246.52188 47.334373Q247.31876 47.6625 247.70938 48.209373Q248.1 48.75625 248.25626 49.50625Q248.35 50.00625 248.35 51.225L248.35 57.6L246.58438 57.6L246.58438 51.2875Q246.58438 50.209373 246.38126 49.678123Q246.17813 49.146873 245.64688 48.834373Q245.13126 48.521873 244.42813 48.521873Q243.30313 48.521873 242.49063 49.240623Q241.67813 49.94375 241.67813 51.928123L241.67813 57.6L239.9125 57.6ZM257.02188 54.25625L258.83438 54.490623Q258.4125 56.06875 257.24063 56.959373Q256.08438 57.834373 254.27188 57.834373Q252.00626 57.834373 250.6625 56.44375Q249.33438 55.0375 249.33438 52.50625Q249.33438 49.88125 250.67813 48.44375Q252.02188 46.990623 254.17813 46.990623Q256.25626 46.990623 257.56876 48.4125Q258.89688 49.81875 258.89688 52.396873Q258.89688 52.553123 258.88126 52.865623L251.14688 52.865623Q251.24063 54.56875 252.11563 55.475Q252.99063 56.38125 254.2875 56.38125Q255.25626 56.38125 255.92813 55.88125Q256.61563 55.365623 257.02188 54.25625ZM251.24063 51.4125L257.0375 51.4125Q256.92813 50.115623 256.38126 49.459373Q255.5375 48.44375 254.19376 48.44375Q252.99063 48.44375 252.1625 49.25625Q251.33438 50.053123 251.24063 51.4125ZM260.89688 57.6L260.89688 47.225L262.475 47.225L262.475 48.803123Q263.08438 47.69375 263.6 47.35Q264.11563 46.990623 264.725 46.990623Q265.61563 46.990623 266.5375 47.553123L265.92813 49.19375Q265.2875 48.803123 264.64688 48.803123Q264.06876 48.803123 263.6 49.1625Q263.14688 49.50625 262.94376 50.115623Q262.6625 51.053123 262.6625 52.1625L262.6625 57.6L260.89688 57.6ZM274.69376 56.31875Q273.70938 57.146873 272.80313 57.490623Q271.89688 57.834373 270.86563 57.834373Q269.1625 57.834373 268.24063 57.00625Q267.31876 56.1625 267.31876 54.865623Q267.31876 54.1 267.6625 53.475Q268.02188 52.85 268.58438 52.475Q269.14688 52.084373 269.85 51.88125Q270.36563 51.75625 271.4125 51.615623Q273.5375 51.365623 274.5375 51.021873Q274.55313 50.6625 274.55313 50.553123Q274.55313 49.490623 274.05313 49.0375Q273.38126 48.44375 272.05313 48.44375Q270.80313 48.44375 270.20938 48.88125Q269.63126 49.31875 269.35 50.428123L267.63126 50.19375Q267.86563 49.084373 268.39688 48.4125Q268.92813 47.725 269.94376 47.365623Q270.95938 46.990623 272.30313 46.990623Q273.63126 46.990623 274.45938 47.303123Q275.2875 47.615623 275.67813 48.1Q276.06876 48.56875 276.225 49.2875Q276.31876 49.740623 276.31876 50.9125L276.31876 53.25625Q276.31876 55.709373 276.42813 56.365623Q276.5375 57.00625 276.88126 57.6L275.0375 57.6Q274.77188 57.053123 274.69376 56.31875ZM274.5375 52.396873Q273.58438 52.7875 271.6625 53.053123Q270.58438 53.209373 270.13126 53.4125Q269.69376 53.6 269.44376 53.975Q269.19376 54.35 269.19376 54.81875Q269.19376 55.521873 269.725 55.990623Q270.25626 56.459373 271.2875 56.459373Q272.30313 56.459373 273.08438 56.021873Q273.88126 55.56875 274.25626 54.803123Q274.5375 54.19375 274.5375 53.0375L274.5375 52.396873ZM282.75626 56.021873L283.00626 57.584373Q282.27188 57.740623 281.67813 57.740623Q280.725 57.740623 280.19376 57.44375Q279.67813 57.13125 279.45938 56.646873Q279.24063 56.146873 279.24063 54.56875L279.24063 48.6L277.95938 48.6L277.95938 47.225L279.24063 47.225L279.24063 44.6625L280.99063 43.6L280.99063 47.225L282.75626 47.225L282.75626 48.6L280.99063 48.6L280.99063 54.6625Q280.99063 55.4125 281.08438 55.63125Q281.17813 55.834373 281.38126 55.975Q281.6 56.1 281.99063 56.1Q282.27188 56.1 282.75626 56.021873ZM284.92813 45.303123L284.92813 43.2875L286.69376 43.2875L286.69376 45.303123L284.92813 45.303123ZM284.92813 57.6L284.92813 47.225L286.69376 47.225L286.69376 57.6L284.92813 57.6ZM288.9125 57.6L288.9125 47.225L290.50626 47.225L290.50626 48.709373Q291.64688 46.990623 293.80313 46.990623Q294.74063 46.990623 295.52188 47.334373Q296.31876 47.6625 296.70938 48.209373Q297.1 48.75625 297.25626 49.50625Q297.35 50.00625 297.35 51.225L297.35 57.6L295.58438 57.6L295.58438 51.2875Q295.58438 50.209373 295.38126 49.678123Q295.17813 49.146873 294.64688 48.834373Q294.13126 48.521873 293.42813 48.521873Q292.30313 48.521873 291.49063 49.240623Q290.67813 49.94375 290.67813 51.928123L290.67813 57.6L288.9125 57.6ZM298.6 58.459373L300.30313 58.709373Q300.4125 59.50625 300.89688 59.865623Q301.55313 60.35 302.69376 60.35Q303.9125 60.35 304.56876 59.865623Q305.24063 59.38125 305.475 58.50625Q305.61563 57.959373 305.6 56.240623Q304.44376 57.6 302.725 57.6Q300.58438 57.6 299.4125 56.053123Q298.24063 54.50625 298.24063 52.35Q298.24063 50.865623 298.77188 49.615623Q299.31876 48.365623 300.33438 47.678123Q301.36563 46.990623 302.74063 46.990623Q304.56876 46.990623 305.77188 48.475L305.77188 47.225L307.38126 47.225L307.38126 56.19375Q307.38126 58.615623 306.88126 59.615623Q306.39688 60.63125 305.31876 61.209373Q304.25626 61.803123 302.69376 61.803123Q300.85 61.803123 299.69376 60.975Q298.55313 60.146873 298.6 58.459373ZM300.05313 52.225Q300.05313 54.271873 300.86563 55.209373Q301.67813 56.146873 302.89688 56.146873Q304.1 56.146873 304.9125 55.209373Q305.74063 54.271873 305.74063 52.2875Q305.74063 50.38125 304.89688 49.4125Q304.05313 48.44375 302.86563 48.44375Q301.69376 48.44375 300.86563 49.396873Q300.05313 50.35 300.05313 52.225ZM315.27188 52.4125Q315.27188 49.5375 316.86563 48.146873Q318.20938 46.990623 320.13126 46.990623Q322.27188 46.990623 323.61563 48.396873Q324.975 49.803123 324.975 52.271873Q324.975 54.271873 324.38126 55.428123Q323.7875 56.56875 322.63126 57.209373Q321.49063 57.834373 320.13126 57.834373Q317.94376 57.834373 316.6 56.44375Q315.27188 55.0375 315.27188 52.4125ZM317.06876 52.4125Q317.06876 54.4125 317.92813 55.396873Q318.80313 56.38125 320.13126 56.38125Q321.44376 56.38125 322.30313 55.396873Q323.17813 54.396873 323.17813 52.35Q323.17813 50.428123 322.30313 49.44375Q321.42813 48.44375 320.13126 48.44375Q318.80313 48.44375 317.92813 49.44375Q317.06876 50.428123 317.06876 52.4125ZM326.9125 57.6L326.9125 47.225L328.50626 47.225L328.50626 48.709373Q329.64688 46.990623 331.80313 46.990623Q332.74063 46.990623 333.52188 47.334373Q334.31876 47.6625 334.70938 48.209373Q335.1 48.75625 335.25626 49.50625Q335.35 50.00625 335.35 51.225L335.35 57.6L333.58438 57.6L333.58438 51.2875Q333.58438 50.209373 333.38126 49.678123Q333.17813 49.146873 332.64688 48.834373Q332.13126 48.521873 331.42813 48.521873Q330.30313 48.521873 329.49063 49.240623Q328.67813 49.94375 328.67813 51.928123L328.67813 57.6L326.9125 57.6ZM344.02188 54.25625L345.83438 54.490623Q345.4125 56.06875 344.24063 56.959373Q343.08438 57.834373 341.27188 57.834373Q339.00626 57.834373 337.6625 56.44375Q336.33438 55.0375 336.33438 52.50625Q336.33438 49.88125 337.67813 48.44375Q339.02188 46.990623 341.17813 46.990623Q343.25626 46.990623 344.56876 48.4125Q345.89688 49.81875 345.89688 52.396873Q345.89688 52.553123 345.88126 52.865623L338.14688 52.865623Q338.24063 54.56875 339.11563 55.475Q339.99063 56.38125 341.2875 56.38125Q342.25626 56.38125 342.92813 55.88125Q343.61563 55.365623 344.02188 54.25625ZM338.24063 51.4125L344.0375 51.4125Q343.92813 50.115623 343.38126 49.459373Q342.5375 48.44375 341.19376 48.44375Q339.99063 48.44375 339.1625 49.25625Q338.33438 50.053123 338.24063 51.4125ZM353.9125 57.6L353.9125 47.225L355.50626 47.225L355.50626 48.709373Q356.64688 46.990623 358.80313 46.990623Q359.74063 46.990623 360.52188 47.334373Q361.31876 47.6625 361.70938 48.209373Q362.1 48.75625 362.25626 49.50625Q362.35 50.00625 362.35 51.225L362.35 57.6L360.58438 57.6L360.58438 51.2875Q360.58438 50.209373 360.38126 49.678123Q360.17813 49.146873 359.64688 48.834373Q359.13126 48.521873 358.42813 48.521873Q357.30313 48.521873 356.49063 49.240623Q355.67813 49.94375 355.67813 51.928123L355.67813 57.6L353.9125 57.6ZM364.38126 57.6L364.38126 55.6L366.38126 55.6L366.38126 57.6Q366.38126 58.709373 365.99063 59.38125Q365.6 60.06875 364.75626 60.428123L364.25626 59.678123Q364.81876 59.44375 365.08438 58.959373Q365.35 58.490623 365.38126 57.6L364.38126 57.6ZM369.92813 57.6L369.92813 43.2875L371.69376 43.2875L371.69376 51.44375L375.85 47.225L378.11563 47.225L374.1625 51.06875L378.52188 57.6L376.35 57.6L372.92813 52.303123L371.69376 53.490623L371.69376 57.6L369.92813 57.6ZM379.24063 53.303123L379.24063 51.5375L384.63126 51.5375L384.63126 53.303123L379.24063 53.303123ZM393.69376 53.803123L395.4125 54.021873Q395.13126 55.81875 393.95938 56.834373Q392.80313 57.834373 391.1 57.834373Q388.975 57.834373 387.67813 56.44375Q386.38126 55.053123 386.38126 52.459373Q386.38126 50.771873 386.92813 49.521873Q387.49063 48.25625 388.63126 47.63125Q389.77188 46.990623 391.11563 46.990623Q392.80313 46.990623 393.86563 47.85Q394.94376 48.709373 395.25626 50.271873L393.5375 50.5375Q393.30313 49.490623 392.67813 48.975Q392.05313 48.44375 391.17813 48.44375Q389.85 48.44375 389.02188 49.396873Q388.19376 50.35 388.19376 52.396873Q388.19376 54.490623 388.99063 55.44375Q389.7875 56.38125 391.08438 56.38125Q392.11563 56.38125 392.80313 55.75625Q393.50626 55.115623 393.69376 53.803123ZM396.27188 52.4125Q396.27188 49.5375 397.86563 48.146873Q399.20938 46.990623 401.13126 46.990623Q403.27188 46.990623 404.61563 48.396873Q405.975 49.803123 405.975 52.271873Q405.975 54.271873 405.38126 55.428123Q404.7875 56.56875 403.63126 57.209373Q402.49063 57.834373 401.13126 57.834373Q398.94376 57.834373 397.6 56.44375Q396.27188 55.0375 396.27188 52.4125ZM398.06876 52.4125Q398.06876 54.4125 398.92813 55.396873Q399.80313 56.38125 401.13126 56.38125Q402.44376 56.38125 403.30313 55.396873Q404.17813 54.396873 404.17813 52.35Q404.17813 50.428123 403.30313 49.44375Q402.42813 48.44375 401.13126 48.44375Q399.80313 48.44375 398.92813 49.44375Q398.06876 50.428123 398.06876 52.4125ZM407.9125 57.6L407.9125 47.225L409.49063 47.225L409.49063 48.678123Q409.975 47.928123 410.7875 47.459373Q411.6 46.990623 412.63126 46.990623Q413.7875 46.990623 414.52188 47.475Q415.25626 47.94375 415.56876 48.803123Q416.80313 46.990623 418.77188 46.990623Q420.31876 46.990623 421.14688 47.85Q421.975 48.709373 421.975 50.475L421.975 57.6L420.225 57.6L420.225 51.06875Q420.225 50.00625 420.05313 49.553123Q419.88126 49.084373 419.42813 48.803123Q418.99063 48.521873 418.38126 48.521873Q417.2875 48.521873 416.55313 49.25625Q415.83438 49.975 415.83438 51.56875L415.83438 57.6L414.08438 57.6L414.08438 50.865623Q414.08438 49.69375 413.64688 49.115623Q413.225 48.521873 412.24063 48.521873Q411.50626 48.521873 410.86563 48.9125Q410.24063 49.303123 409.95938 50.053123Q409.67813 50.803123 409.67813 52.225L409.67813 57.6L407.9125 57.6ZM425.5375 57.6L423.9125 57.6L423.9125 43.2875L425.6625 43.2875L425.6625 48.396873Q426.7875 46.990623 428.50626 46.990623Q429.45938 46.990623 430.31876 47.38125Q431.17813 47.771873 431.725 48.475Q432.27188 49.1625 432.58438 50.146873Q432.89688 51.13125 432.89688 52.25625Q432.89688 54.928123 431.58438 56.38125Q430.27188 57.834373 428.42813 57.834373Q426.58438 57.834373 425.5375 56.303123L425.5375 57.6ZM425.52188 52.334373Q425.52188 54.19375 426.02188 55.0375Q426.86563 56.38125 428.27188 56.38125Q429.42813 56.38125 430.25626 55.38125Q431.1 54.38125 431.1 52.396873Q431.1 50.365623 430.2875 49.4125Q429.49063 48.44375 428.35 48.44375Q427.19376 48.44375 426.35 49.44375Q425.52188 50.44375 425.52188 52.334373ZM434.92813 45.303123L434.92813 43.2875L436.69376 43.2875L436.69376 45.303123L434.92813 45.303123ZM434.92813 57.6L434.92813 47.225L436.69376 47.225L436.69376 57.6L434.92813 57.6ZM438.9125 57.6L438.9125 47.225L440.50626 47.225L440.50626 48.709373Q441.64688 46.990623 443.80313 46.990623Q444.74063 46.990623 445.52188 47.334373Q446.31876 47.6625 446.70938 48.209373Q447.1 48.75625 447.25626 49.50625Q447.35 50.00625 447.35 51.225L447.35 57.6L445.58438 57.6L445.58438 51.2875Q445.58438 50.209373 445.38126 49.678123Q445.17813 49.146873 444.64688 48.834373Q444.13126 48.521873 443.42813 48.521873Q442.30313 48.521873 441.49063 49.240623Q440.67813 49.94375 440.67813 51.928123L440.67813 57.6L438.9125 57.6ZM455.69376 56.31875Q454.70938 57.146873 453.80313 57.490623Q452.89688 57.834373 451.86563 57.834373Q450.1625 57.834373 449.24063 57.00625Q448.31876 56.1625 448.31876 54.865623Q448.31876 54.1 448.6625 53.475Q449.02188 52.85 449.58438 52.475Q450.14688 52.084373 450.85 51.88125Q451.36563 51.75625 452.4125 51.615623Q454.5375 51.365623 455.5375 51.021873Q455.55313 50.6625 455.55313 50.553123Q455.55313 49.490623 455.05313 49.0375Q454.38126 48.44375 453.05313 48.44375Q451.80313 48.44375 451.20938 48.88125Q450.63126 49.31875 450.35 50.428123L448.63126 50.19375Q448.86563 49.084373 449.39688 48.4125Q449.92813 47.725 450.94376 47.365623Q451.95938 46.990623 453.30313 46.990623Q454.63126 46.990623 455.45938 47.303123Q456.2875 47.615623 456.67813 48.1Q457.06876 48.56875 457.225 49.2875Q457.31876 49.740623 457.31876 50.9125L457.31876 53.25625Q457.31876 55.709373 457.42813 56.365623Q457.5375 57.00625 457.88126 57.6L456.0375 57.6Q455.77188 57.053123 455.69376 56.31875ZM455.5375 52.396873Q454.58438 52.7875 452.6625 53.053123Q451.58438 53.209373 451.13126 53.4125Q450.69376 53.6 450.44376 53.975Q450.19376 54.35 450.19376 54.81875Q450.19376 55.521873 450.725 55.990623Q451.25626 56.459373 452.2875 56.459373Q453.30313 56.459373 454.08438 56.021873Q454.88126 55.56875 455.25626 54.803123Q455.5375 54.19375 455.5375 53.0375L455.5375 52.396873ZM463.75626 56.021873L464.00626 57.584373Q463.27188 57.740623 462.67813 57.740623Q461.725 57.740623 461.19376 57.44375Q460.67813 57.13125 460.45938 56.646873Q460.24063 56.146873 460.24063 54.56875L460.24063 48.6L458.95938 48.6L458.95938 47.225L460.24063 47.225L460.24063 44.6625L461.99063 43.6L461.99063 47.225L463.75626 47.225L463.75626 48.6L461.99063 48.6L461.99063 54.6625Q461.99063 55.4125 462.08438 55.63125Q462.17813 55.834373 462.38126 55.975Q462.6 56.1 462.99063 56.1Q463.27188 56.1 463.75626 56.021873ZM465.92813 45.303123L465.92813 43.2875L467.69376 43.2875L467.69376 45.303123L465.92813 45.303123ZM465.92813 57.6L465.92813 47.225L467.69376 47.225L467.69376 57.6L465.92813 57.6ZM469.27188 52.4125Q469.27188 49.5375 470.86563 48.146873Q472.20938 46.990623 474.13126 46.990623Q476.27188 46.990623 477.61563 48.396873Q478.975 49.803123 478.975 52.271873Q478.975 54.271873 478.38126 55.428123Q477.7875 56.56875 476.63126 57.209373Q475.49063 57.834373 474.13126 57.834373Q471.94376 57.834373 470.6 56.44375Q469.27188 55.0375 469.27188 52.4125ZM471.06876 52.4125Q471.06876 54.4125 471.92813 55.396873Q472.80313 56.38125 474.13126 56.38125Q475.44376 56.38125 476.30313 55.396873Q477.17813 54.396873 477.17813 52.35Q477.17813 50.428123 476.30313 49.44375Q475.42813 48.44375 474.13126 48.44375Q472.80313 48.44375 471.92813 49.44375Q471.06876 50.428123 471.06876 52.4125ZM480.9125 57.6L480.9125 47.225L482.50626 47.225L482.50626 48.709373Q483.64688 46.990623 485.80313 46.990623Q486.74063 46.990623 487.52188 47.334373Q488.31876 47.6625 488.70938 48.209373Q489.1 48.75625 489.25626 49.50625Q489.35 50.00625 489.35 51.225L489.35 57.6L487.58438 57.6L487.58438 51.2875Q487.58438 50.209373 487.38126 49.678123Q487.17813 49.146873 486.64688 48.834373Q486.13126 48.521873 485.42813 48.521873Q484.30313 48.521873 483.49063 49.240623Q482.67813 49.94375 482.67813 51.928123L482.67813 57.6L480.9125 57.6Z" fill-rule="nonzero"/></svg>