<svg version="1.1" viewBox="0.0 0.0 1104.0 682.0" fill="none" stroke="none" stroke-linecap="square" stroke-miterlimit="10" width="1104" height="682" xmlns:xlink="http://www.w3.org/1999/xlink" xmlns="http://www.w3.org/2000/svg"><path fill="#ffffff" d="M0 0L1104.0 0L1104.0 682.0L0 682.0L0 0Z" fill-rule="nonzero"/><path stroke="#333333" stroke-width="1.0" stroke-linecap="butt" d="M93.5 124.5L93.5 595.5" fill-rule="nonzero"/><path stroke="#cccccc" stroke-width="1.0" stroke-linecap="butt" d="M350.5 124.5L350.5 595.5" fill-rule="nonzero"/><path stroke="#cccccc" stroke-width="1.0" stroke-linecap="butt" d="M607.5 124.5L607.5 595.5" fill-rule="nonzero"/><path stroke="#cccccc" stroke-width="1.0" stroke-linecap="butt" d="M864.5 124.5L864.5 595.5" fill-rule="nonzero"/><path stroke="#333333" stroke-width="1.0" stroke-linecap="butt" d="M93.5 595.5L1069.5 595.5" fill-rule="nonzero"/><path stroke="#cccccc" stroke-width="1.0" stroke-linecap="butt" d="M93.5 478.5L1069.5 478.5" fill-rule="nonzero"/><path stroke="#cccccc" stroke-width="1.0" stroke-linecap="butt" d="M93.5 360.5L1069.5 360.5" fill-rule="nonzero"/><path stroke="#cccccc" stroke-width="1.0" stroke-linecap="butt" d="M93.5 242.5L1069.5 242.5" fill-rule="nonzero"/><path stroke="#cccccc" stroke-width="1.0" stroke-linecap="butt" d="M93.5 124.5L1069.5 124.5" fill-rule="nonzero"/><clipPath id="id_0"><path d="M93.1 124.566666L1069.9 124.566666L1069.9 595.9L93.1 595.9L93.1 124.566666Z" clip-rule="nonzero"/></clipPath><path stroke="#4285f4" stroke-width="2.0" stroke-linecap="butt" clip-path="url(#id_0)" d="M93.1 462.39484L144.51053 451.55417L195.92105 517.7765L247.33157 561.02136L298.7421 576.33966L350.15262 581.2887L401.56317 582.70264L452.9737 582.8205L504.38422 582.8205L555.79474 582.8205L607.20526 582.58484L658.6158 582.8205L710.0263 582.8205L761.4368 582.93835L812.84735 582.8205L864.2579 582.93835L915.6684 582.8205L967.0789 582.8205L1018.4895 582.93835L1069.9 582.2313" fill-rule="nonzero"/><path stroke="#ea4335" stroke-width="2.0" stroke-linecap="butt" clip-path="url(#id_0)" d="M93.1 443.5415L144.51053 420.44617L195.92105 448.01917L247.33157 475.94568L298.7421 473.70685L350.15262 442.24533L401.56317 436.00015L452.9737 384.74268L504.38422 380.85416L555.79474 362.11865L607.20526 346.6825L658.6158 331.95334L710.0263 335.25266L761.4368 308.74017L812.84735 312.15732L864.2579 297.1925L915.6684 249.8235L967.0789 261.25333L1018.4895 229.43834L1069.9 274.68634" fill-rule="nonzero"/><path stroke="#fbbc04" stroke-width="2.0" stroke-linecap="butt" clip-path="url(#id_0)" d="M93.1 466.1655L144.51053 460.03818L195.92105 505.7575L247.33157 510.94217L298.7421 515.7733L350.15262 510.353L401.56317 510.23517L452.9737 501.869L504.38422 495.97733L555.79474 486.07935L607.20526 486.19717L658.6158 471.23233L710.0263 460.5095L761.4368 447.7835L812.84735 415.2615L864.2579 399.0005L915.6684 396.29034L967.0789 376.14084L1018.4895 350.80667L1069.9 342.32266" fill-rule="nonzero"/><path stroke="#34a853" stroke-width="2.0" stroke-linecap="butt" clip-path="url(#id_0)" d="M93.1 431.169L144.51053 370.367L195.92105 470.64316L247.33157 538.51514L298.7421 559.60736L350.15262 563.61365L401.56317 562.55316L452.9737 534.7445L504.38422 525.5535L555.79474 524.72864L607.20526 517.423L658.6158 522.7255L710.0263 523.9038L761.4368 526.02484L812.84735 523.786L864.2579 523.4325L915.6684 524.61084L967.0789 522.25415L1018.4895 517.1873L1069.9 515.06635" fill-rule="nonzero"/><path fill="#000000" fill-opacity="0.0" clip-path="url(#id_0)" d="M96.1 462.39484C96.1 464.0517 94.75685 465.39484 93.1 465.39484C91.443146 465.39484 90.1 464.0517 90.1 462.39484C90.1 460.73798 91.443146 459.39484 93.1 459.39484C94.75685 459.39484 96.1 460.73798 96.1 462.39484Z" fill-rule="nonzero"/><path fill="#000000" fill-opacity="0.0" clip-path="url(#id_0)" d="M147.51053 451.55417C147.51053 453.21103 146.16737 454.55417 144.51053 454.55417C142.85367 454.55417 141.51053 453.21103 141.51053 451.55417C141.51053 449.8973 142.85367 448.55417 144.51053 448.55417C146.16737 448.55417 147.51053 449.8973 147.51053 451.55417Z" fill-rule="nonzero"/><path fill="#000000" fill-opacity="0.0" clip-path="url(#id_0)" d="M198.92105 517.7765C198.92105 519.43335 197.57791 520.7765 195.92105 520.7765C194.2642 520.7765 192.92105 519.43335 192.92105 517.7765C192.92105 516.1196 194.2642 514.7765 195.92105 514.7765C197.57791 514.7765 198.92105 516.1196 198.92105 517.7765Z" fill-rule="nonzero"/><path fill="#000000" fill-opacity="0.0" clip-path="url(#id_0)" d="M250.33157 561.02136C250.33157 562.67816 248.98843 564.02136 247.33157 564.02136C245.67473 564.02136 244.33157 562.67816 244.33157 561.02136C244.33157 559.3645 245.67473 558.02136 247.33157 558.02136C248.98843 558.02136 250.33157 559.3645 250.33157 561.02136Z" fill-rule="nonzero"/><path fill="#000000" fill-opacity="0.0" clip-path="url(#id_0)" d="M301.7421 576.33966C301.7421 577.9965 300.39896 579.33966 298.7421 579.33966C297.08527 579.33966 295.7421 577.9965 295.7421 576.33966C295.7421 574.6828 297.08527 573.33966 298.7421 573.33966C300.39896 573.33966 301.7421 574.6828 301.7421 576.33966Z" fill-rule="nonzero"/><path fill="#000000" fill-opacity="0.0" clip-path="url(#id_0)" d="M353.15262 581.2887C353.15262 582.9455 351.80948 584.2887 350.15262 584.2887C348.4958 584.2887 347.15262 582.9455 347.15262 581.2887C347.15262 579.63184 348.4958 578.2887 350.15262 578.2887C351.80948 578.2887 353.15262 579.63184 353.15262 581.2887Z" fill-rule="nonzero"/><path fill="#000000" fill-opacity="0.0" clip-path="url(#id_0)" d="M404.56317 582.70264C404.56317 584.3595 403.22 585.70264 401.56317 585.70264C399.9063 585.70264 398.56317 584.3595 398.56317 582.70264C398.56317 581.04584 399.9063 579.70264 401.56317 579.70264C403.22 579.70264 404.56317 581.04584 404.56317 582.70264Z" fill-rule="nonzero"/><path fill="#000000" fill-opacity="0.0" clip-path="url(#id_0)" d="M455.9737 582.8205C455.9737 584.47736 454.63052 585.8205 452.9737 585.8205C451.31683 585.8205 449.9737 584.47736 449.9737 582.8205C449.9737 581.16364 451.31683 579.8205 452.9737 579.8205C454.63052 579.8205 455.9737 581.16364 455.9737 582.8205Z" fill-rule="nonzero"/><path fill="#000000" fill-opacity="0.0" clip-path="url(#id_0)" d="M507.38422 582.8205C507.38422 584.47736 506.04108 585.8205 504.38422 585.8205C502.72736 585.8205 501.38422 584.47736 501.38422 582.8205C501.38422 581.16364 502.72736 579.8205 504.38422 579.8205C506.04108 579.8205 507.38422 581.16364 507.38422 582.8205Z" fill-rule="nonzero"/><path fill="#000000" fill-opacity="0.0" clip-path="url(#id_0)" d="M558.79474 582.8205C558.79474 584.47736 557.4516 585.8205 555.79474 585.8205C554.1379 585.8205 552.79474 584.47736 552.79474 582.8205C552.79474 581.16364 554.1379 579.8205 555.79474 579.8205C557.4516 579.8205 558.79474 581.16364 558.79474 582.8205Z" fill-rule="nonzero"/><path fill="#000000" fill-opacity="0.0" clip-path="url(#id_0)" d="M610.20526 582.58484C610.20526 584.2417 608.8621 585.58484 607.20526 585.58484C605.5484 585.58484 604.20526 584.2417 604.20526 582.58484C604.20526 580.928 605.5484 579.58484 607.20526 579.58484C608.8621 579.58484 610.20526 580.928 610.20526 582.58484Z" fill-rule="nonzero"/><path fill="#000000" fill-opacity="0.0" clip-path="url(#id_0)" d="M661.6158 582.8205C661.6158 584.47736 660.27264 585.8205 658.6158 585.8205C656.9589 585.8205 655.6158 584.47736 655.6158 582.8205C655.6158 581.16364 656.9589 579.8205 658.6158 579.8205C660.27264 579.8205 661.6158 581.16364 661.6158 582.8205Z" fill-rule="nonzero"/><path fill="#000000" fill-opacity="0.0" clip-path="url(#id_0)" d="M713.0263 582.8205C713.0263 584.47736 711.68317 585.8205 710.0263 585.8205C708.36945 585.8205 707.0263 584.47736 707.0263 582.8205C707.0263 581.16364 708.36945 579.8205 710.0263 579.8205C711.68317 579.8205 713.0263 581.16364 713.0263 582.8205Z" fill-rule="nonzero"/><path fill="#000000" fill-opacity="0.0" clip-path="url(#id_0)" d="M764.4368 582.93835C764.4368 584.5952 763.0937 585.93835 761.4368 585.93835C759.77997 585.93835 758.4368 584.5952 758.4368 582.93835C758.4368 581.2815 759.77997 579.93835 761.4368 579.93835C763.0937 579.93835 764.4368 581.2815 764.4368 582.93835Z" fill-rule="nonzero"/><path fill="#000000" fill-opacity="0.0" clip-path="url(#id_0)" d="M815.84735 582.8205C815.84735 584.47736 814.5042 585.8205 812.84735 585.8205C811.1905 585.8205 809.84735 584.47736 809.84735 582.8205C809.84735 581.16364 811.1905 579.8205 812.84735 579.8205C814.5042 579.8205 815.84735 581.16364 815.84735 582.8205Z" fill-rule="nonzero"/><path fill="#000000" fill-opacity="0.0" clip-path="url(#id_0)" d="M867.2579 582.93835C867.2579 584.5952 865.91473 585.93835 864.2579 585.93835C862.601 585.93835 861.2579 584.5952 861.2579 582.93835C861.2579 581.2815 862.601 579.93835 864.2579 579.93835C865.91473 579.93835 867.2579 581.2815 867.2579 582.93835Z" fill-rule="nonzero"/><path fill="#000000" fill-opacity="0.0" clip-path="url(#id_0)" d="M918.6684 582.8205C918.6684 584.47736 917.32526 585.8205 915.6684 585.8205C914.0116 585.8205 912.6684 584.47736 912.6684 582.8205C912.6684 581.16364 914.0116 579.8205 915.6684 579.8205C917.32526 579.8205 918.6684 581.16364 918.6684 582.8205Z" fill-rule="nonzero"/><path fill="#000000" fill-opacity="0.0" clip-path="url(#id_0)" d="M970.0789 582.8205C970.0789 584.47736 968.7358 585.8205 967.0789 585.8205C965.4221 585.8205 964.0789 584.47736 964.0789 582.8205C964.0789 581.16364 965.4221 579.8205 967.0789 579.8205C968.7358 579.8205 970.0789 581.16364 970.0789 582.8205Z" fill-rule="nonzero"/><path fill="#000000" fill-opacity="0.0" clip-path="url(#id_0)" d="M1021.4895 582.93835C1021.4895 584.5952 1020.1463 585.93835 1018.4895 585.93835C1016.83264 585.93835 1015.4895 584.5952 1015.4895 582.93835C1015.4895 581.2815 1016.83264 579.93835 1018.4895 579.93835C1020.1463 579.93835 1021.4895 581.2815 1021.4895 582.93835Z" fill-rule="nonzero"/><path fill="#000000" fill-opacity="0.0" clip-path="url(#id_0)" d="M1072.9 582.2313C1072.9 583.8882 1071.5569 585.2313 1069.9 585.2313C1068.2432 585.2313 1066.9 583.8882 1066.9 582.2313C1066.9 580.57446 1068.2432 579.2313 1069.9 579.2313C1071.5569 579.2313 1072.9 580.57446 1072.9 582.2313Z" fill-rule="nonzero"/><path fill="#000000" fill-opacity="0.0" clip-path="url(#id_0)" d="M96.1 443.5415C96.1 445.19836 94.75685 446.5415 93.1 446.5415C91.443146 446.5415 90.1 445.19836 90.1 443.5415C90.1 441.88464 91.443146 440.5415 93.1 440.5415C94.75685 440.5415 96.1 441.88464 96.1 443.5415Z" fill-rule="nonzero"/><path fill="#000000" fill-opacity="0.0" clip-path="url(#id_0)" d="M147.51053 420.44617C147.51053 422.10303 146.16737 423.44617 144.51053 423.44617C142.85367 423.44617 141.51053 422.10303 141.51053 420.44617C141.51053 418.7893 142.85367 417.44617 144.51053 417.44617C146.16737 417.44617 147.51053 418.7893 147.51053 420.44617Z" fill-rule="nonzero"/><path fill="#000000" fill-opacity="0.0" clip-path="url(#id_0)" d="M198.92105 448.01917C198.92105 449.67603 197.57791 451.01917 195.92105 451.01917C194.2642 451.01917 192.92105 449.67603 192.92105 448.01917C192.92105 446.3623 194.2642 445.01917 195.92105 445.01917C197.57791 445.01917 198.92105 446.3623 198.92105 448.01917Z" fill-rule="nonzero"/><path fill="#000000" fill-opacity="0.0" clip-path="url(#id_0)" d="M250.33157 475.94568C250.33157 477.6025 248.98843 478.94568 247.33157 478.94568C245.67473 478.94568 244.33157 477.6025 244.33157 475.94568C244.33157 474.28882 245.67473 472.94568 247.33157 472.94568C248.98843 472.94568 250.33157 474.28882 250.33157 475.94568Z" fill-rule="nonzero"/><path fill="#000000" fill-opacity="0.0" clip-path="url(#id_0)" d="M301.7421 473.70685C301.7421 475.36368 300.39896 476.70685 298.7421 476.70685C297.08527 476.70685 295.7421 475.36368 295.7421 473.70685C295.7421 472.05 297.08527 470.70685 298.7421 470.70685C300.39896 470.70685 301.7421 472.05 301.7421 473.70685Z" fill-rule="nonzero"/><path fill="#000000" fill-opacity="0.0" clip-path="url(#id_0)" d="M353.15262 442.24533C353.15262 443.9022 351.80948 445.24533 350.15262 445.24533C348.4958 445.24533 347.15262 443.9022 347.15262 442.24533C347.15262 440.58847 348.4958 439.24533 350.15262 439.24533C351.80948 439.24533 353.15262 440.58847 353.15262 442.24533Z" fill-rule="nonzero"/><path fill="#000000" fill-opacity="0.0" clip-path="url(#id_0)" d="M404.56317 436.00015C404.56317 437.657 403.22 439.00015 401.56317 439.00015C399.9063 439.00015 398.56317 437.657 398.56317 436.00015C398.56317 434.34332 399.9063 433.00015 401.56317 433.00015C403.22 433.00015 404.56317 434.34332 404.56317 436.00015Z" fill-rule="nonzero"/><path fill="#000000" fill-opacity="0.0" clip-path="url(#id_0)" d="M455.9737 384.74268C455.9737 386.39954 454.63052 387.74268 452.9737 387.74268C451.31683 387.74268 449.9737 386.39954 449.9737 384.74268C449.9737 383.08582 451.31683 381.74268 452.9737 381.74268C454.63052 381.74268 455.9737 383.08582 455.9737 384.74268Z" fill-rule="nonzero"/><path fill="#000000" fill-opacity="0.0" clip-path="url(#id_0)" d="M507.38422 380.85416C507.38422 382.51102 506.04108 383.85416 504.38422 383.85416C502.72736 383.85416 501.38422 382.51102 501.38422 380.85416C501.38422 379.19733 502.72736 377.85416 504.38422 377.85416C506.04108 377.85416 507.38422 379.19733 507.38422 380.85416Z" fill-rule="nonzero"/><path fill="#000000" fill-opacity="0.0" clip-path="url(#id_0)" d="M558.79474 362.11865C558.79474 363.7755 557.4516 365.11865 555.79474 365.11865C554.1379 365.11865 552.79474 363.7755 552.79474 362.11865C552.79474 360.46182 554.1379 359.11865 555.79474 359.11865C557.4516 359.11865 558.79474 360.46182 558.79474 362.11865Z" fill-rule="nonzero"/><path fill="#000000" fill-opacity="0.0" clip-path="url(#id_0)" d="M610.20526 346.6825C610.20526 348.33936 608.8621 349.6825 607.20526 349.6825C605.5484 349.6825 604.20526 348.33936 604.20526 346.6825C604.20526 345.02563 605.5484 343.6825 607.20526 343.6825C608.8621 343.6825 610.20526 345.02563 610.20526 346.6825Z" fill-rule="nonzero"/><path fill="#000000" fill-opacity="0.0" clip-path="url(#id_0)" d="M661.6158 331.95334C661.6158 333.6102 660.27264 334.95334 658.6158 334.95334C656.9589 334.95334 655.6158 333.6102 655.6158 331.95334C655.6158 330.29648 656.9589 328.95334 658.6158 328.95334C660.27264 328.95334 661.6158 330.29648 661.6158 331.95334Z" fill-rule="nonzero"/><path fill="#000000" fill-opacity="0.0" clip-path="url(#id_0)" d="M713.0263 335.25266C713.0263 336.90952 711.68317 338.25266 710.0263 338.25266C708.36945 338.25266 707.0263 336.90952 707.0263 335.25266C707.0263 333.59583 708.36945 332.25266 710.0263 332.25266C711.68317 332.25266 713.0263 333.59583 713.0263 335.25266Z" fill-rule="nonzero"/><path fill="#000000" fill-opacity="0.0" clip-path="url(#id_0)" d="M764.4368 308.74017C764.4368 310.39703 763.0937 311.74017 761.4368 311.74017C759.77997 311.74017 758.4368 310.39703 758.4368 308.74017C758.4368 307.0833 759.77997 305.74017 761.4368 305.74017C763.0937 305.74017 764.4368 307.0833 764.4368 308.74017Z" fill-rule="nonzero"/><path fill="#000000" fill-opacity="0.0" clip-path="url(#id_0)" d="M815.84735 312.15732C815.84735 313.81418 814.5042 315.15732 812.84735 315.15732C811.1905 315.15732 809.84735 313.81418 809.84735 312.15732C809.84735 310.5005 811.1905 309.15732 812.84735 309.15732C814.5042 309.15732 815.84735 310.5005 815.84735 312.15732Z" fill-rule="nonzero"/><path fill="#000000" fill-opacity="0.0" clip-path="url(#id_0)" d="M867.2579 297.1925C867.2579 298.84937 865.91473 300.1925 864.2579 300.1925C862.601 300.1925 861.2579 298.84937 861.2579 297.1925C861.2579 295.53564 862.601 294.1925 864.2579 294.1925C865.91473 294.1925 867.2579 295.53564 867.2579 297.1925Z" fill-rule="nonzero"/><path fill="#000000" fill-opacity="0.0" clip-path="url(#id_0)" d="M918.6684 249.8235C918.6684 251.48035 917.32526 252.8235 915.6684 252.8235C914.0116 252.8235 912.6684 251.48035 912.6684 249.8235C912.6684 248.16664 914.0116 246.8235 915.6684 246.8235C917.32526 246.8235 918.6684 248.16664 918.6684 249.8235Z" fill-rule="nonzero"/><path fill="#000000" fill-opacity="0.0" clip-path="url(#id_0)" d="M970.0789 261.25333C970.0789 262.9102 968.7358 264.25333 967.0789 264.25333C965.4221 264.25333 964.0789 262.9102 964.0789 261.25333C964.0789 259.59647 965.4221 258.25333 967.0789 258.25333C968.7358 258.25333 970.0789 259.59647 970.0789 261.25333Z" fill-rule="nonzero"/><path fill="#000000" fill-opacity="0.0" clip-path="url(#id_0)" d="M1021.4895 229.43834C1021.4895 231.09518 1020.1463 232.43834 1018.4895 232.43834C1016.83264 232.43834 1015.4895 231.09518 1015.4895 229.43834C1015.4895 227.78148 1016.83264 226.43834 1018.4895 226.43834C1020.1463 226.43834 1021.4895 227.78148 1021.4895 229.43834Z" fill-rule="nonzero"/><path fill="#000000" fill-opacity="0.0" clip-path="url(#id_0)" d="M1072.9 274.68634C1072.9 276.3432 1071.5569 277.68634 1069.9 277.68634C1068.2432 277.68634 1066.9 276.3432 1066.9 274.68634C1066.9 273.02948 1068.2432 271.68634 1069.9 271.68634C1071.5569 271.68634 1072.9 273.02948 1072.9 274.68634Z" fill-rule="nonzero"/><path fill="#000000" fill-opacity="0.0" clip-path="url(#id_0)" d="M96.1 466.1655C96.1 467.82236 94.75685 469.1655 93.1 469.1655C91.443146 469.1655 90.1 467.82236 90.1 466.1655C90.1 464.50864 91.443146 463.1655 93.1 463.1655C94.75685 463.1655 96.1 464.50864 96.1 466.1655Z" fill-rule="nonzero"/><path fill="#000000" fill-opacity="0.0" clip-path="url(#id_0)" d="M147.51053 460.03818C147.51053 461.695 146.16737 463.03818 144.51053 463.03818C142.85367 463.03818 141.51053 461.695 141.51053 460.03818C141.51053 458.38132 142.85367 457.03818 144.51053 457.03818C146.16737 457.03818 147.51053 458.38132 147.51053 460.03818Z" fill-rule="nonzero"/><path fill="#000000" fill-opacity="0.0" clip-path="url(#id_0)" d="M198.92105 505.7575C198.92105 507.41437 197.57791 508.7575 195.92105 508.7575C194.2642 508.7575 192.92105 507.41437 192.92105 505.7575C192.92105 504.10065 194.2642 502.7575 195.92105 502.7575C197.57791 502.7575 198.92105 504.10065 198.92105 505.7575Z" fill-rule="nonzero"/><path fill="#000000" fill-opacity="0.0" clip-path="url(#id_0)" d="M250.33157 510.94217C250.33157 512.599 248.98843 513.94214 247.33157 513.94214C245.67473 513.94214 244.33157 512.599 244.33157 510.94217C244.33157 509.2853 245.67473 507.94217 247.33157 507.94217C248.98843 507.94217 250.33157 509.2853 250.33157 510.94217Z" fill-rule="nonzero"/><path fill="#000000" fill-opacity="0.0" clip-path="url(#id_0)" d="M301.7421 515.7733C301.7421 517.4302 300.39896 518.7733 298.7421 518.7733C297.08527 518.7733 295.7421 517.4302 295.7421 515.7733C295.7421 514.11646 297.08527 512.7733 298.7421 512.7733C300.39896 512.7733 301.7421 514.11646 301.7421 515.7733Z" fill-rule="nonzero"/><path fill="#000000" fill-opacity="0.0" clip-path="url(#id_0)" d="M353.15262 510.353C353.15262 512.0098 351.80948 513.353 350.15262 513.353C348.4958 513.353 347.15262 512.0098 347.15262 510.353C347.15262 508.69614 348.4958 507.353 350.15262 507.353C351.80948 507.353 353.15262 508.69614 353.15262 510.353Z" fill-rule="nonzero"/><path fill="#000000" fill-opacity="0.0" clip-path="url(#id_0)" d="M404.56317 510.23517C404.56317 511.89203 403.22 513.23517 401.56317 513.23517C399.9063 513.23517 398.56317 511.89203 398.56317 510.23517C398.56317 508.5783 399.9063 507.23517 401.56317 507.23517C403.22 507.23517 404.56317 508.5783 404.56317 510.23517Z" fill-rule="nonzero"/><path fill="#000000" fill-opacity="0.0" clip-path="url(#id_0)" d="M455.9737 501.869C455.9737 503.52585 454.63052 504.869 452.9737 504.869C451.31683 504.869 449.9737 503.52585 449.9737 501.869C449.9737 500.21216 451.31683 498.869 452.9737 498.869C454.63052 498.869 455.9737 500.21216 455.9737 501.869Z" fill-rule="nonzero"/><path fill="#000000" fill-opacity="0.0" clip-path="url(#id_0)" d="M507.38422 495.97733C507.38422 497.6342 506.04108 498.97733 504.38422 498.97733C502.72736 498.97733 501.38422 497.6342 501.38422 495.97733C501.38422 494.32047 502.72736 492.97733 504.38422 492.97733C506.04108 492.97733 507.38422 494.32047 507.38422 495.97733Z" fill-rule="nonzero"/><path fill="#000000" fill-opacity="0.0" clip-path="url(#id_0)" d="M558.79474 486.07935C558.79474 487.73618 557.4516 489.07935 555.79474 489.07935C554.1379 489.07935 552.79474 487.73618 552.79474 486.07935C552.79474 484.4225 554.1379 483.07935 555.79474 483.07935C557.4516 483.07935 558.79474 484.4225 558.79474 486.07935Z" fill-rule="nonzero"/><path fill="#000000" fill-opacity="0.0" clip-path="url(#id_0)" d="M610.20526 486.19717C610.20526 487.85403 608.8621 489.19717 607.20526 489.19717C605.5484 489.19717 604.20526 487.85403 604.20526 486.19717C604.20526 484.5403 605.5484 483.19717 607.20526 483.19717C608.8621 483.19717 610.20526 484.5403 610.20526 486.19717Z" fill-rule="nonzero"/><path fill="#000000" fill-opacity="0.0" clip-path="url(#id_0)" d="M661.6158 471.23233C661.6158 472.8892 660.27264 474.23233 658.6158 474.23233C656.9589 474.23233 655.6158 472.8892 655.6158 471.23233C655.6158 469.57547 656.9589 468.23233 658.6158 468.23233C660.27264 468.23233 661.6158 469.57547 661.6158 471.23233Z" fill-rule="nonzero"/><path fill="#000000" fill-opacity="0.0" clip-path="url(#id_0)" d="M713.0263 460.5095C713.0263 462.16635 711.68317 463.5095 710.0263 463.5095C708.36945 463.5095 707.0263 462.16635 707.0263 460.5095C707.0263 458.85263 708.36945 457.5095 710.0263 457.5095C711.68317 457.5095 713.0263 458.85263 713.0263 460.5095Z" fill-rule="nonzero"/><path fill="#000000" fill-opacity="0.0" clip-path="url(#id_0)" d="M764.4368 447.7835C764.4368 449.44037 763.0937 450.7835 761.4368 450.7835C759.77997 450.7835 758.4368 449.44037 758.4368 447.7835C758.4368 446.12665 759.77997 444.7835 761.4368 444.7835C763.0937 444.7835 764.4368 446.12665 764.4368 447.7835Z" fill-rule="nonzero"/><path fill="#000000" fill-opacity="0.0" clip-path="url(#id_0)" d="M815.84735 415.2615C815.84735 416.91837 814.5042 418.2615 812.84735 418.2615C811.1905 418.2615 809.84735 416.91837 809.84735 415.2615C809.84735 413.60464 811.1905 412.2615 812.84735 412.2615C814.5042 412.2615 815.84735 413.60464 815.84735 415.2615Z" fill-rule="nonzero"/><path fill="#000000" fill-opacity="0.0" clip-path="url(#id_0)" d="M867.2579 399.0005C867.2579 400.65735 865.91473 402.0005 864.2579 402.0005C862.601 402.0005 861.2579 400.65735 861.2579 399.0005C861.2579 397.34366 862.601 396.0005 864.2579 396.0005C865.91473 396.0005 867.2579 397.34366 867.2579 399.0005Z" fill-rule="nonzero"/><path fill="#000000" fill-opacity="0.0" clip-path="url(#id_0)" d="M918.6684 396.29034C918.6684 397.94717 917.32526 399.29034 915.6684 399.29034C914.0116 399.29034 912.6684 397.94717 912.6684 396.29034C912.6684 394.63348 914.0116 393.29034 915.6684 393.29034C917.32526 393.29034 918.6684 394.63348 918.6684 396.29034Z" fill-rule="nonzero"/><path fill="#000000" fill-opacity="0.0" clip-path="url(#id_0)" d="M970.0789 376.14084C970.0789 377.7977 968.7358 379.14084 967.0789 379.14084C965.4221 379.14084 964.0789 377.7977 964.0789 376.14084C964.0789 374.48398 965.4221 373.14084 967.0789 373.14084C968.7358 373.14084 970.0789 374.48398 970.0789 376.14084Z" fill-rule="nonzero"/><path fill="#000000" fill-opacity="0.0" clip-path="url(#id_0)" d="M1021.4895 350.80667C1021.4895 352.46353 1020.1463 353.80667 1018.4895 353.80667C1016.83264 353.80667 1015.4895 352.46353 1015.4895 350.80667C1015.4895 349.1498 1016.83264 347.80667 1018.4895 347.80667C1020.1463 347.80667 1021.4895 349.1498 1021.4895 350.80667Z" fill-rule="nonzero"/><path fill="#000000" fill-opacity="0.0" clip-path="url(#id_0)" d="M1072.9 342.32266C1072.9 343.97952 1071.5569 345.32266 1069.9 345.32266C1068.2432 345.32266 1066.9 343.97952 1066.9 342.32266C1066.9 340.6658 1068.2432 339.32266 1069.9 339.32266C1071.5569 339.32266 1072.9 340.6658 1072.9 342.32266Z" fill-rule="nonzero"/><path fill="#000000" fill-opacity="0.0" clip-path="url(#id_0)" d="M96.1 431.169C96.1 432.82587 94.75685 434.169 93.1 434.169C91.443146 434.169 90.1 432.82587 90.1 431.169C90.1 429.51215 91.443146 428.169 93.1 428.169C94.75685 428.169 96.1 429.51215 96.1 431.169Z" fill-rule="nonzero"/><path fill="#000000" fill-opacity="0.0" clip-path="url(#id_0)" d="M147.51053 370.367C147.51053 372.02386 146.16737 373.367 144.51053 373.367C142.85367 373.367 141.51053 372.02386 141.51053 370.367C141.51053 368.71014 142.85367 367.367 144.51053 367.367C146.16737 367.367 147.51053 368.71014 147.51053 370.367Z" fill-rule="nonzero"/><path fill="#000000" fill-opacity="0.0" clip-path="url(#id_0)" d="M198.92105 470.64316C198.92105 472.30002 197.57791 473.64316 195.92105 473.64316C194.2642 473.64316 192.92105 472.30002 192.92105 470.64316C192.92105 468.9863 194.2642 467.64316 195.92105 467.64316C197.57791 467.64316 198.92105 468.9863 198.92105 470.64316Z" fill-rule="nonzero"/><path fill="#000000" fill-opacity="0.0" clip-path="url(#id_0)" d="M250.33157 538.51514C250.33157 540.172 248.98843 541.51514 247.33157 541.51514C245.67473 541.51514 244.33157 540.172 244.33157 538.51514C244.33157 536.85834 245.67473 535.51514 247.33157 535.51514C248.98843 535.51514 250.33157 536.85834 250.33157 538.51514Z" fill-rule="nonzero"/><path fill="#000000" fill-opacity="0.0" clip-path="url(#id_0)" d="M301.7421 559.60736C301.7421 561.26416 300.39896 562.60736 298.7421 562.60736C297.08527 562.60736 295.7421 561.26416 295.7421 559.60736C295.7421 557.9505 297.08527 556.60736 298.7421 556.60736C300.39896 556.60736 301.7421 557.9505 301.7421 559.60736Z" fill-rule="nonzero"/><path fill="#000000" fill-opacity="0.0" clip-path="url(#id_0)" d="M353.15262 563.61365C353.15262 565.2705 351.80948 566.61365 350.15262 566.61365C348.4958 566.61365 347.15262 565.2705 347.15262 563.61365C347.15262 561.9568 348.4958 560.61365 350.15262 560.61365C351.80948 560.61365 353.15262 561.9568 353.15262 563.61365Z" fill-rule="nonzero"/><path fill="#000000" fill-opacity="0.0" clip-path="url(#id_0)" d="M404.56317 562.55316C404.56317 564.21 403.22 565.55316 401.56317 565.55316C399.9063 565.55316 398.56317 564.21 398.56317 562.55316C398.56317 560.8963 399.9063 559.55316 401.56317 559.55316C403.22 559.55316 404.56317 560.8963 404.56317 562.55316Z" fill-rule="nonzero"/><path fill="#000000" fill-opacity="0.0" clip-path="url(#id_0)" d="M455.9737 534.7445C455.9737 536.40137 454.63052 537.7445 452.9737 537.7445C451.31683 537.7445 449.9737 536.40137 449.9737 534.7445C449.9737 533.08765 451.31683 531.7445 452.9737 531.7445C454.63052 531.7445 455.9737 533.08765 455.9737 534.7445Z" fill-rule="nonzero"/><path fill="#000000" fill-opacity="0.0" clip-path="url(#id_0)" d="M507.38422 525.5535C507.38422 527.2103 506.04108 528.5535 504.38422 528.5535C502.72736 528.5535 501.38422 527.2103 501.38422 525.5535C501.38422 523.89667 502.72736 522.5535 504.38422 522.5535C506.04108 522.5535 507.38422 523.89667 507.38422 525.5535Z" fill-rule="nonzero"/><path fill="#000000" fill-opacity="0.0" clip-path="url(#id_0)" d="M558.79474 524.72864C558.79474 526.3855 557.4516 527.72864 555.79474 527.72864C554.1379 527.72864 552.79474 526.3855 552.79474 524.72864C552.79474 523.07184 554.1379 521.72864 555.79474 521.72864C557.4516 521.72864 558.79474 523.07184 558.79474 524.72864Z" fill-rule="nonzero"/><path fill="#000000" fill-opacity="0.0" clip-path="url(#id_0)" d="M610.20526 517.423C610.20526 519.07983 608.8621 520.423 607.20526 520.423C605.5484 520.423 604.20526 519.07983 604.20526 517.423C604.20526 515.7662 605.5484 514.423 607.20526 514.423C608.8621 514.423 610.20526 515.7662 610.20526 517.423Z" fill-rule="nonzero"/><path fill="#000000" fill-opacity="0.0" clip-path="url(#id_0)" d="M661.6158 522.7255C661.6158 524.3823 660.27264 525.7255 658.6158 525.7255C656.9589 525.7255 655.6158 524.3823 655.6158 522.7255C655.6158 521.06866 656.9589 519.7255 658.6158 519.7255C660.27264 519.7255 661.6158 521.06866 661.6158 522.7255Z" fill-rule="nonzero"/><path fill="#000000" fill-opacity="0.0" clip-path="url(#id_0)" d="M713.0263 523.9038C713.0263 525.56067 711.68317 526.9038 710.0263 526.9038C708.36945 526.9038 707.0263 525.56067 707.0263 523.9038C707.0263 522.247 708.36945 520.9038 710.0263 520.9038C711.68317 520.9038 713.0263 522.247 713.0263 523.9038Z" fill-rule="nonzero"/><path fill="#000000" fill-opacity="0.0" clip-path="url(#id_0)" d="M764.4368 526.02484C764.4368 527.6817 763.0937 529.02484 761.4368 529.02484C759.77997 529.02484 758.4368 527.6817 758.4368 526.02484C758.4368 524.368 759.77997 523.02484 761.4368 523.02484C763.0937 523.02484 764.4368 524.368 764.4368 526.02484Z" fill-rule="nonzero"/><path fill="#000000" fill-opacity="0.0" clip-path="url(#id_0)" d="M815.84735 523.786C815.84735 525.4429 814.5042 526.786 812.84735 526.786C811.1905 526.786 809.84735 525.4429 809.84735 523.786C809.84735 522.12915 811.1905 520.786 812.84735 520.786C814.5042 520.786 815.84735 522.12915 815.84735 523.786Z" fill-rule="nonzero"/><path fill="#000000" fill-opacity="0.0" clip-path="url(#id_0)" d="M867.2579 523.4325C867.2579 525.08936 865.91473 526.4325 864.2579 526.4325C862.601 526.4325 861.2579 525.08936 861.2579 523.4325C861.2579 521.77563 862.601 520.4325 864.2579 520.4325C865.91473 520.4325 867.2579 521.77563 867.2579 523.4325Z" fill-rule="nonzero"/><path fill="#000000" fill-opacity="0.0" clip-path="url(#id_0)" d="M918.6684 524.61084C918.6684 526.2677 917.32526 527.61084 915.6684 527.61084C914.0116 527.61084 912.6684 526.2677 912.6684 524.61084C912.6684 522.954 914.0116 521.61084 915.6684 521.61084C917.32526 521.61084 918.6684 522.954 918.6684 524.61084Z" fill-rule="nonzero"/><path fill="#000000" fill-opacity="0.0" clip-path="url(#id_0)" d="M970.0789 522.25415C970.0789 523.911 968.7358 525.25415 967.0789 525.25415C965.4221 525.25415 964.0789 523.911 964.0789 522.25415C964.0789 520.5973 965.4221 519.25415 967.0789 519.25415C968.7358 519.25415 970.0789 520.5973 970.0789 522.25415Z" fill-rule="nonzero"/><path fill="#000000" fill-opacity="0.0" clip-path="url(#id_0)" d="M1021.4895 517.1873C1021.4895 518.8442 1020.1463 520.1873 1018.4895 520.1873C1016.83264 520.1873 1015.4895 518.8442 1015.4895 517.1873C1015.4895 515.53046 1016.83264 514.1873 1018.4895 514.1873C1020.1463 514.1873 1021.4895 515.53046 1021.4895 517.1873Z" fill-rule="nonzero"/><path fill="#000000" fill-opacity="0.0" clip-path="url(#id_0)" d="M1072.9 515.06635C1072.9 516.7232 1071.5569 518.06635 1069.9 518.06635C1068.2432 518.06635 1066.9 516.7232 1066.9 515.06635C1066.9 513.4095 1068.2432 512.06635 1069.9 512.06635C1071.5569 512.06635 1072.9 513.4095 1072.9 515.06635Z" fill-rule="nonzero"/><path fill="#000000" d="M578.7969 644.9L578.7969 638.6813L579.7344 638.6813L579.7344 639.5563Q580.4219 638.54065 581.71875 638.54065Q582.28125 638.54065 582.75 638.7438Q583.2344 638.9469 583.46875 639.275Q583.7031 639.60315 583.7969 640.04065Q583.84375 640.3375 583.84375 641.0719L583.84375 644.9L582.7969 644.9L582.7969 641.1188Q582.7969 640.4625 582.6719 640.15Q582.5469 639.8375 582.2344 639.65Q581.9219 639.4469 581.5 639.4469Q580.8281 639.4469 580.3281 639.8844Q579.84375 640.3063 579.84375 641.4938L579.84375 644.9L578.7969 644.9Z" fill-rule="nonzero"/><path fill="#000000" d="M45.100025 384.93646L38.881275 384.93646L38.881275 383.99896L39.756275 383.99896Q38.74065 383.31146 38.74065 382.0146Q38.74065 381.4521 38.943775 380.98334Q39.1469 380.49896 39.475025 380.2646Q39.80315 380.0302 40.24065 379.93646Q40.537525 379.8896 41.2719 379.8896L45.100025 379.8896L45.100025 380.93646L41.318775 380.93646Q40.662525 380.93646 40.350025 381.06146Q40.037525 381.18646 39.850025 381.49896Q39.6469 381.81146 39.6469 382.23334Q39.6469 382.9052 40.0844 383.4052Q40.506275 383.8896 41.693775 383.8896L45.100025 383.8896L45.100025 384.93646ZM43.24065 378.35834L43.0844 377.3271Q43.7094 377.23334 44.037525 376.8427Q44.36565 376.43646 44.36565 375.7021Q44.36565 374.98334 44.0844 374.6396Q43.787525 374.2802 43.381275 374.2802Q43.0219 374.2802 42.818775 374.5927Q42.67815 374.81146 42.4594 375.67084Q42.162525 376.8271 41.9594 377.2802Q41.74065 377.7177 41.36565 377.9521Q40.99065 378.18646 40.5219 378.18646Q40.11565 378.18646 39.756275 377.99896Q39.3969 377.81146 39.162525 377.48334Q38.99065 377.23334 38.86565 376.81146Q38.74065 376.3896 38.74065 375.8896Q38.74065 375.17084 38.9594 374.62396Q39.162525 374.06146 39.5219 373.79584Q39.881275 373.5302 40.475025 373.43646L40.61565 374.4677Q40.1469 374.5302 39.881275 374.87396Q39.600025 375.2021 39.600025 375.8271Q39.600025 376.54584 39.850025 376.85834Q40.0844 377.17084 40.412525 377.17084Q40.61565 377.17084 40.7719 377.04584Q40.943775 376.9052 41.05315 376.6396Q41.11565 376.48334 41.318775 375.7021Q41.631275 374.5771 41.818775 374.1396Q42.006275 373.7021 42.36565 373.4521Q42.725025 373.2021 43.2719 373.2021Q43.80315 373.2021 44.2719 373.5146Q44.725025 373.81146 44.99065 374.3896Q45.24065 374.9677 45.24065 375.7021Q45.24065 376.92084 44.74065 377.56146Q44.225025 378.18646 43.24065 378.35834ZM45.24065 371.73334L36.36565 369.24896L36.36565 368.4052L45.24065 370.8896L45.24065 371.73334ZM41.99065 368.3271Q40.256275 368.3271 39.42815 367.37396Q38.74065 366.5771 38.74065 365.42084Q38.74065 364.1396 39.5844 363.3271Q40.412525 362.49896 41.8969 362.49896Q43.100025 362.49896 43.787525 362.85834Q44.475025 363.2177 44.86565 363.92084Q45.24065 364.60834 45.24065 365.42084Q45.24065 366.7177 44.412525 367.5302Q43.568775 368.3271 41.99065 368.3271ZM41.99065 367.24896Q43.17815 367.24896 43.7719 366.73334Q44.36565 366.2021 44.36565 365.42084Q44.36565 364.62396 43.7719 364.10834Q43.17815 363.5927 41.9594 363.5927Q40.80315 363.5927 40.2094 364.12396Q39.61565 364.6396 39.61565 365.42084Q39.61565 366.2021 40.2094 366.73334Q40.787525 367.24896 41.99065 367.24896ZM47.49065 360.93646L38.881275 360.93646L38.881275 359.98334L39.67815 359.98334Q39.2094 359.6396 38.975025 359.2177Q38.74065 358.7802 38.74065 358.17084Q38.74065 357.37396 39.1469 356.7646Q39.55315 356.1552 40.30315 355.85834Q41.05315 355.54584 41.943775 355.54584Q42.8969 355.54584 43.662525 355.8896Q44.42815 356.2177 44.8344 356.87396Q45.24065 357.5302 45.24065 358.24896Q45.24065 358.7802 45.0219 359.2021Q44.787525 359.62396 44.4594 359.8896L47.49065 359.8896L47.49065 360.93646ZM42.0219 359.98334Q43.225025 359.98334 43.80315 359.49896Q44.36565 359.0146 44.36565 358.3271Q44.36565 357.62396 43.7719 357.12396Q43.17815 356.62396 41.92815 356.62396Q40.74065 356.62396 40.162525 357.10834Q39.568775 357.5927 39.568775 358.2802Q39.568775 358.9521 40.193775 359.4677Q40.818775 359.98334 42.0219 359.98334ZM43.24065 354.35834L43.0844 353.3271Q43.7094 353.23334 44.037525 352.8427Q44.36565 352.43646 44.36565 351.7021Q44.36565 350.98334 44.0844 350.6396Q43.787525 350.2802 43.381275 350.2802Q43.0219 350.2802 42.818775 350.5927Q42.67815 350.81146 42.4594 351.67084Q42.162525 352.8271 41.9594 353.2802Q41.74065 353.7177 41.36565 353.9521Q40.99065 354.18646 40.5219 354.18646Q40.11565 354.18646 39.756275 353.99896Q39.3969 353.81146 39.162525 353.48334Q38.99065 353.23334 38.86565 352.81146Q38.74065 352.3896 38.74065 351.8896Q38.74065 351.17084 38.9594 350.62396Q39.162525 350.06146 39.5219 349.79584Q39.881275 349.5302 40.475025 349.43646L40.61565 350.4677Q40.1469 350.5302 39.881275 350.87396Q39.600025 351.2021 39.600025 351.8271Q39.600025 352.54584 39.850025 352.85834Q40.0844 353.17084 40.412525 353.17084Q40.61565 353.17084 40.7719 353.04584Q40.943775 352.9052 41.05315 352.6396Q41.11565 352.48334 41.318775 351.7021Q41.631275 350.5771 41.818775 350.1396Q42.006275 349.7021 42.36565 349.4521Q42.725025 349.2021 43.2719 349.2021Q43.80315 349.2021 44.2719 349.5146Q44.725025 349.81146 44.99065 350.3896Q45.24065 350.9677 45.24065 351.7021Q45.24065 352.92084 44.74065 353.56146Q44.225025 354.18646 43.24065 354.35834Z" fill-rule="nonzero"/><path fill="#000000" d="M80.6 595.66565Q80.6 594.1344 80.9125 593.2125Q81.225 592.275 81.83437 591.775Q82.45937 591.275 83.39687 591.275Q84.08437 591.275 84.6 591.5563Q85.13125 591.8375 85.475 592.3688Q85.81875 592.8844 86.00625 593.6344Q86.19375 594.3844 86.19375 595.66565Q86.19375 597.1813 85.88125 598.10315Q85.58437 599.025 84.95937 599.54065Q84.35 600.04065 83.39687 600.04065Q82.1625 600.04065 81.44375 599.15Q80.6 598.0875 80.6 595.66565ZM81.67812 595.66565Q81.67812 597.775 82.17812 598.47815Q82.67812 599.1813 83.39687 599.1813Q84.13125 599.1813 84.61562 598.47815Q85.11562 597.775 85.11562 595.66565Q85.11562 593.54065 84.61562 592.85315Q84.13125 592.15 83.38125 592.15Q82.6625 592.15 82.225 592.7594Q81.67812 593.54065 81.67812 595.66565Z" fill-rule="nonzero"/><path fill="#000000" d="M70.56875 482.06668L69.52187 482.06668L69.52187 475.34793Q69.13125 475.7073 68.50625 476.0823Q67.89687 476.44168 67.4125 476.61356L67.4125 475.59793Q68.2875 475.17606 68.94375 474.59793Q69.61562 474.00418 69.89687 473.44168L70.56875 473.44168L70.56875 482.06668ZM73.6 477.8323Q73.6 476.30106 73.9125 475.37918Q74.225 474.44168 74.83437 473.94168Q75.45937 473.44168 76.39687 473.44168Q77.08437 473.44168 77.6 473.72293Q78.13125 474.00418 78.475 474.53543Q78.81875 475.05106 79.00625 475.80106Q79.19375 476.55106 79.19375 477.8323Q79.19375 479.34793 78.88125 480.2698Q78.58437 481.19168 77.95937 481.7073Q77.35 482.2073 76.39687 482.2073Q75.1625 482.2073 74.44375 481.31668Q73.6 480.25418 73.6 477.8323ZM74.67812 477.8323Q74.67812 479.94168 75.17812 480.6448Q75.67812 481.34793 76.39687 481.34793Q77.13125 481.34793 77.61562 480.6448Q78.11562 479.94168 78.11562 477.8323Q78.11562 475.7073 77.61562 475.0198Q77.13125 474.31668 76.38125 474.31668Q75.6625 474.31668 75.225 474.92606Q74.67812 475.7073 74.67812 477.8323ZM80.6 477.8323Q80.6 476.30106 80.9125 475.37918Q81.225 474.44168 81.83437 473.94168Q82.45937 473.44168 83.39687 473.44168Q84.08437 473.44168 84.6 473.72293Q85.13125 474.00418 85.475 474.53543Q85.81875 475.05106 86.00625 475.80106Q86.19375 476.55106 86.19375 477.8323Q86.19375 479.34793 85.88125 480.2698Q85.58437 481.19168 84.95937 481.7073Q84.35 482.2073 83.39687 482.2073Q82.1625 482.2073 81.44375 481.31668Q80.6 480.25418 80.6 477.8323ZM81.67812 477.8323Q81.67812 479.94168 82.17812 480.6448Q82.67812 481.34793 83.39687 481.34793Q84.13125 481.34793 84.61562 480.6448Q85.11562 479.94168 85.11562 477.8323Q85.11562 475.7073 84.61562 475.0198Q84.13125 474.31668 83.38125 474.31668Q82.6625 474.31668 82.225 474.92606Q81.67812 475.7073 81.67812 477.8323Z" fill-rule="nonzero"/><path fill="#000000" d="M72.14687 363.2177L72.14687 364.23334L66.45937 364.23334Q66.45937 363.85834 66.58437 363.49896Q66.80312 362.92084 67.27187 362.35834Q67.75625 361.79584 68.6625 361.06146Q70.06875 359.9052 70.55312 359.23334Q71.05312 358.56146 71.05312 357.9677Q71.05312 357.3427 70.6 356.92084Q70.14687 356.48334 69.42812 356.48334Q68.6625 356.48334 68.20937 356.93646Q67.75625 357.3896 67.74062 358.2021L66.6625 358.0927Q66.77187 356.87396 67.49062 356.24896Q68.225 355.60834 69.45937 355.60834Q70.69375 355.60834 71.4125 356.29584Q72.13125 356.98334 72.13125 357.99896Q72.13125 358.5146 71.9125 359.0146Q71.70937 359.49896 71.20937 360.06146Q70.725 360.60834 69.6 361.56146Q68.64687 362.35834 68.36562 362.6552Q68.1 362.93646 67.92812 363.2177L72.14687 363.2177ZM73.6 359.99896Q73.6 358.4677 73.9125 357.54584Q74.225 356.60834 74.83437 356.10834Q75.45937 355.60834 76.39687 355.60834Q77.08437 355.60834 77.6 355.8896Q78.13125 356.17084 78.475 356.7021Q78.81875 357.2177 79.00625 357.9677Q79.19375 358.7177 79.19375 359.99896Q79.19375 361.5146 78.88125 362.43646Q78.58437 363.35834 77.95937 363.87396Q77.35 364.37396 76.39687 364.37396Q75.1625 364.37396 74.44375 363.48334Q73.6 362.42084 73.6 359.99896ZM74.67812 359.99896Q74.67812 362.10834 75.17812 362.81146Q75.67812 363.5146 76.39687 363.5146Q77.13125 363.5146 77.61562 362.81146Q78.11562 362.10834 78.11562 359.99896Q78.11562 357.87396 77.61562 357.18646Q77.13125 356.48334 76.38125 356.48334Q75.6625 356.48334 75.225 357.0927Q74.67812 357.87396 74.67812 359.99896ZM80.6 359.99896Q80.6 358.4677 80.9125 357.54584Q81.225 356.60834 81.83437 356.10834Q82.45937 355.60834 83.39687 355.60834Q84.08437 355.60834 84.6 355.8896Q85.13125 356.17084 85.475 356.7021Q85.81875 357.2177 86.00625 357.9677Q86.19375 358.7177 86.19375 359.99896Q86.19375 361.5146 85.88125 362.43646Q85.58437 363.35834 84.95937 363.87396Q84.35 364.37396 83.39687 364.37396Q82.1625 364.37396 81.44375 363.48334Q80.6 362.42084 80.6 359.99896ZM81.67812 359.99896Q81.67812 362.10834 82.17812 362.81146Q82.67812 363.5146 83.39687 363.5146Q84.13125 363.5146 84.61562 362.81146Q85.11562 362.10834 85.11562 359.99896Q85.11562 357.87396 84.61562 357.18646Q84.13125 356.48334 83.38125 356.48334Q82.6625 356.48334 82.225 357.0927Q81.67812 357.87396 81.67812 359.99896Z" fill-rule="nonzero"/><path fill="#000000" d="M66.6 244.13437L67.6625 243.99374Q67.83437 244.88437 68.27187 245.29062Q68.70937 245.68124 69.33437 245.68124Q70.08437 245.68124 70.6 245.16562Q71.11562 244.65 71.11562 243.88437Q71.11562 243.16562 70.63125 242.69687Q70.1625 242.2125 69.42812 242.2125Q69.13125 242.2125 68.67812 242.3375L68.80312 241.4Q68.9125 241.41562 68.975 241.41562Q69.64687 241.41562 70.17812 241.07187Q70.725 240.7125 70.725 239.97812Q70.725 239.4 70.33437 239.025Q69.94375 238.63437 69.31875 238.63437Q68.70937 238.63437 68.2875 239.025Q67.88125 239.41562 67.77187 240.18124L66.70937 239.99374Q66.89687 238.94687 67.58437 238.36874Q68.27187 237.775 69.2875 237.775Q69.99062 237.775 70.58437 238.0875Q71.17812 238.38437 71.49062 238.9Q71.80312 239.41562 71.80312 240.00937Q71.80312 240.55624 71.50625 241.025Q71.20937 241.47812 70.63125 241.74374Q71.38125 241.91562 71.80312 242.47812Q72.225 243.025 72.225 243.86874Q72.225 244.99374 71.39687 245.775Q70.58437 246.55624 69.33437 246.55624Q68.20937 246.55624 67.45937 245.88437Q66.70937 245.19687 66.6 244.13437ZM73.6 242.16562Q73.6 240.63437 73.9125 239.7125Q74.225 238.775 74.83437 238.275Q75.45937 237.775 76.39687 237.775Q77.08437 237.775 77.6 238.05624Q78.13125 238.3375 78.475 238.86874Q78.81875 239.38437 79.00625 240.13437Q79.19375 240.88437 79.19375 242.16562Q79.19375 243.68124 78.88125 244.60312Q78.58437 245.525 77.95937 246.04062Q77.35 246.54062 76.39687 246.54062Q75.1625 246.54062 74.44375 245.65Q73.6 244.5875 73.6 242.16562ZM74.67812 242.16562Q74.67812 244.275 75.17812 244.97812Q75.67812 245.68124 76.39687 245.68124Q77.13125 245.68124 77.61562 244.97812Q78.11562 244.275 78.11562 242.16562Q78.11562 240.04062 77.61562 239.35312Q77.13125 238.65 76.38125 238.65Q75.6625 238.65 75.225 239.25937Q74.67812 240.04062 74.67812 242.16562ZM80.6 242.16562Q80.6 240.63437 80.9125 239.7125Q81.225 238.775 81.83437 238.275Q82.45937 237.775 83.39687 237.775Q84.08437 237.775 84.6 238.05624Q85.13125 238.3375 85.475 238.86874Q85.81875 239.38437 86.00625 240.13437Q86.19375 240.88437 86.19375 242.16562Q86.19375 243.68124 85.88125 244.60312Q85.58437 245.525 84.95937 246.04062Q84.35 246.54062 83.39687 246.54062Q82.1625 246.54062 81.44375 245.65Q80.6 244.5875 80.6 242.16562ZM81.67812 242.16562Q81.67812 244.275 82.17812 244.97812Q82.67812 245.68124 83.39687 245.68124Q84.13125 245.68124 84.61562 244.97812Q85.11562 244.275 85.11562 242.16562Q85.11562 240.04062 84.61562 239.35312Q84.13125 238.65 83.38125 238.65Q82.6625 238.65 82.225 239.25937Q81.67812 240.04062 81.67812 242.16562Z" fill-rule="nonzero"/><path fill="#000000" d="M69.975 128.56667L69.975 126.504166L66.25625 126.504166L66.25625 125.535416L70.17812 119.972916L71.0375 119.972916L71.0375 125.535416L72.19375 125.535416L72.19375 126.504166L71.0375 126.504166L71.0375 128.56667L69.975 128.56667ZM69.975 125.535416L69.975 121.67604L67.2875 125.535416L69.975 125.535416ZM73.6 124.33229Q73.6 122.80104 73.9125 121.879166Q74.225 120.941666 74.83437 120.441666Q75.45937 119.941666 76.39687 119.941666Q77.08437 119.941666 77.6 120.222916Q78.13125 120.504166 78.475 121.035416Q78.81875 121.55104 79.00625 122.30104Q79.19375 123.05104 79.19375 124.33229Q79.19375 125.847916 78.88125 126.76979Q78.58437 127.691666 77.95937 128.20729Q77.35 128.70729 76.39687 128.70729Q75.1625 128.70729 74.44375 127.816666Q73.6 126.754166 73.6 124.33229ZM74.67812 124.33229Q74.67812 126.441666 75.17812 127.14479Q75.67812 127.847916 76.39687 127.847916Q77.13125 127.847916 77.61562 127.14479Q78.11562 126.441666 78.11562 124.33229Q78.11562 122.20729 77.61562 121.51979Q77.13125 120.816666 76.38125 120.816666Q75.6625 120.816666 75.225 121.42604Q74.67812 122.20729 74.67812 124.33229ZM80.6 124.33229Q80.6 122.80104 80.9125 121.879166Q81.225 120.941666 81.83437 120.441666Q82.45937 119.941666 83.39687 119.941666Q84.08437 119.941666 84.6 120.222916Q85.13125 120.504166 85.475 121.035416Q85.81875 121.55104 86.00625 122.30104Q86.19375 123.05104 86.19375 124.33229Q86.19375 125.847916 85.88125 126.76979Q85.58437 127.691666 84.95937 128.20729Q84.35 128.70729 83.39687 128.70729Q82.1625 128.70729 81.44375 127.816666Q80.6 126.754166 80.6 124.33229ZM81.67812 124.33229Q81.67812 126.441666 82.17812 127.14479Q82.67812 127.847916 83.39687 127.847916Q84.13125 127.847916 84.61562 127.14479Q85.11562 126.441666 85.11562 124.33229Q85.11562 122.20729 84.61562 121.51979Q84.13125 120.816666 83.38125 120.816666Q82.6625 120.816666 82.225 121.42604Q81.67812 122.20729 81.67812 124.33229Z" fill-rule="nonzero"/><path fill="#000000" d="M90.1 608.66565Q90.1 607.1344 90.4125 606.2125Q90.725 605.275 91.33437 604.775Q91.95937 604.275 92.89687 604.275Q93.58437 604.275 94.1 604.5563Q94.63125 604.8375 94.975 605.3688Q95.31875 605.8844 95.50625 606.6344Q95.69375 607.3844 95.69375 608.66565Q95.69375 610.1813 95.38125 611.10315Q95.08437 612.025 94.45937 612.54065Q93.85 613.04065 92.89687 613.04065Q91.6625 613.04065 90.94375 612.15Q90.1 611.0875 90.1 608.66565ZM91.17812 608.66565Q91.17812 610.775 91.67812 611.47815Q92.17812 612.1813 92.89687 612.1813Q93.63125 612.1813 94.11562 611.47815Q94.61562 610.775 94.61562 608.66565Q94.61562 606.54065 94.11562 605.85315Q93.63125 605.15 92.88125 605.15Q92.1625 605.15 91.725 605.7594Q91.17812 606.54065 91.17812 608.66565Z" fill-rule="nonzero"/><path fill="#000000" d="M347.15262 610.65L348.262 610.5563Q348.387 611.3688 348.8245 611.775Q349.27762 612.1813 349.91824 612.1813Q350.66824 612.1813 351.1995 611.60315Q351.73074 611.025 351.73074 610.0875Q351.73074 609.1813 351.21512 608.66565Q350.71512 608.1344 349.887 608.1344Q349.387 608.1344 348.96512 608.3688Q348.55887 608.60315 348.3245 608.9625L347.34012 608.8375L348.16824 604.4313L352.4495 604.4313L352.4495 605.4313L349.012 605.4313L348.55887 607.7438Q349.3245 607.1969 350.16824 607.1969Q351.29324 607.1969 352.05887 607.97815Q352.84012 608.7594 352.84012 609.9938Q352.84012 611.15 352.16824 612.0094Q351.34012 613.04065 349.91824 613.04065Q348.74637 613.04065 347.99637 612.3844Q347.262 611.72815 347.15262 610.65Z" fill-rule="nonzero"/><path fill="#000000" d="M604.674 612.9L603.62714 612.9L603.62714 606.1813Q603.2365 606.54065 602.6115 606.91565Q602.00214 607.275 601.51776 607.4469L601.51776 606.4313Q602.39276 606.0094 603.049 605.4313Q603.7209 604.8375 604.00214 604.275L604.674 604.275L604.674 612.9ZM607.70526 608.66565Q607.70526 607.1344 608.01776 606.2125Q608.33026 605.275 608.93964 604.775Q609.56464 604.275 610.50214 604.275Q611.18964 604.275 611.70526 604.5563Q612.2365 604.8375 612.58026 605.3688Q612.924 605.8844 613.1115 606.6344Q613.299 607.3844 613.299 608.66565Q613.299 610.1813 612.9865 611.10315Q612.68964 612.025 612.06464 612.54065Q611.45526 613.04065 610.50214 613.04065Q609.26776 613.04065 608.549 612.15Q607.70526 611.0875 607.70526 608.66565ZM608.7834 608.66565Q608.7834 610.775 609.2834 611.47815Q609.7834 612.1813 610.50214 612.1813Q611.2365 612.1813 611.7209 611.47815Q612.2209 610.775 612.2209 608.66565Q612.2209 606.54065 611.7209 605.85315Q611.2365 605.15 610.4865 605.15Q609.76776 605.15 609.33026 605.7594Q608.7834 606.54065 608.7834 608.66565Z" fill-rule="nonzero"/><path fill="#000000" d="M861.7266 612.9L860.67975 612.9L860.67975 606.1813Q860.2891 606.54065 859.6641 606.91565Q859.05475 607.275 858.5704 607.4469L858.5704 606.4313Q859.4454 606.0094 860.1016 605.4313Q860.7735 604.8375 861.05475 604.275L861.7266 604.275L861.7266 612.9ZM864.7579 610.65L865.86725 610.5563Q865.99225 611.3688 866.42975 611.775Q866.8829 612.1813 867.5235 612.1813Q868.2735 612.1813 868.80475 611.60315Q869.336 611.025 869.336 610.0875Q869.336 609.1813 868.8204 608.66565Q868.3204 608.1344 867.49225 608.1344Q866.99225 608.1344 866.5704 608.3688Q866.1641 608.60315 865.92975 608.9625L864.9454 608.8375L865.7735 604.4313L870.05475 604.4313L870.05475 605.4313L866.61725 605.4313L866.1641 607.7438Q866.92975 607.1969 867.7735 607.1969Q868.8985 607.1969 869.6641 607.97815Q870.4454 608.7594 870.4454 609.9938Q870.4454 611.15 869.7735 612.0094Q868.9454 613.04065 867.5235 613.04065Q866.3516 613.04065 865.6016 612.3844Q864.86725 611.72815 864.7579 610.65Z" fill-rule="nonzero"/><path stroke="#4285f4" stroke-width="4.0" stroke-linecap="butt" d="M438.5 87.833336L450.5 87.833336" fill-rule="nonzero"/><path fill="#1a1a1a" d="M459.46875 91.833336L459.46875 83.239586L460.59375 83.239586L460.59375 86.770836L465.0625 86.770836L465.0625 83.239586L466.20312 83.239586L466.20312 91.833336L465.0625 91.833336L465.0625 87.78646L460.59375 87.78646L460.59375 91.833336L459.46875 91.833336ZM472.54688 89.833336L473.64062 89.958336Q473.39062 90.91146 472.6875 91.44271Q471.98438 91.97396 470.90625 91.97396Q469.54688 91.97396 468.73438 91.13021Q467.9375 90.28646 467.9375 88.770836Q467.9375 87.208336 468.75 86.34896Q469.5625 85.47396 470.84375 85.47396Q472.09375 85.47396 472.875 86.31771Q473.67188 87.16146 473.67188 88.708336Q473.67188 88.802086 473.67188 88.989586L469.03125 88.989586Q469.09375 90.020836 469.60938 90.56771Q470.125 91.09896 470.90625 91.09896Q471.48438 91.09896 471.89062 90.802086Q472.3125 90.489586 472.54688 89.833336ZM469.09375 88.13021L472.5625 88.13021Q472.5 87.333336 472.17188 86.94271Q471.65625 86.333336 470.85938 86.333336Q470.125 86.333336 469.625 86.81771Q469.14062 87.302086 469.09375 88.13021ZM479.35938 91.06771Q478.76562 91.56771 478.21875 91.770836Q477.6875 91.97396 477.0625 91.97396Q476.03125 91.97396 475.48438 91.47396Q474.9375 90.97396 474.9375 90.19271Q474.9375 89.739586 475.14062 89.364586Q475.34375 88.97396 475.6875 88.75521Q476.03125 88.520836 476.45312 88.41146Q476.75 88.31771 477.39062 88.239586Q478.65625 88.09896 479.26562 87.88021Q479.26562 87.66146 479.26562 87.614586Q479.26562 86.958336 478.96875 86.69271Q478.5625 86.34896 477.76562 86.34896Q477.03125 86.34896 476.67188 86.614586Q476.3125 86.864586 476.14062 87.520836L475.10938 87.38021Q475.25 86.72396 475.57812 86.31771Q475.90625 85.91146 476.51562 85.69271Q477.125 85.47396 477.92188 85.47396Q478.71875 85.47396 479.21875 85.66146Q479.71875 85.84896 479.95312 86.13021Q480.1875 86.41146 480.28125 86.84896Q480.32812 87.114586 480.32812 87.81771L480.32812 89.22396Q480.32812 90.69271 480.39062 91.083336Q480.46875 91.47396 480.67188 91.833336L479.5625 91.833336Q479.40625 91.50521 479.35938 91.06771ZM479.26562 88.708336Q478.6875 88.94271 477.54688 89.114586Q476.89062 89.208336 476.625 89.333336Q476.35938 89.44271 476.20312 89.66146Q476.0625 89.88021 476.0625 90.16146Q476.0625 90.583336 476.375 90.864586Q476.70312 91.145836 477.3125 91.145836Q477.92188 91.145836 478.39062 90.88021Q478.875 90.614586 479.09375 90.145836Q479.26562 89.78646 479.26562 89.09896L479.26562 88.708336ZM482.29688 94.22396L482.29688 85.614586L483.25 85.614586L483.25 86.41146Q483.59375 85.94271 484.01562 85.708336Q484.45312 85.47396 485.0625 85.47396Q485.85938 85.47396 486.46875 85.88021Q487.07812 86.28646 487.375 87.03646Q487.6875 87.78646 487.6875 88.677086Q487.6875 89.63021 487.34375 90.395836Q487.01562 91.16146 486.35938 91.56771Q485.70312 91.97396 484.98438 91.97396Q484.45312 91.97396 484.03125 91.75521Q483.60938 91.520836 483.34375 91.19271L483.34375 94.22396L482.29688 94.22396ZM483.25 88.75521Q483.25 89.958336 483.73438 90.53646Q484.21875 91.09896 484.90625 91.09896Q485.60938 91.09896 486.10938 90.50521Q486.60938 89.91146 486.60938 88.66146Q486.60938 87.47396 486.125 86.895836Q485.64062 86.302086 484.95312 86.302086Q484.28125 86.302086 483.76562 86.927086Q483.25 87.552086 483.25 88.75521Z" fill-rule="nonzero"/><path stroke="#ea4335" stroke-width="4.0" stroke-linecap="butt" d="M504.5 87.833336L516.5 87.833336" fill-rule="nonzero"/><path fill="#1a1a1a" d="M525.375 91.833336L525.375 83.239586L526.5156 83.239586L526.5156 90.81771L530.75 90.81771L530.75 91.833336L525.375 91.833336ZM536.5469 89.833336L537.6406 89.958336Q537.3906 90.91146 536.6875 91.44271Q535.9844 91.97396 534.90625 91.97396Q533.5469 91.97396 532.7344 91.13021Q531.9375 90.28646 531.9375 88.770836Q531.9375 87.208336 532.75 86.34896Q533.5625 85.47396 534.84375 85.47396Q536.09375 85.47396 536.875 86.31771Q537.6719 87.16146 537.6719 88.708336Q537.6719 88.802086 537.6719 88.989586L533.03125 88.989586Q533.09375 90.020836 533.6094 90.56771Q534.125 91.09896 534.90625 91.09896Q535.4844 91.09896 535.8906 90.802086Q536.3125 90.489586 536.5469 89.833336ZM533.09375 88.13021L536.5625 88.13021Q536.5 87.333336 536.1719 86.94271Q535.65625 86.333336 534.8594 86.333336Q534.125 86.333336 533.625 86.81771Q533.1406 87.302086 533.09375 88.13021ZM538.59375 91.833336L540.8594 88.59896L538.7656 85.614586L540.0781 85.614586L541.03125 87.06771Q541.2969 87.489586 541.46875 87.770836Q541.71875 87.38021 541.9375 87.083336L542.9844 85.614586L544.25 85.614586L542.09375 88.53646L544.40625 91.833336L543.125 91.833336L541.84375 89.895836L541.5 89.38021L539.8594 91.833336L538.59375 91.833336Z" fill-rule="nonzero"/><path stroke="#fbbc04" stroke-width="4.0" stroke-linecap="butt" d="M559.5 87.833336L571.5 87.833336" fill-rule="nonzero"/><path fill="#1a1a1a" d="M580.0469 89.06771L581.1094 88.97396Q581.1875 89.63021 581.46875 90.03646Q581.75 90.44271 582.3281 90.708336Q582.9219 90.958336 583.65625 90.958336Q584.2969 90.958336 584.7969 90.770836Q585.2969 90.56771 585.53125 90.239586Q585.78125 89.895836 585.78125 89.50521Q585.78125 89.09896 585.5469 88.802086Q585.3125 88.489586 584.78125 88.28646Q584.4219 88.145836 583.2344 87.864586Q582.0625 87.583336 581.59375 87.333336Q580.96875 87.00521 580.6719 86.53646Q580.375 86.052086 580.375 85.458336Q580.375 84.81771 580.7344 84.25521Q581.1094 83.677086 581.8125 83.395836Q582.53125 83.09896 583.3906 83.09896Q584.34375 83.09896 585.0781 83.41146Q585.8125 83.708336 586.2031 84.31771Q586.59375 84.91146 586.625 85.66146L585.53125 85.739586Q585.4375 84.927086 584.9219 84.520836Q584.4219 84.09896 583.4375 84.09896Q582.40625 84.09896 581.9375 84.47396Q581.46875 84.84896 581.46875 85.38021Q581.46875 85.84896 581.7969 86.145836Q582.125 86.44271 583.5 86.75521Q584.8906 87.06771 585.40625 87.302086Q586.15625 87.66146 586.5156 88.19271Q586.875 88.708336 586.875 89.41146Q586.875 90.09896 586.4844 90.708336Q586.09375 91.302086 585.3594 91.645836Q584.625 91.97396 583.7031 91.97396Q582.53125 91.97396 581.7344 91.645836Q580.9531 91.302086 580.5 90.614586Q580.0625 89.927086 580.0469 89.06771ZM587.84375 89.395836L588.875 89.25521Q588.90625 90.239586 589.2344 90.59896Q589.5625 90.958336 590.15625 90.958336Q590.5781 90.958336 590.8906 90.770836Q591.2031 90.56771 591.3125 90.239586Q591.4375 89.895836 591.4375 89.16146L591.4375 83.239586L592.5625 83.239586L592.5625 89.09896Q592.5625 90.177086 592.2969 90.770836Q592.0469 91.364586 591.4844 91.677086Q590.9219 91.97396 590.15625 91.97396Q589.03125 91.97396 588.4219 91.333336Q587.8281 90.677086 587.84375 89.395836ZM596.6094 91.833336L596.6094 84.25521L593.78125 84.25521L593.78125 83.239586L600.59375 83.239586L600.59375 84.25521L597.75 84.25521L597.75 91.833336L596.6094 91.833336Z" fill-rule="nonzero"/><path stroke="#34a853" stroke-width="4.0" stroke-linecap="butt" d="M616.5 87.833336L628.5 87.833336" fill-rule="nonzero"/><path fill="#1a1a1a" d="M637.0469 89.06771L638.1094 88.97396Q638.1875 89.63021 638.46875 90.03646Q638.75 90.44271 639.3281 90.708336Q639.9219 90.958336 640.65625 90.958336Q641.2969 90.958336 641.7969 90.770836Q642.2969 90.56771 642.53125 90.239586Q642.78125 89.895836 642.78125 89.50521Q642.78125 89.09896 642.5469 88.802086Q642.3125 88.489586 641.78125 88.28646Q641.4219 88.145836 640.2344 87.864586Q639.0625 87.583336 638.59375 87.333336Q637.96875 87.00521 637.6719 86.53646Q637.375 86.052086 637.375 85.458336Q637.375 84.81771 637.7344 84.25521Q638.1094 83.677086 638.8125 83.395836Q639.53125 83.09896 640.3906 83.09896Q641.34375 83.09896 642.0781 83.41146Q642.8125 83.708336 643.2031 84.31771Q643.59375 84.91146 643.625 85.66146L642.53125 85.739586Q642.4375 84.927086 641.9219 84.520836Q641.4219 84.09896 640.4375 84.09896Q639.40625 84.09896 638.9375 84.47396Q638.46875 84.84896 638.46875 85.38021Q638.46875 85.84896 638.7969 86.145836Q639.125 86.44271 640.5 86.75521Q641.8906 87.06771 642.40625 87.302086Q643.15625 87.66146 643.5156 88.19271Q643.875 88.708336 643.875 89.41146Q643.875 90.09896 643.4844 90.708336Q643.09375 91.302086 642.3594 91.645836Q641.625 91.97396 640.7031 91.97396Q639.53125 91.97396 638.7344 91.645836Q637.9531 91.302086 637.5 90.614586Q637.0625 89.927086 637.0469 89.06771ZM644.84375 89.395836L645.875 89.25521Q645.90625 90.239586 646.2344 90.59896Q646.5625 90.958336 647.15625 90.958336Q647.5781 90.958336 647.8906 90.770836Q648.2031 90.56771 648.3125 90.239586Q648.4375 89.895836 648.4375 89.16146L648.4375 83.239586L649.5625 83.239586L649.5625 89.09896Q649.5625 90.177086 649.2969 90.770836Q649.0469 91.364586 648.4844 91.677086Q647.9219 91.97396 647.15625 91.97396Q646.03125 91.97396 645.4219 91.333336Q644.8281 90.677086 644.84375 89.395836ZM653.6094 91.833336L653.6094 84.25521L650.78125 84.25521L650.78125 83.239586L657.59375 83.239586L657.59375 84.25521L654.75 84.25521L654.75 91.833336L653.6094 91.833336ZM658.4531 91.833336L658.4531 83.239586L664.65625 83.239586L664.65625 84.25521L659.59375 84.25521L659.59375 86.88021L664.34375 86.88021L664.34375 87.895836L659.59375 87.895836L659.59375 90.81771L664.8594 90.81771L664.8594 91.833336L658.4531 91.833336Z" fill-rule="nonzero"/><path fill="#757575" d="M35.709373 53.1L35.709373 38.7875L37.6 38.7875L37.6 44.6625L45.0375 44.6625L45.0375 38.7875L46.928123 38.7875L46.928123 53.1L45.0375 53.1L45.0375 46.35L37.6 46.35L37.6 53.1L35.709373 53.1ZM55.521873 49.75625L57.334373 49.990623Q56.9125 51.56875 55.740623 52.459373Q54.584373 53.334373 52.771873 53.334373Q50.50625 53.334373 49.1625 51.94375Q47.834373 50.5375 47.834373 48.00625Q47.834373 45.38125 49.178123 43.94375Q50.521873 42.490623 52.678123 42.490623Q54.75625 42.490623 56.06875 43.9125Q57.396873 45.31875 57.396873 47.896873Q57.396873 48.053123 57.38125 48.365623L49.646873 48.365623Q49.740623 50.06875 50.615623 50.975Q51.490623 51.88125 52.7875 51.88125Q53.75625 51.88125 54.428123 51.38125Q55.115623 50.865623 55.521873 49.75625ZM49.740623 46.9125L55.5375 46.9125Q55.428123 45.615623 54.88125 44.959373Q54.0375 43.94375 52.69375 43.94375Q51.490623 43.94375 50.6625 44.75625Q49.834373 45.553123 49.740623 46.9125ZM66.19375 51.81875Q65.20937 52.646873 64.30312 52.990623Q63.396873 53.334373 62.365623 53.334373Q60.6625 53.334373 59.740623 52.50625Q58.81875 51.6625 58.81875 50.365623Q58.81875 49.6 59.1625 48.975Q59.521873 48.35 60.084373 47.975Q60.646873 47.584373 61.35 47.38125Q61.865623 47.25625 62.9125 47.115623Q65.0375 46.865623 66.0375 46.521873Q66.05312 46.1625 66.05312 46.053123Q66.05312 44.990623 65.55312 44.5375Q64.88125 43.94375 63.553123 43.94375Q62.303123 43.94375 61.709373 44.38125Q61.13125 44.81875 60.85 45.928123L59.13125 45.69375Q59.365623 44.584373 59.896873 43.9125Q60.428123 43.225 61.44375 42.865623Q62.459373 42.490623 63.803123 42.490623Q65.13125 42.490623 65.95937 42.803123Q66.7875 43.115623 67.17812 43.6Q67.56875 44.06875 67.725 44.7875Q67.81875 45.240623 67.81875 46.4125L67.81875 48.75625Q67.81875 51.209373 67.92812 51.865623Q68.0375 52.50625 68.38125 53.1L66.5375 53.1Q66.27187 52.553123 66.19375 51.81875ZM66.0375 47.896873Q65.08437 48.2875 63.1625 48.553123Q62.084373 48.709373 61.63125 48.9125Q61.19375 49.1 60.94375 49.475Q60.69375 49.85 60.69375 50.31875Q60.69375 51.021873 61.225 51.490623Q61.75625 51.959373 62.7875 51.959373Q63.803123 51.959373 64.58437 51.521873Q65.38125 51.06875 65.75625 50.303123Q66.0375 49.69375 66.0375 48.5375L66.0375 47.896873ZM70.4125 57.06875L70.4125 42.725L72.02187 42.725L72.02187 44.06875Q72.58437 43.2875 73.2875 42.896873Q74.00625 42.490623 75.02187 42.490623Q76.35 42.490623 77.36562 43.178123Q78.38125 43.865623 78.89687 45.115623Q79.42812 46.35 79.42812 47.834373Q79.42812 49.428123 78.85 50.709373Q78.2875 51.975 77.19375 52.6625Q76.1 53.334373 74.89687 53.334373Q74.02187 53.334373 73.31875 52.959373Q72.63125 52.584373 72.17812 52.021873L72.17812 57.06875L70.4125 57.06875ZM72.00625 47.975Q72.00625 49.975 72.81875 50.928123Q73.63125 51.88125 74.7875 51.88125Q75.95937 51.88125 76.7875 50.896873Q77.63125 49.9125 77.63125 47.81875Q77.63125 45.85 76.80312 44.865623Q75.99062 43.865623 74.86562 43.865623Q73.74062 43.865623 72.86562 44.928123Q72.00625 45.975 72.00625 47.975ZM81.88125 53.1L81.88125 51.1L83.88125 51.1L83.88125 53.1Q83.88125 54.209373 83.49062 54.88125Q83.1 55.56875 82.25625 55.928123L81.75625 55.178123Q82.31875 54.94375 82.58437 54.459373Q82.85 53.990623 82.88125 53.1L81.88125 53.1ZM93.56875 53.1L93.56875 38.7875L95.45937 38.7875L95.45937 51.4125L102.50625 51.4125L102.50625 53.1L93.56875 53.1ZM111.52187 49.75625L113.33437 49.990623Q112.9125 51.56875 111.74062 52.459373Q110.58437 53.334373 108.77187 53.334373Q106.50625 53.334373 105.1625 51.94375Q103.83437 50.5375 103.83437 48.00625Q103.83437 45.38125 105.17812 43.94375Q106.52187 42.490623 108.67812 42.490623Q110.75625 42.490623 112.06875 43.9125Q113.39687 45.31875 113.39687 47.896873Q113.39687 48.053123 113.38125 48.365623L105.64687 48.365623Q105.74062 50.06875 106.61562 50.975Q107.49062 51.88125 108.7875 51.88125Q109.75625 51.88125 110.42812 51.38125Q111.11562 50.865623 111.52187 49.75625ZM105.74062 46.9125L111.5375 46.9125Q111.42812 45.615623 110.88125 44.959373Q110.0375 43.94375 108.69375 43.94375Q107.49062 43.94375 106.6625 44.75625Q105.83437 45.553123 105.74062 46.9125ZM114.24062 53.1L118.0375 47.709373L114.5375 42.725L116.725 42.725L118.31875 45.1625Q118.77187 45.85 119.0375 46.31875Q119.475 45.678123 119.83437 45.178123L121.58437 42.725L123.67812 42.725L120.1 47.615623L123.95937 53.1L121.80312 53.1L119.6625 49.88125L119.1 49.00625L116.38125 53.1L114.24062 53.1ZM124.88125 53.1L124.88125 51.1L126.88125 51.1L126.88125 53.1Q126.88125 54.209373 126.49062 54.88125Q126.1 55.56875 125.25625 55.928123L124.75625 55.178123Q125.31875 54.94375 125.58437 54.459373Q125.85 53.990623 125.88125 53.1L124.88125 53.1ZM136.00626 48.50625L137.7875 48.35Q137.9125 49.4125 138.36563 50.1Q138.83438 50.7875 139.80313 51.225Q140.7875 51.646873 142.02188 51.646873Q143.1 51.646873 143.92813 51.334373Q144.75626 51.00625 145.1625 50.44375Q145.56876 49.88125 145.56876 49.209373Q145.56876 48.5375 145.17813 48.0375Q144.7875 47.5375 143.89688 47.19375Q143.31876 46.959373 141.33438 46.490623Q139.36563 46.021873 138.58438 45.6Q137.55313 45.06875 137.05313 44.271873Q136.55313 43.475 136.55313 42.490623Q136.55313 41.396873 137.1625 40.459373Q137.77188 39.521873 138.95938 39.0375Q140.14688 38.5375 141.58438 38.5375Q143.17813 38.5375 144.39688 39.053123Q145.61563 39.56875 146.25626 40.56875Q146.9125 41.553123 146.95938 42.81875L145.14688 42.959373Q145.00626 41.6 144.1625 40.9125Q143.31876 40.209373 141.6625 40.209373Q139.94376 40.209373 139.14688 40.85Q138.36563 41.475 138.36563 42.35Q138.36563 43.13125 138.92813 43.63125Q139.475 44.13125 141.7875 44.646873Q144.1 45.1625 144.95938 45.553123Q146.20938 46.13125 146.80313 47.021873Q147.39688 47.896873 147.39688 49.053123Q147.39688 50.19375 146.74063 51.209373Q146.08438 52.225 144.85 52.7875Q143.63126 53.35 142.1 53.35Q140.1625 53.35 138.85 52.7875Q137.5375 52.209373 136.7875 51.06875Q136.0375 49.928123 136.00626 48.50625ZM148.67813 49.0375L150.38126 48.803123Q150.45938 50.44375 151.00626 51.053123Q151.55313 51.646873 152.52188 51.646873Q153.225 51.646873 153.74063 51.334373Q154.25626 51.00625 154.44376 50.44375Q154.64688 49.88125 154.64688 48.646873L154.64688 38.7875L156.55313 38.7875L156.55313 48.5375Q156.55313 50.334373 156.11563 51.31875Q155.67813 52.303123 154.725 52.834373Q153.7875 53.35 152.52188 53.35Q150.64688 53.35 149.63126 52.271873Q148.63126 51.178123 148.67813 49.0375ZM163.2875 53.1L163.2875 40.475L158.56876 40.475L158.56876 38.7875L169.9125 38.7875L169.9125 40.475L165.17813 40.475L165.17813 53.1L163.2875 53.1ZM184.19376 51.81875Q183.20938 52.646873 182.30313 52.990623Q181.39688 53.334373 180.36563 53.334373Q178.6625 53.334373 177.74063 52.50625Q176.81876 51.6625 176.81876 50.365623Q176.81876 49.6 177.1625 48.975Q177.52188 48.35 178.08438 47.975Q178.64688 47.584373 179.35 47.38125Q179.86563 47.25625 180.9125 47.115623Q183.0375 46.865623 184.0375 46.521873Q184.05313 46.1625 184.05313 46.053123Q184.05313 44.990623 183.55313 44.5375Q182.88126 43.94375 181.55313 43.94375Q180.30313 43.94375 179.70938 44.38125Q179.13126 44.81875 178.85 45.928123L177.13126 45.69375Q177.36563 44.584373 177.89688 43.9125Q178.42813 43.225 179.44376 42.865623Q180.45938 42.490623 181.80313 42.490623Q183.13126 42.490623 183.95938 42.803123Q184.7875 43.115623 185.17813 43.6Q185.56876 44.06875 185.725 44.7875Q185.81876 45.240623 185.81876 46.4125L185.81876 48.75625Q185.81876 51.209373 185.92813 51.865623Q186.0375 52.50625 186.38126 53.1L184.5375 53.1Q184.27188 52.553123 184.19376 51.81875ZM184.0375 47.896873Q183.08438 48.2875 181.1625 48.553123Q180.08438 48.709373 179.63126 48.9125Q179.19376 49.1 178.94376 49.475Q178.69376 49.85 178.69376 50.31875Q178.69376 51.021873 179.225 51.490623Q179.75626 51.959373 180.7875 51.959373Q181.80313 51.959373 182.58438 51.521873Q183.38126 51.06875 183.75626 50.303123Q184.0375 49.69375 184.0375 48.5375L184.0375 47.896873ZM188.4125 53.1L188.4125 42.725L190.00626 42.725L190.00626 44.209373Q191.14688 42.490623 193.30313 42.490623Q194.24063 42.490623 195.02188 42.834373Q195.81876 43.1625 196.20938 43.709373Q196.6 44.25625 196.75626 45.00625Q196.85 45.50625 196.85 46.725L196.85 53.1L195.08438 53.1L195.08438 46.7875Q195.08438 45.709373 194.88126 45.178123Q194.67813 44.646873 194.14688 44.334373Q193.63126 44.021873 192.92813 44.021873Q191.80313 44.021873 190.99063 44.740623Q190.17813 45.44375 190.17813 47.428123L190.17813 53.1L188.4125 53.1ZM205.14688 53.1L205.14688 51.7875Q204.1625 53.334373 202.24063 53.334373Q201.00626 53.334373 199.95938 52.646873Q198.92813 51.959373 198.35 50.740623Q197.7875 49.521873 197.7875 47.928123Q197.7875 46.365623 198.30313 45.1Q198.81876 43.834373 199.85 43.1625Q200.89688 42.490623 202.1625 42.490623Q203.1 42.490623 203.83438 42.896873Q204.56876 43.2875 205.0375 43.9125L205.0375 38.7875L206.77188 38.7875L206.77188 53.1L205.14688 53.1ZM199.58438 47.928123Q199.58438 49.9125 200.42813 50.896873Q201.27188 51.88125 202.4125 51.88125Q203.56876 51.88125 204.36563 50.94375Q205.17813 50.00625 205.17813 48.06875Q205.17813 45.94375 204.35 44.94375Q203.5375 43.94375 202.33438 43.94375Q201.1625 43.94375 200.36563 44.9125Q199.58438 45.865623 199.58438 47.928123ZM215.00626 48.50625L216.7875 48.35Q216.9125 49.4125 217.36563 50.1Q217.83438 50.7875 218.80313 51.225Q219.7875 51.646873 221.02188 51.646873Q222.1 51.646873 222.92813 51.334373Q223.75626 51.00625 224.1625 50.44375Q224.56876 49.88125 224.56876 49.209373Q224.56876 48.5375 224.17813 48.0375Q223.7875 47.5375 222.89688 47.19375Q222.31876 46.959373 220.33438 46.490623Q218.36563 46.021873 217.58438 45.6Q216.55313 45.06875 216.05313 44.271873Q215.55313 43.475 215.55313 42.490623Q215.55313 41.396873 216.1625 40.459373Q216.77188 39.521873 217.95938 39.0375Q219.14688 38.5375 220.58438 38.5375Q222.17813 38.5375 223.39688 39.053123Q224.61563 39.56875 225.25626 40.56875Q225.9125 41.553123 225.95938 42.81875L224.14688 42.959373Q224.00626 41.6 223.1625 40.9125Q222.31876 40.209373 220.6625 40.209373Q218.94376 40.209373 218.14688 40.85Q217.36563 41.475 217.36563 42.35Q217.36563 43.13125 217.92813 43.63125Q218.475 44.13125 220.7875 44.646873Q223.1 45.1625 223.95938 45.553123Q225.20938 46.13125 225.80313 47.021873Q226.39688 47.896873 226.39688 49.053123Q226.39688 50.19375 225.74063 51.209373Q225.08438 52.225 223.85 52.7875Q222.63126 53.35 221.1 53.35Q219.1625 53.35 217.85 52.7875Q216.5375 52.209373 215.7875 51.06875Q215.0375 49.928123 215.00626 48.50625ZM227.67813 49.0375L229.38126 48.803123Q229.45938 50.44375 230.00626 51.053123Q230.55313 51.646873 231.52188 51.646873Q232.225 51.646873 232.74063 51.334373Q233.25626 51.00625 233.44376 50.44375Q233.64688 49.88125 233.64688 48.646873L233.64688 38.7875L235.55313 38.7875L235.55313 48.5375Q235.55313 50.334373 235.11563 51.31875Q234.67813 52.303123 233.725 52.834373Q232.7875 53.35 231.52188 53.35Q229.64688 53.35 228.63126 52.271873Q227.63126 51.178123 227.67813 49.0375ZM242.2875 53.1L242.2875 40.475L237.56876 40.475L237.56876 38.7875L248.9125 38.7875L248.9125 40.475L244.17813 40.475L244.17813 53.1L242.2875 53.1ZM250.67813 53.1L250.67813 38.7875L261.0375 38.7875L261.0375 40.475L252.58438 40.475L252.58438 44.85L260.49063 44.85L260.49063 46.5375L252.58438 46.5375L252.58438 51.4125L261.36563 51.4125L261.36563 53.1L250.67813 53.1Z" fill-rule="nonzero"/></svg>